G04 #@! TF.GenerationSoftware,KiCad,Pcbnew,5.1.4*
G04 #@! TF.CreationDate,2019-09-25T18:31:05+02:00*
G04 #@! TF.ProjectId,ETH6C20MUX,45544836-4332-4304-9d55-582e6b696361,rev?*
G04 #@! TF.SameCoordinates,Original*
G04 #@! TF.FileFunction,Legend,Bot*
G04 #@! TF.FilePolarity,Positive*
%FSLAX46Y46*%
G04 Gerber Fmt 4.6, Leading zero omitted, Abs format (unit mm)*
G04 Created by KiCad (PCBNEW 5.1.4) date 2019-09-25 18:31:05*
%MOMM*%
%LPD*%
G04 APERTURE LIST*
%ADD10C,0.150000*%
%ADD11C,0.120000*%
G04 APERTURE END LIST*
D10*
X207541714Y-101925380D02*
X207875047Y-101449190D01*
X208113142Y-101925380D02*
X208113142Y-100925380D01*
X207732190Y-100925380D01*
X207636952Y-100973000D01*
X207589333Y-101020619D01*
X207541714Y-101115857D01*
X207541714Y-101258714D01*
X207589333Y-101353952D01*
X207636952Y-101401571D01*
X207732190Y-101449190D01*
X208113142Y-101449190D01*
X207208380Y-100925380D02*
X206541714Y-101925380D01*
X206541714Y-100925380D02*
X207208380Y-101925380D01*
X206160761Y-101544428D02*
X205398857Y-101544428D01*
X207541714Y-99385380D02*
X207875047Y-98909190D01*
X208113142Y-99385380D02*
X208113142Y-98385380D01*
X207732190Y-98385380D01*
X207636952Y-98433000D01*
X207589333Y-98480619D01*
X207541714Y-98575857D01*
X207541714Y-98718714D01*
X207589333Y-98813952D01*
X207636952Y-98861571D01*
X207732190Y-98909190D01*
X208113142Y-98909190D01*
X207208380Y-98385380D02*
X206541714Y-99385380D01*
X206541714Y-98385380D02*
X207208380Y-99385380D01*
X206160761Y-99004428D02*
X205398857Y-99004428D01*
X205779809Y-99385380D02*
X205779809Y-98623476D01*
X218931952Y-100925380D02*
X218360523Y-100925380D01*
X218646238Y-101925380D02*
X218646238Y-100925380D01*
X218122428Y-100925380D02*
X217455761Y-101925380D01*
X217455761Y-100925380D02*
X218122428Y-101925380D01*
X217074809Y-101544428D02*
X216312904Y-101544428D01*
X218931952Y-98385380D02*
X218360523Y-98385380D01*
X218646238Y-99385380D02*
X218646238Y-98385380D01*
X218122428Y-98385380D02*
X217455761Y-99385380D01*
X217455761Y-98385380D02*
X218122428Y-99385380D01*
X217074809Y-99004428D02*
X216312904Y-99004428D01*
X216693857Y-99385380D02*
X216693857Y-98623476D01*
X215900000Y-99949000D02*
X213868000Y-99949000D01*
X215900000Y-97790000D02*
X215900000Y-99949000D01*
X213868000Y-97790000D02*
X215900000Y-97790000D01*
X215900000Y-102489000D02*
X213741000Y-102489000D01*
X215900000Y-100330000D02*
X215900000Y-102489000D01*
X213868000Y-100330000D02*
X215900000Y-100330000D01*
X208534000Y-97790000D02*
X210566000Y-97790000D01*
X208534000Y-99949000D02*
X208534000Y-97790000D01*
X210566000Y-99949000D02*
X208534000Y-99949000D01*
X208534000Y-100330000D02*
X210566000Y-100330000D01*
X208534000Y-102489000D02*
X208534000Y-100330000D01*
X210566000Y-102489000D02*
X208534000Y-102489000D01*
X212851904Y-117483000D02*
X212947142Y-117435380D01*
X213090000Y-117435380D01*
X213232857Y-117483000D01*
X213328095Y-117578238D01*
X213375714Y-117673476D01*
X213423333Y-117863952D01*
X213423333Y-118006809D01*
X213375714Y-118197285D01*
X213328095Y-118292523D01*
X213232857Y-118387761D01*
X213090000Y-118435380D01*
X212994761Y-118435380D01*
X212851904Y-118387761D01*
X212804285Y-118340142D01*
X212804285Y-118006809D01*
X212994761Y-118006809D01*
X212375714Y-118435380D02*
X212375714Y-117435380D01*
X211804285Y-118435380D01*
X211804285Y-117435380D01*
X211328095Y-118435380D02*
X211328095Y-117435380D01*
X211090000Y-117435380D01*
X210947142Y-117483000D01*
X210851904Y-117578238D01*
X210804285Y-117673476D01*
X210756666Y-117863952D01*
X210756666Y-118006809D01*
X210804285Y-118197285D01*
X210851904Y-118292523D01*
X210947142Y-118387761D01*
X211090000Y-118435380D01*
X211328095Y-118435380D01*
X214232904Y-128214428D02*
X213471000Y-128214428D01*
X213851952Y-128595380D02*
X213851952Y-127833476D01*
X213042428Y-127690619D02*
X212994809Y-127643000D01*
X212899571Y-127595380D01*
X212661476Y-127595380D01*
X212566238Y-127643000D01*
X212518619Y-127690619D01*
X212471000Y-127785857D01*
X212471000Y-127881095D01*
X212518619Y-128023952D01*
X213090047Y-128595380D01*
X212471000Y-128595380D01*
X211613857Y-127928714D02*
X211613857Y-128595380D01*
X211851952Y-127547761D02*
X212090047Y-128262047D01*
X211471000Y-128262047D01*
X211232904Y-127595380D02*
X210899571Y-128595380D01*
X210566238Y-127595380D01*
X208534000Y-115570000D02*
X210566000Y-115570000D01*
X208534000Y-120269000D02*
X208534000Y-115570000D01*
X210566000Y-120269000D02*
X208534000Y-120269000D01*
X215900000Y-115570000D02*
X215900000Y-120269000D01*
X215900000Y-120269000D02*
X213741000Y-120269000D01*
X213741000Y-115570000D02*
X215900000Y-115570000D01*
X215900000Y-130429000D02*
X213741000Y-130429000D01*
X215900000Y-125730000D02*
X215900000Y-130429000D01*
X213741000Y-125730000D02*
X215900000Y-125730000D01*
X208534000Y-130429000D02*
X208534000Y-125730000D01*
X208534000Y-125730000D02*
X210566000Y-125730000D01*
X210566000Y-130429000D02*
X208534000Y-130429000D01*
X72547619Y-97142857D02*
X72547619Y-97714285D01*
X72547619Y-97428571D02*
X73547619Y-97428571D01*
X73404761Y-97523809D01*
X73309523Y-97619047D01*
X73261904Y-97714285D01*
X72833333Y-96761904D02*
X72833333Y-96285714D01*
X72547619Y-96857142D02*
X73547619Y-96523809D01*
X72547619Y-96190476D01*
X77747619Y-97214285D02*
X77747619Y-97785714D01*
X77747619Y-97500000D02*
X78747619Y-97500000D01*
X78604761Y-97595238D01*
X78509523Y-97690476D01*
X78461904Y-97785714D01*
X78271428Y-96452380D02*
X78223809Y-96309523D01*
X78176190Y-96261904D01*
X78080952Y-96214285D01*
X77938095Y-96214285D01*
X77842857Y-96261904D01*
X77795238Y-96309523D01*
X77747619Y-96404761D01*
X77747619Y-96785714D01*
X78747619Y-96785714D01*
X78747619Y-96452380D01*
X78700000Y-96357142D01*
X78652380Y-96309523D01*
X78557142Y-96261904D01*
X78461904Y-96261904D01*
X78366666Y-96309523D01*
X78319047Y-96357142D01*
X78271428Y-96452380D01*
X78271428Y-96785714D01*
X82947619Y-97114285D02*
X82947619Y-97685714D01*
X82947619Y-97400000D02*
X83947619Y-97400000D01*
X83804761Y-97495238D01*
X83709523Y-97590476D01*
X83661904Y-97685714D01*
X83042857Y-96114285D02*
X82995238Y-96161904D01*
X82947619Y-96304761D01*
X82947619Y-96400000D01*
X82995238Y-96542857D01*
X83090476Y-96638095D01*
X83185714Y-96685714D01*
X83376190Y-96733333D01*
X83519047Y-96733333D01*
X83709523Y-96685714D01*
X83804761Y-96638095D01*
X83900000Y-96542857D01*
X83947619Y-96400000D01*
X83947619Y-96304761D01*
X83900000Y-96161904D01*
X83852380Y-96114285D01*
X89052380Y-97714285D02*
X89100000Y-97666666D01*
X89147619Y-97571428D01*
X89147619Y-97333333D01*
X89100000Y-97238095D01*
X89052380Y-97190476D01*
X88957142Y-97142857D01*
X88861904Y-97142857D01*
X88719047Y-97190476D01*
X88147619Y-97761904D01*
X88147619Y-97142857D01*
X88433333Y-96761904D02*
X88433333Y-96285714D01*
X88147619Y-96857142D02*
X89147619Y-96523809D01*
X88147619Y-96190476D01*
X94252380Y-97785714D02*
X94300000Y-97738095D01*
X94347619Y-97642857D01*
X94347619Y-97404761D01*
X94300000Y-97309523D01*
X94252380Y-97261904D01*
X94157142Y-97214285D01*
X94061904Y-97214285D01*
X93919047Y-97261904D01*
X93347619Y-97833333D01*
X93347619Y-97214285D01*
X93871428Y-96452380D02*
X93823809Y-96309523D01*
X93776190Y-96261904D01*
X93680952Y-96214285D01*
X93538095Y-96214285D01*
X93442857Y-96261904D01*
X93395238Y-96309523D01*
X93347619Y-96404761D01*
X93347619Y-96785714D01*
X94347619Y-96785714D01*
X94347619Y-96452380D01*
X94300000Y-96357142D01*
X94252380Y-96309523D01*
X94157142Y-96261904D01*
X94061904Y-96261904D01*
X93966666Y-96309523D01*
X93919047Y-96357142D01*
X93871428Y-96452380D01*
X93871428Y-96785714D01*
X99452380Y-97785714D02*
X99500000Y-97738095D01*
X99547619Y-97642857D01*
X99547619Y-97404761D01*
X99500000Y-97309523D01*
X99452380Y-97261904D01*
X99357142Y-97214285D01*
X99261904Y-97214285D01*
X99119047Y-97261904D01*
X98547619Y-97833333D01*
X98547619Y-97214285D01*
X98642857Y-96214285D02*
X98595238Y-96261904D01*
X98547619Y-96404761D01*
X98547619Y-96500000D01*
X98595238Y-96642857D01*
X98690476Y-96738095D01*
X98785714Y-96785714D01*
X98976190Y-96833333D01*
X99119047Y-96833333D01*
X99309523Y-96785714D01*
X99404761Y-96738095D01*
X99500000Y-96642857D01*
X99547619Y-96500000D01*
X99547619Y-96404761D01*
X99500000Y-96261904D01*
X99452380Y-96214285D01*
X104647619Y-97761904D02*
X104647619Y-97142857D01*
X104266666Y-97476190D01*
X104266666Y-97333333D01*
X104219047Y-97238095D01*
X104171428Y-97190476D01*
X104076190Y-97142857D01*
X103838095Y-97142857D01*
X103742857Y-97190476D01*
X103695238Y-97238095D01*
X103647619Y-97333333D01*
X103647619Y-97619047D01*
X103695238Y-97714285D01*
X103742857Y-97761904D01*
X103933333Y-96761904D02*
X103933333Y-96285714D01*
X103647619Y-96857142D02*
X104647619Y-96523809D01*
X103647619Y-96190476D01*
X109847619Y-97833333D02*
X109847619Y-97214285D01*
X109466666Y-97547619D01*
X109466666Y-97404761D01*
X109419047Y-97309523D01*
X109371428Y-97261904D01*
X109276190Y-97214285D01*
X109038095Y-97214285D01*
X108942857Y-97261904D01*
X108895238Y-97309523D01*
X108847619Y-97404761D01*
X108847619Y-97690476D01*
X108895238Y-97785714D01*
X108942857Y-97833333D01*
X109371428Y-96452380D02*
X109323809Y-96309523D01*
X109276190Y-96261904D01*
X109180952Y-96214285D01*
X109038095Y-96214285D01*
X108942857Y-96261904D01*
X108895238Y-96309523D01*
X108847619Y-96404761D01*
X108847619Y-96785714D01*
X109847619Y-96785714D01*
X109847619Y-96452380D01*
X109800000Y-96357142D01*
X109752380Y-96309523D01*
X109657142Y-96261904D01*
X109561904Y-96261904D01*
X109466666Y-96309523D01*
X109419047Y-96357142D01*
X109371428Y-96452380D01*
X109371428Y-96785714D01*
X115047619Y-97833333D02*
X115047619Y-97214285D01*
X114666666Y-97547619D01*
X114666666Y-97404761D01*
X114619047Y-97309523D01*
X114571428Y-97261904D01*
X114476190Y-97214285D01*
X114238095Y-97214285D01*
X114142857Y-97261904D01*
X114095238Y-97309523D01*
X114047619Y-97404761D01*
X114047619Y-97690476D01*
X114095238Y-97785714D01*
X114142857Y-97833333D01*
X114142857Y-96214285D02*
X114095238Y-96261904D01*
X114047619Y-96404761D01*
X114047619Y-96500000D01*
X114095238Y-96642857D01*
X114190476Y-96738095D01*
X114285714Y-96785714D01*
X114476190Y-96833333D01*
X114619047Y-96833333D01*
X114809523Y-96785714D01*
X114904761Y-96738095D01*
X115000000Y-96642857D01*
X115047619Y-96500000D01*
X115047619Y-96404761D01*
X115000000Y-96261904D01*
X114952380Y-96214285D01*
X119914285Y-97238095D02*
X119247619Y-97238095D01*
X120295238Y-97476190D02*
X119580952Y-97714285D01*
X119580952Y-97095238D01*
X119533333Y-96761904D02*
X119533333Y-96285714D01*
X119247619Y-96857142D02*
X120247619Y-96523809D01*
X119247619Y-96190476D01*
X125114285Y-97309523D02*
X124447619Y-97309523D01*
X125495238Y-97547619D02*
X124780952Y-97785714D01*
X124780952Y-97166666D01*
X124971428Y-96452380D02*
X124923809Y-96309523D01*
X124876190Y-96261904D01*
X124780952Y-96214285D01*
X124638095Y-96214285D01*
X124542857Y-96261904D01*
X124495238Y-96309523D01*
X124447619Y-96404761D01*
X124447619Y-96785714D01*
X125447619Y-96785714D01*
X125447619Y-96452380D01*
X125400000Y-96357142D01*
X125352380Y-96309523D01*
X125257142Y-96261904D01*
X125161904Y-96261904D01*
X125066666Y-96309523D01*
X125019047Y-96357142D01*
X124971428Y-96452380D01*
X124971428Y-96785714D01*
X130314285Y-97309523D02*
X129647619Y-97309523D01*
X130695238Y-97547619D02*
X129980952Y-97785714D01*
X129980952Y-97166666D01*
X129742857Y-96214285D02*
X129695238Y-96261904D01*
X129647619Y-96404761D01*
X129647619Y-96500000D01*
X129695238Y-96642857D01*
X129790476Y-96738095D01*
X129885714Y-96785714D01*
X130076190Y-96833333D01*
X130219047Y-96833333D01*
X130409523Y-96785714D01*
X130504761Y-96738095D01*
X130600000Y-96642857D01*
X130647619Y-96500000D01*
X130647619Y-96404761D01*
X130600000Y-96261904D01*
X130552380Y-96214285D01*
X135847619Y-97190476D02*
X135847619Y-97666666D01*
X135371428Y-97714285D01*
X135419047Y-97666666D01*
X135466666Y-97571428D01*
X135466666Y-97333333D01*
X135419047Y-97238095D01*
X135371428Y-97190476D01*
X135276190Y-97142857D01*
X135038095Y-97142857D01*
X134942857Y-97190476D01*
X134895238Y-97238095D01*
X134847619Y-97333333D01*
X134847619Y-97571428D01*
X134895238Y-97666666D01*
X134942857Y-97714285D01*
X135133333Y-96761904D02*
X135133333Y-96285714D01*
X134847619Y-96857142D02*
X135847619Y-96523809D01*
X134847619Y-96190476D01*
X141047619Y-97261904D02*
X141047619Y-97738095D01*
X140571428Y-97785714D01*
X140619047Y-97738095D01*
X140666666Y-97642857D01*
X140666666Y-97404761D01*
X140619047Y-97309523D01*
X140571428Y-97261904D01*
X140476190Y-97214285D01*
X140238095Y-97214285D01*
X140142857Y-97261904D01*
X140095238Y-97309523D01*
X140047619Y-97404761D01*
X140047619Y-97642857D01*
X140095238Y-97738095D01*
X140142857Y-97785714D01*
X140571428Y-96452380D02*
X140523809Y-96309523D01*
X140476190Y-96261904D01*
X140380952Y-96214285D01*
X140238095Y-96214285D01*
X140142857Y-96261904D01*
X140095238Y-96309523D01*
X140047619Y-96404761D01*
X140047619Y-96785714D01*
X141047619Y-96785714D01*
X141047619Y-96452380D01*
X141000000Y-96357142D01*
X140952380Y-96309523D01*
X140857142Y-96261904D01*
X140761904Y-96261904D01*
X140666666Y-96309523D01*
X140619047Y-96357142D01*
X140571428Y-96452380D01*
X140571428Y-96785714D01*
X146247619Y-97261904D02*
X146247619Y-97738095D01*
X145771428Y-97785714D01*
X145819047Y-97738095D01*
X145866666Y-97642857D01*
X145866666Y-97404761D01*
X145819047Y-97309523D01*
X145771428Y-97261904D01*
X145676190Y-97214285D01*
X145438095Y-97214285D01*
X145342857Y-97261904D01*
X145295238Y-97309523D01*
X145247619Y-97404761D01*
X145247619Y-97642857D01*
X145295238Y-97738095D01*
X145342857Y-97785714D01*
X145342857Y-96214285D02*
X145295238Y-96261904D01*
X145247619Y-96404761D01*
X145247619Y-96500000D01*
X145295238Y-96642857D01*
X145390476Y-96738095D01*
X145485714Y-96785714D01*
X145676190Y-96833333D01*
X145819047Y-96833333D01*
X146009523Y-96785714D01*
X146104761Y-96738095D01*
X146200000Y-96642857D01*
X146247619Y-96500000D01*
X146247619Y-96404761D01*
X146200000Y-96261904D01*
X146152380Y-96214285D01*
X151447619Y-97238095D02*
X151447619Y-97428571D01*
X151400000Y-97523809D01*
X151352380Y-97571428D01*
X151209523Y-97666666D01*
X151019047Y-97714285D01*
X150638095Y-97714285D01*
X150542857Y-97666666D01*
X150495238Y-97619047D01*
X150447619Y-97523809D01*
X150447619Y-97333333D01*
X150495238Y-97238095D01*
X150542857Y-97190476D01*
X150638095Y-97142857D01*
X150876190Y-97142857D01*
X150971428Y-97190476D01*
X151019047Y-97238095D01*
X151066666Y-97333333D01*
X151066666Y-97523809D01*
X151019047Y-97619047D01*
X150971428Y-97666666D01*
X150876190Y-97714285D01*
X150733333Y-96761904D02*
X150733333Y-96285714D01*
X150447619Y-96857142D02*
X151447619Y-96523809D01*
X150447619Y-96190476D01*
X156647619Y-97309523D02*
X156647619Y-97500000D01*
X156600000Y-97595238D01*
X156552380Y-97642857D01*
X156409523Y-97738095D01*
X156219047Y-97785714D01*
X155838095Y-97785714D01*
X155742857Y-97738095D01*
X155695238Y-97690476D01*
X155647619Y-97595238D01*
X155647619Y-97404761D01*
X155695238Y-97309523D01*
X155742857Y-97261904D01*
X155838095Y-97214285D01*
X156076190Y-97214285D01*
X156171428Y-97261904D01*
X156219047Y-97309523D01*
X156266666Y-97404761D01*
X156266666Y-97595238D01*
X156219047Y-97690476D01*
X156171428Y-97738095D01*
X156076190Y-97785714D01*
X156171428Y-96452380D02*
X156123809Y-96309523D01*
X156076190Y-96261904D01*
X155980952Y-96214285D01*
X155838095Y-96214285D01*
X155742857Y-96261904D01*
X155695238Y-96309523D01*
X155647619Y-96404761D01*
X155647619Y-96785714D01*
X156647619Y-96785714D01*
X156647619Y-96452380D01*
X156600000Y-96357142D01*
X156552380Y-96309523D01*
X156457142Y-96261904D01*
X156361904Y-96261904D01*
X156266666Y-96309523D01*
X156219047Y-96357142D01*
X156171428Y-96452380D01*
X156171428Y-96785714D01*
X161847619Y-97309523D02*
X161847619Y-97500000D01*
X161800000Y-97595238D01*
X161752380Y-97642857D01*
X161609523Y-97738095D01*
X161419047Y-97785714D01*
X161038095Y-97785714D01*
X160942857Y-97738095D01*
X160895238Y-97690476D01*
X160847619Y-97595238D01*
X160847619Y-97404761D01*
X160895238Y-97309523D01*
X160942857Y-97261904D01*
X161038095Y-97214285D01*
X161276190Y-97214285D01*
X161371428Y-97261904D01*
X161419047Y-97309523D01*
X161466666Y-97404761D01*
X161466666Y-97595238D01*
X161419047Y-97690476D01*
X161371428Y-97738095D01*
X161276190Y-97785714D01*
X160942857Y-96214285D02*
X160895238Y-96261904D01*
X160847619Y-96404761D01*
X160847619Y-96500000D01*
X160895238Y-96642857D01*
X160990476Y-96738095D01*
X161085714Y-96785714D01*
X161276190Y-96833333D01*
X161419047Y-96833333D01*
X161609523Y-96785714D01*
X161704761Y-96738095D01*
X161800000Y-96642857D01*
X161847619Y-96500000D01*
X161847619Y-96404761D01*
X161800000Y-96261904D01*
X161752380Y-96214285D01*
X72347619Y-76261904D02*
X72347619Y-75595238D01*
X71347619Y-76023809D01*
X71633333Y-75261904D02*
X71633333Y-74785714D01*
X71347619Y-75357142D02*
X72347619Y-75023809D01*
X71347619Y-74690476D01*
X78747619Y-76233333D02*
X78747619Y-75566666D01*
X77747619Y-75995238D01*
X78271428Y-74852380D02*
X78223809Y-74709523D01*
X78176190Y-74661904D01*
X78080952Y-74614285D01*
X77938095Y-74614285D01*
X77842857Y-74661904D01*
X77795238Y-74709523D01*
X77747619Y-74804761D01*
X77747619Y-75185714D01*
X78747619Y-75185714D01*
X78747619Y-74852380D01*
X78700000Y-74757142D01*
X78652380Y-74709523D01*
X78557142Y-74661904D01*
X78461904Y-74661904D01*
X78366666Y-74709523D01*
X78319047Y-74757142D01*
X78271428Y-74852380D01*
X78271428Y-75185714D01*
X83947619Y-76233333D02*
X83947619Y-75566666D01*
X82947619Y-75995238D01*
X83042857Y-74614285D02*
X82995238Y-74661904D01*
X82947619Y-74804761D01*
X82947619Y-74900000D01*
X82995238Y-75042857D01*
X83090476Y-75138095D01*
X83185714Y-75185714D01*
X83376190Y-75233333D01*
X83519047Y-75233333D01*
X83709523Y-75185714D01*
X83804761Y-75138095D01*
X83900000Y-75042857D01*
X83947619Y-74900000D01*
X83947619Y-74804761D01*
X83900000Y-74661904D01*
X83852380Y-74614285D01*
X88719047Y-75923809D02*
X88766666Y-76019047D01*
X88814285Y-76066666D01*
X88909523Y-76114285D01*
X88957142Y-76114285D01*
X89052380Y-76066666D01*
X89100000Y-76019047D01*
X89147619Y-75923809D01*
X89147619Y-75733333D01*
X89100000Y-75638095D01*
X89052380Y-75590476D01*
X88957142Y-75542857D01*
X88909523Y-75542857D01*
X88814285Y-75590476D01*
X88766666Y-75638095D01*
X88719047Y-75733333D01*
X88719047Y-75923809D01*
X88671428Y-76019047D01*
X88623809Y-76066666D01*
X88528571Y-76114285D01*
X88338095Y-76114285D01*
X88242857Y-76066666D01*
X88195238Y-76019047D01*
X88147619Y-75923809D01*
X88147619Y-75733333D01*
X88195238Y-75638095D01*
X88242857Y-75590476D01*
X88338095Y-75542857D01*
X88528571Y-75542857D01*
X88623809Y-75590476D01*
X88671428Y-75638095D01*
X88719047Y-75733333D01*
X88433333Y-75161904D02*
X88433333Y-74685714D01*
X88147619Y-75257142D02*
X89147619Y-74923809D01*
X88147619Y-74590476D01*
X93919047Y-75995238D02*
X93966666Y-76090476D01*
X94014285Y-76138095D01*
X94109523Y-76185714D01*
X94157142Y-76185714D01*
X94252380Y-76138095D01*
X94300000Y-76090476D01*
X94347619Y-75995238D01*
X94347619Y-75804761D01*
X94300000Y-75709523D01*
X94252380Y-75661904D01*
X94157142Y-75614285D01*
X94109523Y-75614285D01*
X94014285Y-75661904D01*
X93966666Y-75709523D01*
X93919047Y-75804761D01*
X93919047Y-75995238D01*
X93871428Y-76090476D01*
X93823809Y-76138095D01*
X93728571Y-76185714D01*
X93538095Y-76185714D01*
X93442857Y-76138095D01*
X93395238Y-76090476D01*
X93347619Y-75995238D01*
X93347619Y-75804761D01*
X93395238Y-75709523D01*
X93442857Y-75661904D01*
X93538095Y-75614285D01*
X93728571Y-75614285D01*
X93823809Y-75661904D01*
X93871428Y-75709523D01*
X93919047Y-75804761D01*
X93871428Y-74852380D02*
X93823809Y-74709523D01*
X93776190Y-74661904D01*
X93680952Y-74614285D01*
X93538095Y-74614285D01*
X93442857Y-74661904D01*
X93395238Y-74709523D01*
X93347619Y-74804761D01*
X93347619Y-75185714D01*
X94347619Y-75185714D01*
X94347619Y-74852380D01*
X94300000Y-74757142D01*
X94252380Y-74709523D01*
X94157142Y-74661904D01*
X94061904Y-74661904D01*
X93966666Y-74709523D01*
X93919047Y-74757142D01*
X93871428Y-74852380D01*
X93871428Y-75185714D01*
X99119047Y-75995238D02*
X99166666Y-76090476D01*
X99214285Y-76138095D01*
X99309523Y-76185714D01*
X99357142Y-76185714D01*
X99452380Y-76138095D01*
X99500000Y-76090476D01*
X99547619Y-75995238D01*
X99547619Y-75804761D01*
X99500000Y-75709523D01*
X99452380Y-75661904D01*
X99357142Y-75614285D01*
X99309523Y-75614285D01*
X99214285Y-75661904D01*
X99166666Y-75709523D01*
X99119047Y-75804761D01*
X99119047Y-75995238D01*
X99071428Y-76090476D01*
X99023809Y-76138095D01*
X98928571Y-76185714D01*
X98738095Y-76185714D01*
X98642857Y-76138095D01*
X98595238Y-76090476D01*
X98547619Y-75995238D01*
X98547619Y-75804761D01*
X98595238Y-75709523D01*
X98642857Y-75661904D01*
X98738095Y-75614285D01*
X98928571Y-75614285D01*
X99023809Y-75661904D01*
X99071428Y-75709523D01*
X99119047Y-75804761D01*
X98642857Y-74614285D02*
X98595238Y-74661904D01*
X98547619Y-74804761D01*
X98547619Y-74900000D01*
X98595238Y-75042857D01*
X98690476Y-75138095D01*
X98785714Y-75185714D01*
X98976190Y-75233333D01*
X99119047Y-75233333D01*
X99309523Y-75185714D01*
X99404761Y-75138095D01*
X99500000Y-75042857D01*
X99547619Y-74900000D01*
X99547619Y-74804761D01*
X99500000Y-74661904D01*
X99452380Y-74614285D01*
X103747619Y-76019047D02*
X103747619Y-75828571D01*
X103795238Y-75733333D01*
X103842857Y-75685714D01*
X103985714Y-75590476D01*
X104176190Y-75542857D01*
X104557142Y-75542857D01*
X104652380Y-75590476D01*
X104700000Y-75638095D01*
X104747619Y-75733333D01*
X104747619Y-75923809D01*
X104700000Y-76019047D01*
X104652380Y-76066666D01*
X104557142Y-76114285D01*
X104319047Y-76114285D01*
X104223809Y-76066666D01*
X104176190Y-76019047D01*
X104128571Y-75923809D01*
X104128571Y-75733333D01*
X104176190Y-75638095D01*
X104223809Y-75590476D01*
X104319047Y-75542857D01*
X104033333Y-75161904D02*
X104033333Y-74685714D01*
X103747619Y-75257142D02*
X104747619Y-74923809D01*
X103747619Y-74590476D01*
X108947619Y-76090476D02*
X108947619Y-75900000D01*
X108995238Y-75804761D01*
X109042857Y-75757142D01*
X109185714Y-75661904D01*
X109376190Y-75614285D01*
X109757142Y-75614285D01*
X109852380Y-75661904D01*
X109900000Y-75709523D01*
X109947619Y-75804761D01*
X109947619Y-75995238D01*
X109900000Y-76090476D01*
X109852380Y-76138095D01*
X109757142Y-76185714D01*
X109519047Y-76185714D01*
X109423809Y-76138095D01*
X109376190Y-76090476D01*
X109328571Y-75995238D01*
X109328571Y-75804761D01*
X109376190Y-75709523D01*
X109423809Y-75661904D01*
X109519047Y-75614285D01*
X109471428Y-74852380D02*
X109423809Y-74709523D01*
X109376190Y-74661904D01*
X109280952Y-74614285D01*
X109138095Y-74614285D01*
X109042857Y-74661904D01*
X108995238Y-74709523D01*
X108947619Y-74804761D01*
X108947619Y-75185714D01*
X109947619Y-75185714D01*
X109947619Y-74852380D01*
X109900000Y-74757142D01*
X109852380Y-74709523D01*
X109757142Y-74661904D01*
X109661904Y-74661904D01*
X109566666Y-74709523D01*
X109519047Y-74757142D01*
X109471428Y-74852380D01*
X109471428Y-75185714D01*
X114147619Y-76090476D02*
X114147619Y-75900000D01*
X114195238Y-75804761D01*
X114242857Y-75757142D01*
X114385714Y-75661904D01*
X114576190Y-75614285D01*
X114957142Y-75614285D01*
X115052380Y-75661904D01*
X115100000Y-75709523D01*
X115147619Y-75804761D01*
X115147619Y-75995238D01*
X115100000Y-76090476D01*
X115052380Y-76138095D01*
X114957142Y-76185714D01*
X114719047Y-76185714D01*
X114623809Y-76138095D01*
X114576190Y-76090476D01*
X114528571Y-75995238D01*
X114528571Y-75804761D01*
X114576190Y-75709523D01*
X114623809Y-75661904D01*
X114719047Y-75614285D01*
X114242857Y-74614285D02*
X114195238Y-74661904D01*
X114147619Y-74804761D01*
X114147619Y-74900000D01*
X114195238Y-75042857D01*
X114290476Y-75138095D01*
X114385714Y-75185714D01*
X114576190Y-75233333D01*
X114719047Y-75233333D01*
X114909523Y-75185714D01*
X115004761Y-75138095D01*
X115100000Y-75042857D01*
X115147619Y-74900000D01*
X115147619Y-74804761D01*
X115100000Y-74661904D01*
X115052380Y-74614285D01*
X119347619Y-76019047D02*
X119347619Y-76590476D01*
X119347619Y-76304761D02*
X120347619Y-76304761D01*
X120204761Y-76400000D01*
X120109523Y-76495238D01*
X120061904Y-76590476D01*
X120347619Y-75400000D02*
X120347619Y-75304761D01*
X120300000Y-75209523D01*
X120252380Y-75161904D01*
X120157142Y-75114285D01*
X119966666Y-75066666D01*
X119728571Y-75066666D01*
X119538095Y-75114285D01*
X119442857Y-75161904D01*
X119395238Y-75209523D01*
X119347619Y-75304761D01*
X119347619Y-75400000D01*
X119395238Y-75495238D01*
X119442857Y-75542857D01*
X119538095Y-75590476D01*
X119728571Y-75638095D01*
X119966666Y-75638095D01*
X120157142Y-75590476D01*
X120252380Y-75542857D01*
X120300000Y-75495238D01*
X120347619Y-75400000D01*
X119633333Y-74685714D02*
X119633333Y-74209523D01*
X119347619Y-74780952D02*
X120347619Y-74447619D01*
X119347619Y-74114285D01*
X124547619Y-76090476D02*
X124547619Y-76661904D01*
X124547619Y-76376190D02*
X125547619Y-76376190D01*
X125404761Y-76471428D01*
X125309523Y-76566666D01*
X125261904Y-76661904D01*
X125547619Y-75471428D02*
X125547619Y-75376190D01*
X125500000Y-75280952D01*
X125452380Y-75233333D01*
X125357142Y-75185714D01*
X125166666Y-75138095D01*
X124928571Y-75138095D01*
X124738095Y-75185714D01*
X124642857Y-75233333D01*
X124595238Y-75280952D01*
X124547619Y-75376190D01*
X124547619Y-75471428D01*
X124595238Y-75566666D01*
X124642857Y-75614285D01*
X124738095Y-75661904D01*
X124928571Y-75709523D01*
X125166666Y-75709523D01*
X125357142Y-75661904D01*
X125452380Y-75614285D01*
X125500000Y-75566666D01*
X125547619Y-75471428D01*
X125071428Y-74376190D02*
X125023809Y-74233333D01*
X124976190Y-74185714D01*
X124880952Y-74138095D01*
X124738095Y-74138095D01*
X124642857Y-74185714D01*
X124595238Y-74233333D01*
X124547619Y-74328571D01*
X124547619Y-74709523D01*
X125547619Y-74709523D01*
X125547619Y-74376190D01*
X125500000Y-74280952D01*
X125452380Y-74233333D01*
X125357142Y-74185714D01*
X125261904Y-74185714D01*
X125166666Y-74233333D01*
X125119047Y-74280952D01*
X125071428Y-74376190D01*
X125071428Y-74709523D01*
X129747619Y-76090476D02*
X129747619Y-76661904D01*
X129747619Y-76376190D02*
X130747619Y-76376190D01*
X130604761Y-76471428D01*
X130509523Y-76566666D01*
X130461904Y-76661904D01*
X130747619Y-75471428D02*
X130747619Y-75376190D01*
X130700000Y-75280952D01*
X130652380Y-75233333D01*
X130557142Y-75185714D01*
X130366666Y-75138095D01*
X130128571Y-75138095D01*
X129938095Y-75185714D01*
X129842857Y-75233333D01*
X129795238Y-75280952D01*
X129747619Y-75376190D01*
X129747619Y-75471428D01*
X129795238Y-75566666D01*
X129842857Y-75614285D01*
X129938095Y-75661904D01*
X130128571Y-75709523D01*
X130366666Y-75709523D01*
X130557142Y-75661904D01*
X130652380Y-75614285D01*
X130700000Y-75566666D01*
X130747619Y-75471428D01*
X129842857Y-74138095D02*
X129795238Y-74185714D01*
X129747619Y-74328571D01*
X129747619Y-74423809D01*
X129795238Y-74566666D01*
X129890476Y-74661904D01*
X129985714Y-74709523D01*
X130176190Y-74757142D01*
X130319047Y-74757142D01*
X130509523Y-74709523D01*
X130604761Y-74661904D01*
X130700000Y-74566666D01*
X130747619Y-74423809D01*
X130747619Y-74328571D01*
X130700000Y-74185714D01*
X130652380Y-74138095D01*
X134947619Y-76019047D02*
X134947619Y-76590476D01*
X134947619Y-76304761D02*
X135947619Y-76304761D01*
X135804761Y-76400000D01*
X135709523Y-76495238D01*
X135661904Y-76590476D01*
X134947619Y-75066666D02*
X134947619Y-75638095D01*
X134947619Y-75352380D02*
X135947619Y-75352380D01*
X135804761Y-75447619D01*
X135709523Y-75542857D01*
X135661904Y-75638095D01*
X135233333Y-74685714D02*
X135233333Y-74209523D01*
X134947619Y-74780952D02*
X135947619Y-74447619D01*
X134947619Y-74114285D01*
X140147619Y-76090476D02*
X140147619Y-76661904D01*
X140147619Y-76376190D02*
X141147619Y-76376190D01*
X141004761Y-76471428D01*
X140909523Y-76566666D01*
X140861904Y-76661904D01*
X140147619Y-75138095D02*
X140147619Y-75709523D01*
X140147619Y-75423809D02*
X141147619Y-75423809D01*
X141004761Y-75519047D01*
X140909523Y-75614285D01*
X140861904Y-75709523D01*
X140671428Y-74376190D02*
X140623809Y-74233333D01*
X140576190Y-74185714D01*
X140480952Y-74138095D01*
X140338095Y-74138095D01*
X140242857Y-74185714D01*
X140195238Y-74233333D01*
X140147619Y-74328571D01*
X140147619Y-74709523D01*
X141147619Y-74709523D01*
X141147619Y-74376190D01*
X141100000Y-74280952D01*
X141052380Y-74233333D01*
X140957142Y-74185714D01*
X140861904Y-74185714D01*
X140766666Y-74233333D01*
X140719047Y-74280952D01*
X140671428Y-74376190D01*
X140671428Y-74709523D01*
X145347619Y-75990476D02*
X145347619Y-76561904D01*
X145347619Y-76276190D02*
X146347619Y-76276190D01*
X146204761Y-76371428D01*
X146109523Y-76466666D01*
X146061904Y-76561904D01*
X145347619Y-75038095D02*
X145347619Y-75609523D01*
X145347619Y-75323809D02*
X146347619Y-75323809D01*
X146204761Y-75419047D01*
X146109523Y-75514285D01*
X146061904Y-75609523D01*
X145442857Y-74038095D02*
X145395238Y-74085714D01*
X145347619Y-74228571D01*
X145347619Y-74323809D01*
X145395238Y-74466666D01*
X145490476Y-74561904D01*
X145585714Y-74609523D01*
X145776190Y-74657142D01*
X145919047Y-74657142D01*
X146109523Y-74609523D01*
X146204761Y-74561904D01*
X146300000Y-74466666D01*
X146347619Y-74323809D01*
X146347619Y-74228571D01*
X146300000Y-74085714D01*
X146252380Y-74038095D01*
X150547619Y-76019047D02*
X150547619Y-76590476D01*
X150547619Y-76304761D02*
X151547619Y-76304761D01*
X151404761Y-76400000D01*
X151309523Y-76495238D01*
X151261904Y-76590476D01*
X151452380Y-75638095D02*
X151500000Y-75590476D01*
X151547619Y-75495238D01*
X151547619Y-75257142D01*
X151500000Y-75161904D01*
X151452380Y-75114285D01*
X151357142Y-75066666D01*
X151261904Y-75066666D01*
X151119047Y-75114285D01*
X150547619Y-75685714D01*
X150547619Y-75066666D01*
X150833333Y-74685714D02*
X150833333Y-74209523D01*
X150547619Y-74780952D02*
X151547619Y-74447619D01*
X150547619Y-74114285D01*
X155747619Y-76090476D02*
X155747619Y-76661904D01*
X155747619Y-76376190D02*
X156747619Y-76376190D01*
X156604761Y-76471428D01*
X156509523Y-76566666D01*
X156461904Y-76661904D01*
X156652380Y-75709523D02*
X156700000Y-75661904D01*
X156747619Y-75566666D01*
X156747619Y-75328571D01*
X156700000Y-75233333D01*
X156652380Y-75185714D01*
X156557142Y-75138095D01*
X156461904Y-75138095D01*
X156319047Y-75185714D01*
X155747619Y-75757142D01*
X155747619Y-75138095D01*
X156271428Y-74376190D02*
X156223809Y-74233333D01*
X156176190Y-74185714D01*
X156080952Y-74138095D01*
X155938095Y-74138095D01*
X155842857Y-74185714D01*
X155795238Y-74233333D01*
X155747619Y-74328571D01*
X155747619Y-74709523D01*
X156747619Y-74709523D01*
X156747619Y-74376190D01*
X156700000Y-74280952D01*
X156652380Y-74233333D01*
X156557142Y-74185714D01*
X156461904Y-74185714D01*
X156366666Y-74233333D01*
X156319047Y-74280952D01*
X156271428Y-74376190D01*
X156271428Y-74709523D01*
X160947619Y-76090476D02*
X160947619Y-76661904D01*
X160947619Y-76376190D02*
X161947619Y-76376190D01*
X161804761Y-76471428D01*
X161709523Y-76566666D01*
X161661904Y-76661904D01*
X161852380Y-75709523D02*
X161900000Y-75661904D01*
X161947619Y-75566666D01*
X161947619Y-75328571D01*
X161900000Y-75233333D01*
X161852380Y-75185714D01*
X161757142Y-75138095D01*
X161661904Y-75138095D01*
X161519047Y-75185714D01*
X160947619Y-75757142D01*
X160947619Y-75138095D01*
X161042857Y-74138095D02*
X160995238Y-74185714D01*
X160947619Y-74328571D01*
X160947619Y-74423809D01*
X160995238Y-74566666D01*
X161090476Y-74661904D01*
X161185714Y-74709523D01*
X161376190Y-74757142D01*
X161519047Y-74757142D01*
X161709523Y-74709523D01*
X161804761Y-74661904D01*
X161900000Y-74566666D01*
X161947619Y-74423809D01*
X161947619Y-74328571D01*
X161900000Y-74185714D01*
X161852380Y-74138095D01*
X166147619Y-76019047D02*
X166147619Y-76590476D01*
X166147619Y-76304761D02*
X167147619Y-76304761D01*
X167004761Y-76400000D01*
X166909523Y-76495238D01*
X166861904Y-76590476D01*
X167147619Y-75685714D02*
X167147619Y-75066666D01*
X166766666Y-75400000D01*
X166766666Y-75257142D01*
X166719047Y-75161904D01*
X166671428Y-75114285D01*
X166576190Y-75066666D01*
X166338095Y-75066666D01*
X166242857Y-75114285D01*
X166195238Y-75161904D01*
X166147619Y-75257142D01*
X166147619Y-75542857D01*
X166195238Y-75638095D01*
X166242857Y-75685714D01*
X166433333Y-74685714D02*
X166433333Y-74209523D01*
X166147619Y-74780952D02*
X167147619Y-74447619D01*
X166147619Y-74114285D01*
X171347619Y-76090476D02*
X171347619Y-76661904D01*
X171347619Y-76376190D02*
X172347619Y-76376190D01*
X172204761Y-76471428D01*
X172109523Y-76566666D01*
X172061904Y-76661904D01*
X172347619Y-75757142D02*
X172347619Y-75138095D01*
X171966666Y-75471428D01*
X171966666Y-75328571D01*
X171919047Y-75233333D01*
X171871428Y-75185714D01*
X171776190Y-75138095D01*
X171538095Y-75138095D01*
X171442857Y-75185714D01*
X171395238Y-75233333D01*
X171347619Y-75328571D01*
X171347619Y-75614285D01*
X171395238Y-75709523D01*
X171442857Y-75757142D01*
X171871428Y-74376190D02*
X171823809Y-74233333D01*
X171776190Y-74185714D01*
X171680952Y-74138095D01*
X171538095Y-74138095D01*
X171442857Y-74185714D01*
X171395238Y-74233333D01*
X171347619Y-74328571D01*
X171347619Y-74709523D01*
X172347619Y-74709523D01*
X172347619Y-74376190D01*
X172300000Y-74280952D01*
X172252380Y-74233333D01*
X172157142Y-74185714D01*
X172061904Y-74185714D01*
X171966666Y-74233333D01*
X171919047Y-74280952D01*
X171871428Y-74376190D01*
X171871428Y-74709523D01*
X176547619Y-76090476D02*
X176547619Y-76661904D01*
X176547619Y-76376190D02*
X177547619Y-76376190D01*
X177404761Y-76471428D01*
X177309523Y-76566666D01*
X177261904Y-76661904D01*
X177547619Y-75757142D02*
X177547619Y-75138095D01*
X177166666Y-75471428D01*
X177166666Y-75328571D01*
X177119047Y-75233333D01*
X177071428Y-75185714D01*
X176976190Y-75138095D01*
X176738095Y-75138095D01*
X176642857Y-75185714D01*
X176595238Y-75233333D01*
X176547619Y-75328571D01*
X176547619Y-75614285D01*
X176595238Y-75709523D01*
X176642857Y-75757142D01*
X176642857Y-74138095D02*
X176595238Y-74185714D01*
X176547619Y-74328571D01*
X176547619Y-74423809D01*
X176595238Y-74566666D01*
X176690476Y-74661904D01*
X176785714Y-74709523D01*
X176976190Y-74757142D01*
X177119047Y-74757142D01*
X177309523Y-74709523D01*
X177404761Y-74661904D01*
X177500000Y-74566666D01*
X177547619Y-74423809D01*
X177547619Y-74328571D01*
X177500000Y-74185714D01*
X177452380Y-74138095D01*
X181842857Y-75590476D02*
X181795238Y-75638095D01*
X181747619Y-75780952D01*
X181747619Y-75876190D01*
X181795238Y-76019047D01*
X181890476Y-76114285D01*
X181985714Y-76161904D01*
X182176190Y-76209523D01*
X182319047Y-76209523D01*
X182509523Y-76161904D01*
X182604761Y-76114285D01*
X182700000Y-76019047D01*
X182747619Y-75876190D01*
X182747619Y-75780952D01*
X182700000Y-75638095D01*
X182652380Y-75590476D01*
X181747619Y-75161904D02*
X182747619Y-75161904D01*
X182747619Y-74923809D01*
X182700000Y-74780952D01*
X182604761Y-74685714D01*
X182509523Y-74638095D01*
X182319047Y-74590476D01*
X182176190Y-74590476D01*
X181985714Y-74638095D01*
X181890476Y-74685714D01*
X181795238Y-74780952D01*
X181747619Y-74923809D01*
X181747619Y-75161904D01*
X187471428Y-75780952D02*
X187423809Y-75638095D01*
X187376190Y-75590476D01*
X187280952Y-75542857D01*
X187138095Y-75542857D01*
X187042857Y-75590476D01*
X186995238Y-75638095D01*
X186947619Y-75733333D01*
X186947619Y-76114285D01*
X187947619Y-76114285D01*
X187947619Y-75780952D01*
X187900000Y-75685714D01*
X187852380Y-75638095D01*
X187757142Y-75590476D01*
X187661904Y-75590476D01*
X187566666Y-75638095D01*
X187519047Y-75685714D01*
X187471428Y-75780952D01*
X187471428Y-76114285D01*
X187471428Y-75114285D02*
X187471428Y-74780952D01*
X186947619Y-74638095D02*
X186947619Y-75114285D01*
X187947619Y-75114285D01*
X187947619Y-74638095D01*
X192433333Y-76066666D02*
X192433333Y-75590476D01*
X192147619Y-76161904D02*
X193147619Y-75828571D01*
X192147619Y-75495238D01*
X192671428Y-74828571D02*
X192671428Y-75161904D01*
X192147619Y-75161904D02*
X193147619Y-75161904D01*
X193147619Y-74685714D01*
X72547619Y-54419047D02*
X72547619Y-54990476D01*
X72547619Y-54704761D02*
X73547619Y-54704761D01*
X73404761Y-54800000D01*
X73309523Y-54895238D01*
X73261904Y-54990476D01*
X73214285Y-53561904D02*
X72547619Y-53561904D01*
X73595238Y-53800000D02*
X72880952Y-54038095D01*
X72880952Y-53419047D01*
X72833333Y-53085714D02*
X72833333Y-52609523D01*
X72547619Y-53180952D02*
X73547619Y-52847619D01*
X72547619Y-52514285D01*
X77747619Y-54490476D02*
X77747619Y-55061904D01*
X77747619Y-54776190D02*
X78747619Y-54776190D01*
X78604761Y-54871428D01*
X78509523Y-54966666D01*
X78461904Y-55061904D01*
X78414285Y-53633333D02*
X77747619Y-53633333D01*
X78795238Y-53871428D02*
X78080952Y-54109523D01*
X78080952Y-53490476D01*
X78271428Y-52776190D02*
X78223809Y-52633333D01*
X78176190Y-52585714D01*
X78080952Y-52538095D01*
X77938095Y-52538095D01*
X77842857Y-52585714D01*
X77795238Y-52633333D01*
X77747619Y-52728571D01*
X77747619Y-53109523D01*
X78747619Y-53109523D01*
X78747619Y-52776190D01*
X78700000Y-52680952D01*
X78652380Y-52633333D01*
X78557142Y-52585714D01*
X78461904Y-52585714D01*
X78366666Y-52633333D01*
X78319047Y-52680952D01*
X78271428Y-52776190D01*
X78271428Y-53109523D01*
X82947619Y-54490476D02*
X82947619Y-55061904D01*
X82947619Y-54776190D02*
X83947619Y-54776190D01*
X83804761Y-54871428D01*
X83709523Y-54966666D01*
X83661904Y-55061904D01*
X83614285Y-53633333D02*
X82947619Y-53633333D01*
X83995238Y-53871428D02*
X83280952Y-54109523D01*
X83280952Y-53490476D01*
X83042857Y-52538095D02*
X82995238Y-52585714D01*
X82947619Y-52728571D01*
X82947619Y-52823809D01*
X82995238Y-52966666D01*
X83090476Y-53061904D01*
X83185714Y-53109523D01*
X83376190Y-53157142D01*
X83519047Y-53157142D01*
X83709523Y-53109523D01*
X83804761Y-53061904D01*
X83900000Y-52966666D01*
X83947619Y-52823809D01*
X83947619Y-52728571D01*
X83900000Y-52585714D01*
X83852380Y-52538095D01*
X88147619Y-54419047D02*
X88147619Y-54990476D01*
X88147619Y-54704761D02*
X89147619Y-54704761D01*
X89004761Y-54800000D01*
X88909523Y-54895238D01*
X88861904Y-54990476D01*
X89147619Y-53514285D02*
X89147619Y-53990476D01*
X88671428Y-54038095D01*
X88719047Y-53990476D01*
X88766666Y-53895238D01*
X88766666Y-53657142D01*
X88719047Y-53561904D01*
X88671428Y-53514285D01*
X88576190Y-53466666D01*
X88338095Y-53466666D01*
X88242857Y-53514285D01*
X88195238Y-53561904D01*
X88147619Y-53657142D01*
X88147619Y-53895238D01*
X88195238Y-53990476D01*
X88242857Y-54038095D01*
X88433333Y-53085714D02*
X88433333Y-52609523D01*
X88147619Y-53180952D02*
X89147619Y-52847619D01*
X88147619Y-52514285D01*
X93347619Y-54490476D02*
X93347619Y-55061904D01*
X93347619Y-54776190D02*
X94347619Y-54776190D01*
X94204761Y-54871428D01*
X94109523Y-54966666D01*
X94061904Y-55061904D01*
X94347619Y-53585714D02*
X94347619Y-54061904D01*
X93871428Y-54109523D01*
X93919047Y-54061904D01*
X93966666Y-53966666D01*
X93966666Y-53728571D01*
X93919047Y-53633333D01*
X93871428Y-53585714D01*
X93776190Y-53538095D01*
X93538095Y-53538095D01*
X93442857Y-53585714D01*
X93395238Y-53633333D01*
X93347619Y-53728571D01*
X93347619Y-53966666D01*
X93395238Y-54061904D01*
X93442857Y-54109523D01*
X93871428Y-52776190D02*
X93823809Y-52633333D01*
X93776190Y-52585714D01*
X93680952Y-52538095D01*
X93538095Y-52538095D01*
X93442857Y-52585714D01*
X93395238Y-52633333D01*
X93347619Y-52728571D01*
X93347619Y-53109523D01*
X94347619Y-53109523D01*
X94347619Y-52776190D01*
X94300000Y-52680952D01*
X94252380Y-52633333D01*
X94157142Y-52585714D01*
X94061904Y-52585714D01*
X93966666Y-52633333D01*
X93919047Y-52680952D01*
X93871428Y-52776190D01*
X93871428Y-53109523D01*
X98547619Y-54490476D02*
X98547619Y-55061904D01*
X98547619Y-54776190D02*
X99547619Y-54776190D01*
X99404761Y-54871428D01*
X99309523Y-54966666D01*
X99261904Y-55061904D01*
X99547619Y-53585714D02*
X99547619Y-54061904D01*
X99071428Y-54109523D01*
X99119047Y-54061904D01*
X99166666Y-53966666D01*
X99166666Y-53728571D01*
X99119047Y-53633333D01*
X99071428Y-53585714D01*
X98976190Y-53538095D01*
X98738095Y-53538095D01*
X98642857Y-53585714D01*
X98595238Y-53633333D01*
X98547619Y-53728571D01*
X98547619Y-53966666D01*
X98595238Y-54061904D01*
X98642857Y-54109523D01*
X98642857Y-52538095D02*
X98595238Y-52585714D01*
X98547619Y-52728571D01*
X98547619Y-52823809D01*
X98595238Y-52966666D01*
X98690476Y-53061904D01*
X98785714Y-53109523D01*
X98976190Y-53157142D01*
X99119047Y-53157142D01*
X99309523Y-53109523D01*
X99404761Y-53061904D01*
X99500000Y-52966666D01*
X99547619Y-52823809D01*
X99547619Y-52728571D01*
X99500000Y-52585714D01*
X99452380Y-52538095D01*
X103747619Y-54419047D02*
X103747619Y-54990476D01*
X103747619Y-54704761D02*
X104747619Y-54704761D01*
X104604761Y-54800000D01*
X104509523Y-54895238D01*
X104461904Y-54990476D01*
X104747619Y-53561904D02*
X104747619Y-53752380D01*
X104700000Y-53847619D01*
X104652380Y-53895238D01*
X104509523Y-53990476D01*
X104319047Y-54038095D01*
X103938095Y-54038095D01*
X103842857Y-53990476D01*
X103795238Y-53942857D01*
X103747619Y-53847619D01*
X103747619Y-53657142D01*
X103795238Y-53561904D01*
X103842857Y-53514285D01*
X103938095Y-53466666D01*
X104176190Y-53466666D01*
X104271428Y-53514285D01*
X104319047Y-53561904D01*
X104366666Y-53657142D01*
X104366666Y-53847619D01*
X104319047Y-53942857D01*
X104271428Y-53990476D01*
X104176190Y-54038095D01*
X104033333Y-53085714D02*
X104033333Y-52609523D01*
X103747619Y-53180952D02*
X104747619Y-52847619D01*
X103747619Y-52514285D01*
X108947619Y-54490476D02*
X108947619Y-55061904D01*
X108947619Y-54776190D02*
X109947619Y-54776190D01*
X109804761Y-54871428D01*
X109709523Y-54966666D01*
X109661904Y-55061904D01*
X109947619Y-53633333D02*
X109947619Y-53823809D01*
X109900000Y-53919047D01*
X109852380Y-53966666D01*
X109709523Y-54061904D01*
X109519047Y-54109523D01*
X109138095Y-54109523D01*
X109042857Y-54061904D01*
X108995238Y-54014285D01*
X108947619Y-53919047D01*
X108947619Y-53728571D01*
X108995238Y-53633333D01*
X109042857Y-53585714D01*
X109138095Y-53538095D01*
X109376190Y-53538095D01*
X109471428Y-53585714D01*
X109519047Y-53633333D01*
X109566666Y-53728571D01*
X109566666Y-53919047D01*
X109519047Y-54014285D01*
X109471428Y-54061904D01*
X109376190Y-54109523D01*
X109471428Y-52776190D02*
X109423809Y-52633333D01*
X109376190Y-52585714D01*
X109280952Y-52538095D01*
X109138095Y-52538095D01*
X109042857Y-52585714D01*
X108995238Y-52633333D01*
X108947619Y-52728571D01*
X108947619Y-53109523D01*
X109947619Y-53109523D01*
X109947619Y-52776190D01*
X109900000Y-52680952D01*
X109852380Y-52633333D01*
X109757142Y-52585714D01*
X109661904Y-52585714D01*
X109566666Y-52633333D01*
X109519047Y-52680952D01*
X109471428Y-52776190D01*
X109471428Y-53109523D01*
X114147619Y-54490476D02*
X114147619Y-55061904D01*
X114147619Y-54776190D02*
X115147619Y-54776190D01*
X115004761Y-54871428D01*
X114909523Y-54966666D01*
X114861904Y-55061904D01*
X115147619Y-53633333D02*
X115147619Y-53823809D01*
X115100000Y-53919047D01*
X115052380Y-53966666D01*
X114909523Y-54061904D01*
X114719047Y-54109523D01*
X114338095Y-54109523D01*
X114242857Y-54061904D01*
X114195238Y-54014285D01*
X114147619Y-53919047D01*
X114147619Y-53728571D01*
X114195238Y-53633333D01*
X114242857Y-53585714D01*
X114338095Y-53538095D01*
X114576190Y-53538095D01*
X114671428Y-53585714D01*
X114719047Y-53633333D01*
X114766666Y-53728571D01*
X114766666Y-53919047D01*
X114719047Y-54014285D01*
X114671428Y-54061904D01*
X114576190Y-54109523D01*
X114242857Y-52538095D02*
X114195238Y-52585714D01*
X114147619Y-52728571D01*
X114147619Y-52823809D01*
X114195238Y-52966666D01*
X114290476Y-53061904D01*
X114385714Y-53109523D01*
X114576190Y-53157142D01*
X114719047Y-53157142D01*
X114909523Y-53109523D01*
X115004761Y-53061904D01*
X115100000Y-52966666D01*
X115147619Y-52823809D01*
X115147619Y-52728571D01*
X115100000Y-52585714D01*
X115052380Y-52538095D01*
X119347619Y-54419047D02*
X119347619Y-54990476D01*
X119347619Y-54704761D02*
X120347619Y-54704761D01*
X120204761Y-54800000D01*
X120109523Y-54895238D01*
X120061904Y-54990476D01*
X120347619Y-54085714D02*
X120347619Y-53419047D01*
X119347619Y-53847619D01*
X119633333Y-53085714D02*
X119633333Y-52609523D01*
X119347619Y-53180952D02*
X120347619Y-52847619D01*
X119347619Y-52514285D01*
X124547619Y-54490476D02*
X124547619Y-55061904D01*
X124547619Y-54776190D02*
X125547619Y-54776190D01*
X125404761Y-54871428D01*
X125309523Y-54966666D01*
X125261904Y-55061904D01*
X125547619Y-54157142D02*
X125547619Y-53490476D01*
X124547619Y-53919047D01*
X125071428Y-52776190D02*
X125023809Y-52633333D01*
X124976190Y-52585714D01*
X124880952Y-52538095D01*
X124738095Y-52538095D01*
X124642857Y-52585714D01*
X124595238Y-52633333D01*
X124547619Y-52728571D01*
X124547619Y-53109523D01*
X125547619Y-53109523D01*
X125547619Y-52776190D01*
X125500000Y-52680952D01*
X125452380Y-52633333D01*
X125357142Y-52585714D01*
X125261904Y-52585714D01*
X125166666Y-52633333D01*
X125119047Y-52680952D01*
X125071428Y-52776190D01*
X125071428Y-53109523D01*
X129747619Y-54490476D02*
X129747619Y-55061904D01*
X129747619Y-54776190D02*
X130747619Y-54776190D01*
X130604761Y-54871428D01*
X130509523Y-54966666D01*
X130461904Y-55061904D01*
X130747619Y-54157142D02*
X130747619Y-53490476D01*
X129747619Y-53919047D01*
X129842857Y-52538095D02*
X129795238Y-52585714D01*
X129747619Y-52728571D01*
X129747619Y-52823809D01*
X129795238Y-52966666D01*
X129890476Y-53061904D01*
X129985714Y-53109523D01*
X130176190Y-53157142D01*
X130319047Y-53157142D01*
X130509523Y-53109523D01*
X130604761Y-53061904D01*
X130700000Y-52966666D01*
X130747619Y-52823809D01*
X130747619Y-52728571D01*
X130700000Y-52585714D01*
X130652380Y-52538095D01*
X134947619Y-54419047D02*
X134947619Y-54990476D01*
X134947619Y-54704761D02*
X135947619Y-54704761D01*
X135804761Y-54800000D01*
X135709523Y-54895238D01*
X135661904Y-54990476D01*
X135519047Y-53847619D02*
X135566666Y-53942857D01*
X135614285Y-53990476D01*
X135709523Y-54038095D01*
X135757142Y-54038095D01*
X135852380Y-53990476D01*
X135900000Y-53942857D01*
X135947619Y-53847619D01*
X135947619Y-53657142D01*
X135900000Y-53561904D01*
X135852380Y-53514285D01*
X135757142Y-53466666D01*
X135709523Y-53466666D01*
X135614285Y-53514285D01*
X135566666Y-53561904D01*
X135519047Y-53657142D01*
X135519047Y-53847619D01*
X135471428Y-53942857D01*
X135423809Y-53990476D01*
X135328571Y-54038095D01*
X135138095Y-54038095D01*
X135042857Y-53990476D01*
X134995238Y-53942857D01*
X134947619Y-53847619D01*
X134947619Y-53657142D01*
X134995238Y-53561904D01*
X135042857Y-53514285D01*
X135138095Y-53466666D01*
X135328571Y-53466666D01*
X135423809Y-53514285D01*
X135471428Y-53561904D01*
X135519047Y-53657142D01*
X135233333Y-53085714D02*
X135233333Y-52609523D01*
X134947619Y-53180952D02*
X135947619Y-52847619D01*
X134947619Y-52514285D01*
X140147619Y-54490476D02*
X140147619Y-55061904D01*
X140147619Y-54776190D02*
X141147619Y-54776190D01*
X141004761Y-54871428D01*
X140909523Y-54966666D01*
X140861904Y-55061904D01*
X140719047Y-53919047D02*
X140766666Y-54014285D01*
X140814285Y-54061904D01*
X140909523Y-54109523D01*
X140957142Y-54109523D01*
X141052380Y-54061904D01*
X141100000Y-54014285D01*
X141147619Y-53919047D01*
X141147619Y-53728571D01*
X141100000Y-53633333D01*
X141052380Y-53585714D01*
X140957142Y-53538095D01*
X140909523Y-53538095D01*
X140814285Y-53585714D01*
X140766666Y-53633333D01*
X140719047Y-53728571D01*
X140719047Y-53919047D01*
X140671428Y-54014285D01*
X140623809Y-54061904D01*
X140528571Y-54109523D01*
X140338095Y-54109523D01*
X140242857Y-54061904D01*
X140195238Y-54014285D01*
X140147619Y-53919047D01*
X140147619Y-53728571D01*
X140195238Y-53633333D01*
X140242857Y-53585714D01*
X140338095Y-53538095D01*
X140528571Y-53538095D01*
X140623809Y-53585714D01*
X140671428Y-53633333D01*
X140719047Y-53728571D01*
X140671428Y-52776190D02*
X140623809Y-52633333D01*
X140576190Y-52585714D01*
X140480952Y-52538095D01*
X140338095Y-52538095D01*
X140242857Y-52585714D01*
X140195238Y-52633333D01*
X140147619Y-52728571D01*
X140147619Y-53109523D01*
X141147619Y-53109523D01*
X141147619Y-52776190D01*
X141100000Y-52680952D01*
X141052380Y-52633333D01*
X140957142Y-52585714D01*
X140861904Y-52585714D01*
X140766666Y-52633333D01*
X140719047Y-52680952D01*
X140671428Y-52776190D01*
X140671428Y-53109523D01*
X145347619Y-54490476D02*
X145347619Y-55061904D01*
X145347619Y-54776190D02*
X146347619Y-54776190D01*
X146204761Y-54871428D01*
X146109523Y-54966666D01*
X146061904Y-55061904D01*
X145919047Y-53919047D02*
X145966666Y-54014285D01*
X146014285Y-54061904D01*
X146109523Y-54109523D01*
X146157142Y-54109523D01*
X146252380Y-54061904D01*
X146300000Y-54014285D01*
X146347619Y-53919047D01*
X146347619Y-53728571D01*
X146300000Y-53633333D01*
X146252380Y-53585714D01*
X146157142Y-53538095D01*
X146109523Y-53538095D01*
X146014285Y-53585714D01*
X145966666Y-53633333D01*
X145919047Y-53728571D01*
X145919047Y-53919047D01*
X145871428Y-54014285D01*
X145823809Y-54061904D01*
X145728571Y-54109523D01*
X145538095Y-54109523D01*
X145442857Y-54061904D01*
X145395238Y-54014285D01*
X145347619Y-53919047D01*
X145347619Y-53728571D01*
X145395238Y-53633333D01*
X145442857Y-53585714D01*
X145538095Y-53538095D01*
X145728571Y-53538095D01*
X145823809Y-53585714D01*
X145871428Y-53633333D01*
X145919047Y-53728571D01*
X145442857Y-52538095D02*
X145395238Y-52585714D01*
X145347619Y-52728571D01*
X145347619Y-52823809D01*
X145395238Y-52966666D01*
X145490476Y-53061904D01*
X145585714Y-53109523D01*
X145776190Y-53157142D01*
X145919047Y-53157142D01*
X146109523Y-53109523D01*
X146204761Y-53061904D01*
X146300000Y-52966666D01*
X146347619Y-52823809D01*
X146347619Y-52728571D01*
X146300000Y-52585714D01*
X146252380Y-52538095D01*
X150547619Y-54519047D02*
X150547619Y-55090476D01*
X150547619Y-54804761D02*
X151547619Y-54804761D01*
X151404761Y-54900000D01*
X151309523Y-54995238D01*
X151261904Y-55090476D01*
X150547619Y-54042857D02*
X150547619Y-53852380D01*
X150595238Y-53757142D01*
X150642857Y-53709523D01*
X150785714Y-53614285D01*
X150976190Y-53566666D01*
X151357142Y-53566666D01*
X151452380Y-53614285D01*
X151500000Y-53661904D01*
X151547619Y-53757142D01*
X151547619Y-53947619D01*
X151500000Y-54042857D01*
X151452380Y-54090476D01*
X151357142Y-54138095D01*
X151119047Y-54138095D01*
X151023809Y-54090476D01*
X150976190Y-54042857D01*
X150928571Y-53947619D01*
X150928571Y-53757142D01*
X150976190Y-53661904D01*
X151023809Y-53614285D01*
X151119047Y-53566666D01*
X150833333Y-53185714D02*
X150833333Y-52709523D01*
X150547619Y-53280952D02*
X151547619Y-52947619D01*
X150547619Y-52614285D01*
X155747619Y-54490476D02*
X155747619Y-55061904D01*
X155747619Y-54776190D02*
X156747619Y-54776190D01*
X156604761Y-54871428D01*
X156509523Y-54966666D01*
X156461904Y-55061904D01*
X155747619Y-54014285D02*
X155747619Y-53823809D01*
X155795238Y-53728571D01*
X155842857Y-53680952D01*
X155985714Y-53585714D01*
X156176190Y-53538095D01*
X156557142Y-53538095D01*
X156652380Y-53585714D01*
X156700000Y-53633333D01*
X156747619Y-53728571D01*
X156747619Y-53919047D01*
X156700000Y-54014285D01*
X156652380Y-54061904D01*
X156557142Y-54109523D01*
X156319047Y-54109523D01*
X156223809Y-54061904D01*
X156176190Y-54014285D01*
X156128571Y-53919047D01*
X156128571Y-53728571D01*
X156176190Y-53633333D01*
X156223809Y-53585714D01*
X156319047Y-53538095D01*
X156271428Y-52776190D02*
X156223809Y-52633333D01*
X156176190Y-52585714D01*
X156080952Y-52538095D01*
X155938095Y-52538095D01*
X155842857Y-52585714D01*
X155795238Y-52633333D01*
X155747619Y-52728571D01*
X155747619Y-53109523D01*
X156747619Y-53109523D01*
X156747619Y-52776190D01*
X156700000Y-52680952D01*
X156652380Y-52633333D01*
X156557142Y-52585714D01*
X156461904Y-52585714D01*
X156366666Y-52633333D01*
X156319047Y-52680952D01*
X156271428Y-52776190D01*
X156271428Y-53109523D01*
X160947619Y-54490476D02*
X160947619Y-55061904D01*
X160947619Y-54776190D02*
X161947619Y-54776190D01*
X161804761Y-54871428D01*
X161709523Y-54966666D01*
X161661904Y-55061904D01*
X160947619Y-54014285D02*
X160947619Y-53823809D01*
X160995238Y-53728571D01*
X161042857Y-53680952D01*
X161185714Y-53585714D01*
X161376190Y-53538095D01*
X161757142Y-53538095D01*
X161852380Y-53585714D01*
X161900000Y-53633333D01*
X161947619Y-53728571D01*
X161947619Y-53919047D01*
X161900000Y-54014285D01*
X161852380Y-54061904D01*
X161757142Y-54109523D01*
X161519047Y-54109523D01*
X161423809Y-54061904D01*
X161376190Y-54014285D01*
X161328571Y-53919047D01*
X161328571Y-53728571D01*
X161376190Y-53633333D01*
X161423809Y-53585714D01*
X161519047Y-53538095D01*
X161042857Y-52538095D02*
X160995238Y-52585714D01*
X160947619Y-52728571D01*
X160947619Y-52823809D01*
X160995238Y-52966666D01*
X161090476Y-53061904D01*
X161185714Y-53109523D01*
X161376190Y-53157142D01*
X161519047Y-53157142D01*
X161709523Y-53109523D01*
X161804761Y-53061904D01*
X161900000Y-52966666D01*
X161947619Y-52823809D01*
X161947619Y-52728571D01*
X161900000Y-52585714D01*
X161852380Y-52538095D01*
X167052380Y-54990476D02*
X167100000Y-54942857D01*
X167147619Y-54847619D01*
X167147619Y-54609523D01*
X167100000Y-54514285D01*
X167052380Y-54466666D01*
X166957142Y-54419047D01*
X166861904Y-54419047D01*
X166719047Y-54466666D01*
X166147619Y-55038095D01*
X166147619Y-54419047D01*
X167147619Y-53800000D02*
X167147619Y-53704761D01*
X167100000Y-53609523D01*
X167052380Y-53561904D01*
X166957142Y-53514285D01*
X166766666Y-53466666D01*
X166528571Y-53466666D01*
X166338095Y-53514285D01*
X166242857Y-53561904D01*
X166195238Y-53609523D01*
X166147619Y-53704761D01*
X166147619Y-53800000D01*
X166195238Y-53895238D01*
X166242857Y-53942857D01*
X166338095Y-53990476D01*
X166528571Y-54038095D01*
X166766666Y-54038095D01*
X166957142Y-53990476D01*
X167052380Y-53942857D01*
X167100000Y-53895238D01*
X167147619Y-53800000D01*
X166433333Y-53085714D02*
X166433333Y-52609523D01*
X166147619Y-53180952D02*
X167147619Y-52847619D01*
X166147619Y-52514285D01*
X172252380Y-55061904D02*
X172300000Y-55014285D01*
X172347619Y-54919047D01*
X172347619Y-54680952D01*
X172300000Y-54585714D01*
X172252380Y-54538095D01*
X172157142Y-54490476D01*
X172061904Y-54490476D01*
X171919047Y-54538095D01*
X171347619Y-55109523D01*
X171347619Y-54490476D01*
X172347619Y-53871428D02*
X172347619Y-53776190D01*
X172300000Y-53680952D01*
X172252380Y-53633333D01*
X172157142Y-53585714D01*
X171966666Y-53538095D01*
X171728571Y-53538095D01*
X171538095Y-53585714D01*
X171442857Y-53633333D01*
X171395238Y-53680952D01*
X171347619Y-53776190D01*
X171347619Y-53871428D01*
X171395238Y-53966666D01*
X171442857Y-54014285D01*
X171538095Y-54061904D01*
X171728571Y-54109523D01*
X171966666Y-54109523D01*
X172157142Y-54061904D01*
X172252380Y-54014285D01*
X172300000Y-53966666D01*
X172347619Y-53871428D01*
X171871428Y-52776190D02*
X171823809Y-52633333D01*
X171776190Y-52585714D01*
X171680952Y-52538095D01*
X171538095Y-52538095D01*
X171442857Y-52585714D01*
X171395238Y-52633333D01*
X171347619Y-52728571D01*
X171347619Y-53109523D01*
X172347619Y-53109523D01*
X172347619Y-52776190D01*
X172300000Y-52680952D01*
X172252380Y-52633333D01*
X172157142Y-52585714D01*
X172061904Y-52585714D01*
X171966666Y-52633333D01*
X171919047Y-52680952D01*
X171871428Y-52776190D01*
X171871428Y-53109523D01*
X177452380Y-55061904D02*
X177500000Y-55014285D01*
X177547619Y-54919047D01*
X177547619Y-54680952D01*
X177500000Y-54585714D01*
X177452380Y-54538095D01*
X177357142Y-54490476D01*
X177261904Y-54490476D01*
X177119047Y-54538095D01*
X176547619Y-55109523D01*
X176547619Y-54490476D01*
X177547619Y-53871428D02*
X177547619Y-53776190D01*
X177500000Y-53680952D01*
X177452380Y-53633333D01*
X177357142Y-53585714D01*
X177166666Y-53538095D01*
X176928571Y-53538095D01*
X176738095Y-53585714D01*
X176642857Y-53633333D01*
X176595238Y-53680952D01*
X176547619Y-53776190D01*
X176547619Y-53871428D01*
X176595238Y-53966666D01*
X176642857Y-54014285D01*
X176738095Y-54061904D01*
X176928571Y-54109523D01*
X177166666Y-54109523D01*
X177357142Y-54061904D01*
X177452380Y-54014285D01*
X177500000Y-53966666D01*
X177547619Y-53871428D01*
X176642857Y-52538095D02*
X176595238Y-52585714D01*
X176547619Y-52728571D01*
X176547619Y-52823809D01*
X176595238Y-52966666D01*
X176690476Y-53061904D01*
X176785714Y-53109523D01*
X176976190Y-53157142D01*
X177119047Y-53157142D01*
X177309523Y-53109523D01*
X177404761Y-53061904D01*
X177500000Y-52966666D01*
X177547619Y-52823809D01*
X177547619Y-52728571D01*
X177500000Y-52585714D01*
X177452380Y-52538095D01*
X181842857Y-53990476D02*
X181795238Y-54038095D01*
X181747619Y-54180952D01*
X181747619Y-54276190D01*
X181795238Y-54419047D01*
X181890476Y-54514285D01*
X181985714Y-54561904D01*
X182176190Y-54609523D01*
X182319047Y-54609523D01*
X182509523Y-54561904D01*
X182604761Y-54514285D01*
X182700000Y-54419047D01*
X182747619Y-54276190D01*
X182747619Y-54180952D01*
X182700000Y-54038095D01*
X182652380Y-53990476D01*
X181842857Y-52990476D02*
X181795238Y-53038095D01*
X181747619Y-53180952D01*
X181747619Y-53276190D01*
X181795238Y-53419047D01*
X181890476Y-53514285D01*
X181985714Y-53561904D01*
X182176190Y-53609523D01*
X182319047Y-53609523D01*
X182509523Y-53561904D01*
X182604761Y-53514285D01*
X182700000Y-53419047D01*
X182747619Y-53276190D01*
X182747619Y-53180952D01*
X182700000Y-53038095D01*
X182652380Y-52990476D01*
X187571428Y-54228571D02*
X187523809Y-54085714D01*
X187476190Y-54038095D01*
X187380952Y-53990476D01*
X187238095Y-53990476D01*
X187142857Y-54038095D01*
X187095238Y-54085714D01*
X187047619Y-54180952D01*
X187047619Y-54561904D01*
X188047619Y-54561904D01*
X188047619Y-54228571D01*
X188000000Y-54133333D01*
X187952380Y-54085714D01*
X187857142Y-54038095D01*
X187761904Y-54038095D01*
X187666666Y-54085714D01*
X187619047Y-54133333D01*
X187571428Y-54228571D01*
X187571428Y-54561904D01*
X187571428Y-53228571D02*
X187523809Y-53085714D01*
X187476190Y-53038095D01*
X187380952Y-52990476D01*
X187238095Y-52990476D01*
X187142857Y-53038095D01*
X187095238Y-53085714D01*
X187047619Y-53180952D01*
X187047619Y-53561904D01*
X188047619Y-53561904D01*
X188047619Y-53228571D01*
X188000000Y-53133333D01*
X187952380Y-53085714D01*
X187857142Y-53038095D01*
X187761904Y-53038095D01*
X187666666Y-53085714D01*
X187619047Y-53133333D01*
X187571428Y-53228571D01*
X187571428Y-53561904D01*
X192433333Y-54466666D02*
X192433333Y-53990476D01*
X192147619Y-54561904D02*
X193147619Y-54228571D01*
X192147619Y-53895238D01*
X192433333Y-53609523D02*
X192433333Y-53133333D01*
X192147619Y-53704761D02*
X193147619Y-53371428D01*
X192147619Y-53038095D01*
X215900000Y-54229000D02*
X213868000Y-54229000D01*
X215900000Y-52070000D02*
X215900000Y-54229000D01*
X213868000Y-52070000D02*
X215900000Y-52070000D01*
X208534000Y-52070000D02*
X210566000Y-52070000D01*
X208534000Y-54229000D02*
X208534000Y-52070000D01*
X210566000Y-54229000D02*
X208534000Y-54229000D01*
X215900000Y-56769000D02*
X213868000Y-56769000D01*
X215900000Y-54610000D02*
X215900000Y-56769000D01*
X213868000Y-54610000D02*
X215900000Y-54610000D01*
X208534000Y-54610000D02*
X210566000Y-54610000D01*
X208534000Y-56769000D02*
X208534000Y-54610000D01*
X210566000Y-56769000D02*
X208534000Y-56769000D01*
X215900000Y-57150000D02*
X213868000Y-57150000D01*
X215900000Y-59309000D02*
X215900000Y-57150000D01*
X213868000Y-59309000D02*
X215900000Y-59309000D01*
X208534000Y-57150000D02*
X210566000Y-57150000D01*
X208534000Y-59309000D02*
X208534000Y-57150000D01*
X210566000Y-59309000D02*
X208534000Y-59309000D01*
X215900000Y-61849000D02*
X213868000Y-61849000D01*
X215900000Y-59690000D02*
X215900000Y-61849000D01*
X213868000Y-59690000D02*
X215900000Y-59690000D01*
X208534000Y-59690000D02*
X210566000Y-59690000D01*
X208534000Y-61849000D02*
X208534000Y-59690000D01*
X210566000Y-61849000D02*
X208534000Y-61849000D01*
X215900000Y-64389000D02*
X213868000Y-64389000D01*
X215900000Y-62230000D02*
X215900000Y-64389000D01*
X213868000Y-62230000D02*
X215900000Y-62230000D01*
X208534000Y-62230000D02*
X210566000Y-62230000D01*
X208534000Y-64389000D02*
X208534000Y-62230000D01*
X210566000Y-64389000D02*
X208534000Y-64389000D01*
X215900000Y-67056000D02*
X213868000Y-67056000D01*
X215900000Y-64770000D02*
X215900000Y-67056000D01*
X213868000Y-64770000D02*
X215900000Y-64770000D01*
X208534000Y-64770000D02*
X210566000Y-64770000D01*
X208534000Y-67056000D02*
X210566000Y-67056000D01*
X208534000Y-64770000D02*
X208534000Y-67056000D01*
X212074142Y-65841571D02*
X212407476Y-65841571D01*
X212407476Y-66365380D02*
X212407476Y-65365380D01*
X211931285Y-65365380D01*
X212431285Y-63301571D02*
X212097952Y-63301571D01*
X211955095Y-63825380D02*
X212431285Y-63825380D01*
X212431285Y-62825380D01*
X211955095Y-62825380D01*
X212478904Y-61285380D02*
X212478904Y-60285380D01*
X212240809Y-60285380D01*
X212097952Y-60333000D01*
X212002714Y-60428238D01*
X211955095Y-60523476D01*
X211907476Y-60713952D01*
X211907476Y-60856809D01*
X211955095Y-61047285D01*
X212002714Y-61142523D01*
X212097952Y-61237761D01*
X212240809Y-61285380D01*
X212478904Y-61285380D01*
X211907476Y-58650142D02*
X211955095Y-58697761D01*
X212097952Y-58745380D01*
X212193190Y-58745380D01*
X212336047Y-58697761D01*
X212431285Y-58602523D01*
X212478904Y-58507285D01*
X212526523Y-58316809D01*
X212526523Y-58173952D01*
X212478904Y-57983476D01*
X212431285Y-57888238D01*
X212336047Y-57793000D01*
X212193190Y-57745380D01*
X212097952Y-57745380D01*
X211955095Y-57793000D01*
X211907476Y-57840619D01*
X212145571Y-55681571D02*
X212002714Y-55729190D01*
X211955095Y-55776809D01*
X211907476Y-55872047D01*
X211907476Y-56014904D01*
X211955095Y-56110142D01*
X212002714Y-56157761D01*
X212097952Y-56205380D01*
X212478904Y-56205380D01*
X212478904Y-55205380D01*
X212145571Y-55205380D01*
X212050333Y-55253000D01*
X212002714Y-55300619D01*
X211955095Y-55395857D01*
X211955095Y-55491095D01*
X212002714Y-55586333D01*
X212050333Y-55633952D01*
X212145571Y-55681571D01*
X212478904Y-55681571D01*
X212455095Y-53379666D02*
X211978904Y-53379666D01*
X212550333Y-53665380D02*
X212217000Y-52665380D01*
X211883666Y-53665380D01*
D11*
X101600000Y-44200000D02*
X96400000Y-44200000D01*
X101600000Y-63400000D02*
X101600000Y-44200000D01*
X96400000Y-63400000D02*
X101600000Y-63400000D01*
X96400000Y-44200000D02*
X96400000Y-63400000D01*
X75600000Y-44200000D02*
X70400000Y-44200000D01*
X75600000Y-63400000D02*
X75600000Y-44200000D01*
X70400000Y-63400000D02*
X75600000Y-63400000D01*
X70400000Y-44200000D02*
X70400000Y-63400000D01*
X179600000Y-44200000D02*
X174400000Y-44200000D01*
X179600000Y-63400000D02*
X179600000Y-44200000D01*
X174400000Y-63400000D02*
X179600000Y-63400000D01*
X174400000Y-44200000D02*
X174400000Y-63400000D01*
X164000000Y-44200000D02*
X158800000Y-44200000D01*
X164000000Y-63400000D02*
X164000000Y-44200000D01*
X158800000Y-63400000D02*
X164000000Y-63400000D01*
X158800000Y-44200000D02*
X158800000Y-63400000D01*
X148400000Y-44200000D02*
X143200000Y-44200000D01*
X148400000Y-63400000D02*
X148400000Y-44200000D01*
X143200000Y-63400000D02*
X148400000Y-63400000D01*
X143200000Y-44200000D02*
X143200000Y-63400000D01*
X132800000Y-44200000D02*
X127600000Y-44200000D01*
X132800000Y-63400000D02*
X132800000Y-44200000D01*
X127600000Y-63400000D02*
X132800000Y-63400000D01*
X127600000Y-44200000D02*
X127600000Y-63400000D01*
X117200000Y-44200000D02*
X112000000Y-44200000D01*
X117200000Y-63400000D02*
X117200000Y-44200000D01*
X112000000Y-63400000D02*
X117200000Y-63400000D01*
X112000000Y-44200000D02*
X112000000Y-63400000D01*
X86000000Y-44200000D02*
X80800000Y-44200000D01*
X86000000Y-63400000D02*
X86000000Y-44200000D01*
X80800000Y-63400000D02*
X86000000Y-63400000D01*
X80800000Y-44200000D02*
X80800000Y-63400000D01*
X179600000Y-65800000D02*
X174400000Y-65800000D01*
X179600000Y-85000000D02*
X179600000Y-65800000D01*
X174400000Y-85000000D02*
X179600000Y-85000000D01*
X174400000Y-65800000D02*
X174400000Y-85000000D01*
X164000000Y-65800000D02*
X158800000Y-65800000D01*
X164000000Y-85000000D02*
X164000000Y-65800000D01*
X158800000Y-85000000D02*
X164000000Y-85000000D01*
X158800000Y-65800000D02*
X158800000Y-85000000D01*
X148400000Y-65800000D02*
X143200000Y-65800000D01*
X148400000Y-85000000D02*
X148400000Y-65800000D01*
X143200000Y-85000000D02*
X148400000Y-85000000D01*
X143200000Y-65800000D02*
X143200000Y-85000000D01*
X132800000Y-65800000D02*
X127600000Y-65800000D01*
X132800000Y-85000000D02*
X132800000Y-65800000D01*
X127600000Y-85000000D02*
X132800000Y-85000000D01*
X127600000Y-65800000D02*
X127600000Y-85000000D01*
X117200000Y-65800000D02*
X112000000Y-65800000D01*
X117200000Y-85000000D02*
X117200000Y-65800000D01*
X112000000Y-85000000D02*
X117200000Y-85000000D01*
X112000000Y-65800000D02*
X112000000Y-85000000D01*
X86000000Y-65800000D02*
X80800000Y-65800000D01*
X86000000Y-85000000D02*
X86000000Y-65800000D01*
X80800000Y-85000000D02*
X86000000Y-85000000D01*
X80800000Y-65800000D02*
X80800000Y-85000000D01*
X195200000Y-65800000D02*
X190000000Y-65800000D01*
X195200000Y-85000000D02*
X195200000Y-65800000D01*
X190000000Y-85000000D02*
X195200000Y-85000000D01*
X190000000Y-65800000D02*
X190000000Y-85000000D01*
X190000000Y-65800000D02*
X184800000Y-65800000D01*
X190000000Y-85000000D02*
X190000000Y-65800000D01*
X184800000Y-85000000D02*
X190000000Y-85000000D01*
X184800000Y-65800000D02*
X184800000Y-85000000D01*
X184800000Y-65800000D02*
X179600000Y-65800000D01*
X184800000Y-85000000D02*
X184800000Y-65800000D01*
X179600000Y-85000000D02*
X184800000Y-85000000D01*
X179600000Y-65800000D02*
X179600000Y-85000000D01*
X184800000Y-44200000D02*
X179600000Y-44200000D01*
X184800000Y-63400000D02*
X184800000Y-44200000D01*
X179600000Y-63400000D02*
X184800000Y-63400000D01*
X179600000Y-44200000D02*
X179600000Y-63400000D01*
X190000000Y-44200000D02*
X184800000Y-44200000D01*
X190000000Y-63400000D02*
X190000000Y-44200000D01*
X184800000Y-63400000D02*
X190000000Y-63400000D01*
X184800000Y-44200000D02*
X184800000Y-63400000D01*
X195200000Y-44200000D02*
X190000000Y-44200000D01*
X195200000Y-63400000D02*
X195200000Y-44200000D01*
X190000000Y-63400000D02*
X195200000Y-63400000D01*
X190000000Y-44200000D02*
X190000000Y-63400000D01*
X101600000Y-65800000D02*
X96400000Y-65800000D01*
X101600000Y-85000000D02*
X101600000Y-65800000D01*
X96400000Y-85000000D02*
X101600000Y-85000000D01*
X96400000Y-65800000D02*
X96400000Y-85000000D01*
X164000000Y-87400000D02*
X158800000Y-87400000D01*
X164000000Y-106600000D02*
X164000000Y-87400000D01*
X158800000Y-106600000D02*
X164000000Y-106600000D01*
X158800000Y-87400000D02*
X158800000Y-106600000D01*
X148400000Y-87400000D02*
X143200000Y-87400000D01*
X148400000Y-106600000D02*
X148400000Y-87400000D01*
X143200000Y-106600000D02*
X148400000Y-106600000D01*
X143200000Y-87400000D02*
X143200000Y-106600000D01*
X132800000Y-87400000D02*
X127600000Y-87400000D01*
X132800000Y-106600000D02*
X132800000Y-87400000D01*
X127600000Y-106600000D02*
X132800000Y-106600000D01*
X127600000Y-87400000D02*
X127600000Y-106600000D01*
X117200000Y-87400000D02*
X112000000Y-87400000D01*
X117200000Y-106600000D02*
X117200000Y-87400000D01*
X112000000Y-106600000D02*
X117200000Y-106600000D01*
X112000000Y-87400000D02*
X112000000Y-106600000D01*
X101600000Y-87400000D02*
X96400000Y-87400000D01*
X101600000Y-106600000D02*
X101600000Y-87400000D01*
X96400000Y-106600000D02*
X101600000Y-106600000D01*
X96400000Y-87400000D02*
X96400000Y-106600000D01*
X86000000Y-87400000D02*
X80800000Y-87400000D01*
X86000000Y-106600000D02*
X86000000Y-87400000D01*
X80800000Y-106600000D02*
X86000000Y-106600000D01*
X80800000Y-87400000D02*
X80800000Y-106600000D01*
X174400000Y-44200000D02*
X169200000Y-44200000D01*
X174400000Y-63400000D02*
X174400000Y-44200000D01*
X169200000Y-63400000D02*
X174400000Y-63400000D01*
X169200000Y-44200000D02*
X169200000Y-63400000D01*
X158800000Y-44200000D02*
X153600000Y-44200000D01*
X158800000Y-63400000D02*
X158800000Y-44200000D01*
X153600000Y-63400000D02*
X158800000Y-63400000D01*
X153600000Y-44200000D02*
X153600000Y-63400000D01*
X143200000Y-44200000D02*
X138000000Y-44200000D01*
X143200000Y-63400000D02*
X143200000Y-44200000D01*
X138000000Y-63400000D02*
X143200000Y-63400000D01*
X138000000Y-44200000D02*
X138000000Y-63400000D01*
X127600000Y-44200000D02*
X122400000Y-44200000D01*
X127600000Y-63400000D02*
X127600000Y-44200000D01*
X122400000Y-63400000D02*
X127600000Y-63400000D01*
X122400000Y-44200000D02*
X122400000Y-63400000D01*
X112000000Y-44200000D02*
X106800000Y-44200000D01*
X112000000Y-63400000D02*
X112000000Y-44200000D01*
X106800000Y-63400000D02*
X112000000Y-63400000D01*
X106800000Y-44200000D02*
X106800000Y-63400000D01*
X96400000Y-44200000D02*
X91200000Y-44200000D01*
X96400000Y-63400000D02*
X96400000Y-44200000D01*
X91200000Y-63400000D02*
X96400000Y-63400000D01*
X91200000Y-44200000D02*
X91200000Y-63400000D01*
X80800000Y-44200000D02*
X75600000Y-44200000D01*
X80800000Y-63400000D02*
X80800000Y-44200000D01*
X75600000Y-63400000D02*
X80800000Y-63400000D01*
X75600000Y-44200000D02*
X75600000Y-63400000D01*
X174400000Y-65800000D02*
X169200000Y-65800000D01*
X174400000Y-85000000D02*
X174400000Y-65800000D01*
X169200000Y-85000000D02*
X174400000Y-85000000D01*
X169200000Y-65800000D02*
X169200000Y-85000000D01*
X158800000Y-65800000D02*
X153600000Y-65800000D01*
X158800000Y-85000000D02*
X158800000Y-65800000D01*
X153600000Y-85000000D02*
X158800000Y-85000000D01*
X153600000Y-65800000D02*
X153600000Y-85000000D01*
X143200000Y-65800000D02*
X138000000Y-65800000D01*
X143200000Y-85000000D02*
X143200000Y-65800000D01*
X138000000Y-85000000D02*
X143200000Y-85000000D01*
X138000000Y-65800000D02*
X138000000Y-85000000D01*
X127600000Y-65800000D02*
X122400000Y-65800000D01*
X127600000Y-85000000D02*
X127600000Y-65800000D01*
X122400000Y-85000000D02*
X127600000Y-85000000D01*
X122400000Y-65800000D02*
X122400000Y-85000000D01*
X112000000Y-65800000D02*
X106800000Y-65800000D01*
X112000000Y-85000000D02*
X112000000Y-65800000D01*
X106800000Y-85000000D02*
X112000000Y-85000000D01*
X106800000Y-65800000D02*
X106800000Y-85000000D01*
X96400000Y-65800000D02*
X91200000Y-65800000D01*
X96400000Y-85000000D02*
X96400000Y-65800000D01*
X91200000Y-85000000D02*
X96400000Y-85000000D01*
X91200000Y-65800000D02*
X91200000Y-85000000D01*
X80800000Y-65800000D02*
X75600000Y-65800000D01*
X80800000Y-85000000D02*
X80800000Y-65800000D01*
X75600000Y-85000000D02*
X80800000Y-85000000D01*
X75600000Y-65800000D02*
X75600000Y-85000000D01*
X158800000Y-87400000D02*
X153600000Y-87400000D01*
X158800000Y-106600000D02*
X158800000Y-87400000D01*
X153600000Y-106600000D02*
X158800000Y-106600000D01*
X153600000Y-87400000D02*
X153600000Y-106600000D01*
X143200000Y-87400000D02*
X138000000Y-87400000D01*
X143200000Y-106600000D02*
X143200000Y-87400000D01*
X138000000Y-106600000D02*
X143200000Y-106600000D01*
X138000000Y-87400000D02*
X138000000Y-106600000D01*
X127600000Y-87400000D02*
X122400000Y-87400000D01*
X127600000Y-106600000D02*
X127600000Y-87400000D01*
X122400000Y-106600000D02*
X127600000Y-106600000D01*
X122400000Y-87400000D02*
X122400000Y-106600000D01*
X112000000Y-87400000D02*
X106800000Y-87400000D01*
X112000000Y-106600000D02*
X112000000Y-87400000D01*
X106800000Y-106600000D02*
X112000000Y-106600000D01*
X106800000Y-87400000D02*
X106800000Y-106600000D01*
X96400000Y-87400000D02*
X91200000Y-87400000D01*
X96400000Y-106600000D02*
X96400000Y-87400000D01*
X91200000Y-106600000D02*
X96400000Y-106600000D01*
X91200000Y-87400000D02*
X91200000Y-106600000D01*
X80800000Y-87400000D02*
X75600000Y-87400000D01*
X80800000Y-106600000D02*
X80800000Y-87400000D01*
X75600000Y-106600000D02*
X80800000Y-106600000D01*
X75600000Y-87400000D02*
X75600000Y-106600000D01*
X169200000Y-44200000D02*
X164000000Y-44200000D01*
X169200000Y-63400000D02*
X169200000Y-44200000D01*
X164000000Y-63400000D02*
X169200000Y-63400000D01*
X164000000Y-44200000D02*
X164000000Y-63400000D01*
X153600000Y-44200000D02*
X148400000Y-44200000D01*
X153600000Y-63400000D02*
X153600000Y-44200000D01*
X148400000Y-63400000D02*
X153600000Y-63400000D01*
X148400000Y-44200000D02*
X148400000Y-63400000D01*
X138000000Y-44200000D02*
X132800000Y-44200000D01*
X138000000Y-63400000D02*
X138000000Y-44200000D01*
X132800000Y-63400000D02*
X138000000Y-63400000D01*
X132800000Y-44200000D02*
X132800000Y-63400000D01*
X122400000Y-44200000D02*
X117200000Y-44200000D01*
X122400000Y-63400000D02*
X122400000Y-44200000D01*
X117200000Y-63400000D02*
X122400000Y-63400000D01*
X117200000Y-44200000D02*
X117200000Y-63400000D01*
X106800000Y-44200000D02*
X101600000Y-44200000D01*
X106800000Y-63400000D02*
X106800000Y-44200000D01*
X101600000Y-63400000D02*
X106800000Y-63400000D01*
X101600000Y-44200000D02*
X101600000Y-63400000D01*
X91200000Y-44200000D02*
X86000000Y-44200000D01*
X91200000Y-63400000D02*
X91200000Y-44200000D01*
X86000000Y-63400000D02*
X91200000Y-63400000D01*
X86000000Y-44200000D02*
X86000000Y-63400000D01*
X169200000Y-65800000D02*
X164000000Y-65800000D01*
X169200000Y-85000000D02*
X169200000Y-65800000D01*
X164000000Y-85000000D02*
X169200000Y-85000000D01*
X164000000Y-65800000D02*
X164000000Y-85000000D01*
X153600000Y-65800000D02*
X148400000Y-65800000D01*
X153600000Y-85000000D02*
X153600000Y-65800000D01*
X148400000Y-85000000D02*
X153600000Y-85000000D01*
X148400000Y-65800000D02*
X148400000Y-85000000D01*
X138000000Y-65800000D02*
X132800000Y-65800000D01*
X138000000Y-85000000D02*
X138000000Y-65800000D01*
X132800000Y-85000000D02*
X138000000Y-85000000D01*
X132800000Y-65800000D02*
X132800000Y-85000000D01*
X122400000Y-65800000D02*
X117200000Y-65800000D01*
X122400000Y-85000000D02*
X122400000Y-65800000D01*
X117200000Y-85000000D02*
X122400000Y-85000000D01*
X117200000Y-65800000D02*
X117200000Y-85000000D01*
X106800000Y-65800000D02*
X101600000Y-65800000D01*
X106800000Y-85000000D02*
X106800000Y-65800000D01*
X101600000Y-85000000D02*
X106800000Y-85000000D01*
X101600000Y-65800000D02*
X101600000Y-85000000D01*
X91200000Y-65800000D02*
X86000000Y-65800000D01*
X91200000Y-85000000D02*
X91200000Y-65800000D01*
X86000000Y-85000000D02*
X91200000Y-85000000D01*
X86000000Y-65800000D02*
X86000000Y-85000000D01*
X75600000Y-65800000D02*
X70400000Y-65800000D01*
X75600000Y-85000000D02*
X75600000Y-65800000D01*
X70400000Y-85000000D02*
X75600000Y-85000000D01*
X70400000Y-65800000D02*
X70400000Y-85000000D01*
X153600000Y-87400000D02*
X148400000Y-87400000D01*
X153600000Y-106600000D02*
X153600000Y-87400000D01*
X148400000Y-106600000D02*
X153600000Y-106600000D01*
X148400000Y-87400000D02*
X148400000Y-106600000D01*
X138000000Y-87400000D02*
X132800000Y-87400000D01*
X138000000Y-106600000D02*
X138000000Y-87400000D01*
X132800000Y-106600000D02*
X138000000Y-106600000D01*
X132800000Y-87400000D02*
X132800000Y-106600000D01*
X122400000Y-87400000D02*
X117200000Y-87400000D01*
X122400000Y-106600000D02*
X122400000Y-87400000D01*
X117200000Y-106600000D02*
X122400000Y-106600000D01*
X117200000Y-87400000D02*
X117200000Y-106600000D01*
X106800000Y-87400000D02*
X101600000Y-87400000D01*
X106800000Y-106600000D02*
X106800000Y-87400000D01*
X101600000Y-106600000D02*
X106800000Y-106600000D01*
X101600000Y-87400000D02*
X101600000Y-106600000D01*
X91200000Y-87400000D02*
X86000000Y-87400000D01*
X91200000Y-106600000D02*
X91200000Y-87400000D01*
X86000000Y-106600000D02*
X91200000Y-106600000D01*
X86000000Y-87400000D02*
X86000000Y-106600000D01*
X75600000Y-87400000D02*
X70400000Y-87400000D01*
X75600000Y-106600000D02*
X75600000Y-87400000D01*
X70400000Y-106600000D02*
X75600000Y-106600000D01*
X70400000Y-87400000D02*
X70400000Y-106600000D01*
X139194000Y-130878733D02*
X139194000Y-131221267D01*
X138174000Y-130878733D02*
X138174000Y-131221267D01*
X156085000Y-131033733D02*
X156085000Y-131376267D01*
X155065000Y-131033733D02*
X155065000Y-131376267D01*
X171391733Y-128903000D02*
X171734267Y-128903000D01*
X171391733Y-129923000D02*
X171734267Y-129923000D01*
X164396267Y-131701000D02*
X164053733Y-131701000D01*
X164396267Y-130681000D02*
X164053733Y-130681000D01*
X160977733Y-125474000D02*
X161320267Y-125474000D01*
X160977733Y-126494000D02*
X161320267Y-126494000D01*
X163397000Y-121227000D02*
X163397000Y-119552000D01*
X163137000Y-121227000D02*
X163397000Y-121227000D01*
X163137000Y-123952000D02*
X163137000Y-121227000D01*
X163137000Y-126677000D02*
X163397000Y-126677000D01*
X163137000Y-123952000D02*
X163137000Y-126677000D01*
X168587000Y-121227000D02*
X168327000Y-121227000D01*
X168587000Y-123952000D02*
X168587000Y-121227000D01*
X168587000Y-126677000D02*
X168327000Y-126677000D01*
X168587000Y-123952000D02*
X168587000Y-126677000D01*
X186645733Y-116584000D02*
X186988267Y-116584000D01*
X186645733Y-117604000D02*
X186988267Y-117604000D01*
X178560000Y-109532267D02*
X178560000Y-109189733D01*
X179580000Y-109532267D02*
X179580000Y-109189733D01*
X174721733Y-106805000D02*
X175064267Y-106805000D01*
X174721733Y-107825000D02*
X175064267Y-107825000D01*
X178056000Y-109161733D02*
X178056000Y-109504267D01*
X177036000Y-109161733D02*
X177036000Y-109504267D01*
X166372000Y-117289733D02*
X166372000Y-117632267D01*
X165352000Y-117289733D02*
X165352000Y-117632267D01*
X168023000Y-117289733D02*
X168023000Y-117632267D01*
X167003000Y-117289733D02*
X167003000Y-117632267D01*
X176993733Y-97153000D02*
X177336267Y-97153000D01*
X176993733Y-98173000D02*
X177336267Y-98173000D01*
X172524267Y-98173000D02*
X172181733Y-98173000D01*
X172524267Y-97153000D02*
X172181733Y-97153000D01*
X206502000Y-69850000D02*
X205740000Y-69850000D01*
X206502000Y-67818000D02*
X205740000Y-67818000D01*
X206502000Y-66167000D02*
X205740000Y-66167000D01*
X206502000Y-64135000D02*
X205740000Y-64135000D01*
X206502000Y-62484000D02*
X205740000Y-62484000D01*
X206502000Y-60452000D02*
X205740000Y-60452000D01*
X206502000Y-58801000D02*
X205740000Y-58801000D01*
X206502000Y-56769000D02*
X205740000Y-56769000D01*
X206502000Y-55118000D02*
X205740000Y-55118000D01*
X206502000Y-53086000D02*
X205740000Y-53086000D01*
X206502000Y-51435000D02*
X205740000Y-51435000D01*
X206502000Y-49403000D02*
X205740000Y-49403000D01*
X159570267Y-112905000D02*
X159227733Y-112905000D01*
X159570267Y-111885000D02*
X159227733Y-111885000D01*
X180342000Y-114876733D02*
X180342000Y-115219267D01*
X179322000Y-114876733D02*
X179322000Y-115219267D01*
X186861267Y-131828000D02*
X186518733Y-131828000D01*
X186861267Y-130808000D02*
X186518733Y-130808000D01*
X159646252Y-114883000D02*
X159123748Y-114883000D01*
X159646252Y-113463000D02*
X159123748Y-113463000D01*
X186130000Y-109076748D02*
X186130000Y-109599252D01*
X184710000Y-109076748D02*
X184710000Y-109599252D01*
X172891267Y-118874000D02*
X172548733Y-118874000D01*
X172891267Y-117854000D02*
X172548733Y-117854000D01*
X174721733Y-105281000D02*
X175064267Y-105281000D01*
X174721733Y-106301000D02*
X175064267Y-106301000D01*
X174721733Y-102233000D02*
X175064267Y-102233000D01*
X174721733Y-103253000D02*
X175064267Y-103253000D01*
X174721733Y-103757000D02*
X175064267Y-103757000D01*
X174721733Y-104777000D02*
X175064267Y-104777000D01*
X181866000Y-114876733D02*
X181866000Y-115219267D01*
X180846000Y-114876733D02*
X180846000Y-115219267D01*
X170436000Y-114114733D02*
X170436000Y-114457267D01*
X169416000Y-114114733D02*
X169416000Y-114457267D01*
X160723733Y-130681000D02*
X161066267Y-130681000D01*
X160723733Y-131701000D02*
X161066267Y-131701000D01*
X175897000Y-114114733D02*
X175897000Y-114457267D01*
X174877000Y-114114733D02*
X174877000Y-114457267D01*
X180027733Y-132078000D02*
X180370267Y-132078000D01*
X180027733Y-133098000D02*
X180370267Y-133098000D01*
X179072000Y-121099733D02*
X179072000Y-121442267D01*
X178052000Y-121099733D02*
X178052000Y-121442267D01*
X178945000Y-126306733D02*
X178945000Y-126649267D01*
X177925000Y-126306733D02*
X177925000Y-126649267D01*
X169857267Y-131701000D02*
X169514733Y-131701000D01*
X169857267Y-130681000D02*
X169514733Y-130681000D01*
X164533733Y-128903000D02*
X164876267Y-128903000D01*
X164533733Y-129923000D02*
X164876267Y-129923000D01*
X155760267Y-114683000D02*
X155417733Y-114683000D01*
X155760267Y-113663000D02*
X155417733Y-113663000D01*
X175131252Y-131901000D02*
X174608748Y-131901000D01*
X175131252Y-130481000D02*
X174608748Y-130481000D01*
X160529748Y-128195000D02*
X161052252Y-128195000D01*
X160529748Y-129615000D02*
X161052252Y-129615000D01*
X155760267Y-121160000D02*
X155417733Y-121160000D01*
X155760267Y-120140000D02*
X155417733Y-120140000D01*
X188399267Y-99697000D02*
X188056733Y-99697000D01*
X188399267Y-98677000D02*
X188056733Y-98677000D01*
X175064267Y-101729000D02*
X174721733Y-101729000D01*
X175064267Y-100709000D02*
X174721733Y-100709000D01*
X188399267Y-106047000D02*
X188056733Y-106047000D01*
X188399267Y-105027000D02*
X188056733Y-105027000D01*
X181104000Y-109189733D02*
X181104000Y-109532267D01*
X180084000Y-109189733D02*
X180084000Y-109532267D01*
X182370000Y-100487267D02*
X182370000Y-100144733D01*
X183390000Y-100487267D02*
X183390000Y-100144733D01*
X182628000Y-109189733D02*
X182628000Y-109532267D01*
X181608000Y-109189733D02*
X181608000Y-109532267D01*
X180846000Y-100501267D02*
X180846000Y-100158733D01*
X181866000Y-100501267D02*
X181866000Y-100158733D01*
X174721733Y-108329000D02*
X175064267Y-108329000D01*
X174721733Y-109349000D02*
X175064267Y-109349000D01*
X183132000Y-109532267D02*
X183132000Y-109189733D01*
X184152000Y-109532267D02*
X184152000Y-109189733D01*
X170255000Y-121227000D02*
X170255000Y-119552000D01*
X169995000Y-121227000D02*
X170255000Y-121227000D01*
X169995000Y-123952000D02*
X169995000Y-121227000D01*
X169995000Y-126677000D02*
X170255000Y-126677000D01*
X169995000Y-123952000D02*
X169995000Y-126677000D01*
X175445000Y-121227000D02*
X175185000Y-121227000D01*
X175445000Y-123952000D02*
X175445000Y-121227000D01*
X175445000Y-126677000D02*
X175185000Y-126677000D01*
X175445000Y-123952000D02*
X175445000Y-126677000D01*
X204514267Y-115064000D02*
X204171733Y-115064000D01*
X204514267Y-114044000D02*
X204171733Y-114044000D01*
X200398748Y-113844000D02*
X200921252Y-113844000D01*
X200398748Y-115264000D02*
X200921252Y-115264000D01*
X177798000Y-115247267D02*
X177798000Y-114904733D01*
X178818000Y-115247267D02*
X178818000Y-114904733D01*
X193388064Y-97684000D02*
X192183936Y-97684000D01*
X193388064Y-95864000D02*
X192183936Y-95864000D01*
X197426733Y-98677000D02*
X197769267Y-98677000D01*
X197426733Y-99697000D02*
X197769267Y-99697000D01*
X197454733Y-105027000D02*
X197797267Y-105027000D01*
X197454733Y-106047000D02*
X197797267Y-106047000D01*
X180215000Y-100158733D02*
X180215000Y-100501267D01*
X179195000Y-100158733D02*
X179195000Y-100501267D01*
X188056733Y-106551000D02*
X188399267Y-106551000D01*
X188056733Y-107571000D02*
X188399267Y-107571000D01*
X188056733Y-103503000D02*
X188399267Y-103503000D01*
X188056733Y-104523000D02*
X188399267Y-104523000D01*
X188056733Y-100201000D02*
X188399267Y-100201000D01*
X188056733Y-101221000D02*
X188399267Y-101221000D01*
X188056733Y-97153000D02*
X188399267Y-97153000D01*
X188056733Y-98173000D02*
X188399267Y-98173000D01*
D10*
X202802000Y-137033000D02*
X209914000Y-137033000D01*
X202802000Y-130937000D02*
X209914000Y-130937000D01*
X200138000Y-129470000D02*
X200138000Y-130270000D01*
X200138000Y-130270000D02*
X204738000Y-130270000D01*
X200138000Y-127070000D02*
X200138000Y-126270000D01*
X200138000Y-126270000D02*
X204738000Y-126270000D01*
X204738000Y-126270000D02*
X204738000Y-127070000D01*
X204738000Y-130270000D02*
X204738000Y-129470000D01*
X204238000Y-130270000D02*
X204238000Y-129470000D01*
X204238000Y-126270000D02*
X204238000Y-127070000D01*
D11*
X193388064Y-108860000D02*
X192183936Y-108860000D01*
X193388064Y-107040000D02*
X192183936Y-107040000D01*
X197234564Y-103272000D02*
X196030436Y-103272000D01*
X197234564Y-101452000D02*
X196030436Y-101452000D01*
X137812428Y-130378571D02*
X137526714Y-130178571D01*
X137812428Y-130035714D02*
X137212428Y-130035714D01*
X137212428Y-130264285D01*
X137241000Y-130321428D01*
X137269571Y-130350000D01*
X137326714Y-130378571D01*
X137412428Y-130378571D01*
X137469571Y-130350000D01*
X137498142Y-130321428D01*
X137526714Y-130264285D01*
X137526714Y-130035714D01*
X137212428Y-130892857D02*
X137212428Y-130778571D01*
X137241000Y-130721428D01*
X137269571Y-130692857D01*
X137355285Y-130635714D01*
X137469571Y-130607142D01*
X137698142Y-130607142D01*
X137755285Y-130635714D01*
X137783857Y-130664285D01*
X137812428Y-130721428D01*
X137812428Y-130835714D01*
X137783857Y-130892857D01*
X137755285Y-130921428D01*
X137698142Y-130950000D01*
X137555285Y-130950000D01*
X137498142Y-130921428D01*
X137469571Y-130892857D01*
X137441000Y-130835714D01*
X137441000Y-130721428D01*
X137469571Y-130664285D01*
X137498142Y-130635714D01*
X137555285Y-130607142D01*
X137212428Y-131321428D02*
X137212428Y-131378571D01*
X137241000Y-131435714D01*
X137269571Y-131464285D01*
X137326714Y-131492857D01*
X137441000Y-131521428D01*
X137583857Y-131521428D01*
X137698142Y-131492857D01*
X137755285Y-131464285D01*
X137783857Y-131435714D01*
X137812428Y-131378571D01*
X137812428Y-131321428D01*
X137783857Y-131264285D01*
X137755285Y-131235714D01*
X137698142Y-131207142D01*
X137583857Y-131178571D01*
X137441000Y-131178571D01*
X137326714Y-131207142D01*
X137269571Y-131235714D01*
X137241000Y-131264285D01*
X137212428Y-131321428D01*
X137812428Y-131807142D02*
X137812428Y-131921428D01*
X137783857Y-131978571D01*
X137755285Y-132007142D01*
X137669571Y-132064285D01*
X137555285Y-132092857D01*
X137326714Y-132092857D01*
X137269571Y-132064285D01*
X137241000Y-132035714D01*
X137212428Y-131978571D01*
X137212428Y-131864285D01*
X137241000Y-131807142D01*
X137269571Y-131778571D01*
X137326714Y-131750000D01*
X137469571Y-131750000D01*
X137526714Y-131778571D01*
X137555285Y-131807142D01*
X137583857Y-131864285D01*
X137583857Y-131978571D01*
X137555285Y-132035714D01*
X137526714Y-132064285D01*
X137469571Y-132092857D01*
X154703428Y-130547571D02*
X154417714Y-130347571D01*
X154703428Y-130204714D02*
X154103428Y-130204714D01*
X154103428Y-130433285D01*
X154132000Y-130490428D01*
X154160571Y-130519000D01*
X154217714Y-130547571D01*
X154303428Y-130547571D01*
X154360571Y-130519000D01*
X154389142Y-130490428D01*
X154417714Y-130433285D01*
X154417714Y-130204714D01*
X154103428Y-131061857D02*
X154103428Y-130947571D01*
X154132000Y-130890428D01*
X154160571Y-130861857D01*
X154246285Y-130804714D01*
X154360571Y-130776142D01*
X154589142Y-130776142D01*
X154646285Y-130804714D01*
X154674857Y-130833285D01*
X154703428Y-130890428D01*
X154703428Y-131004714D01*
X154674857Y-131061857D01*
X154646285Y-131090428D01*
X154589142Y-131119000D01*
X154446285Y-131119000D01*
X154389142Y-131090428D01*
X154360571Y-131061857D01*
X154332000Y-131004714D01*
X154332000Y-130890428D01*
X154360571Y-130833285D01*
X154389142Y-130804714D01*
X154446285Y-130776142D01*
X154103428Y-131490428D02*
X154103428Y-131547571D01*
X154132000Y-131604714D01*
X154160571Y-131633285D01*
X154217714Y-131661857D01*
X154332000Y-131690428D01*
X154474857Y-131690428D01*
X154589142Y-131661857D01*
X154646285Y-131633285D01*
X154674857Y-131604714D01*
X154703428Y-131547571D01*
X154703428Y-131490428D01*
X154674857Y-131433285D01*
X154646285Y-131404714D01*
X154589142Y-131376142D01*
X154474857Y-131347571D01*
X154332000Y-131347571D01*
X154217714Y-131376142D01*
X154160571Y-131404714D01*
X154132000Y-131433285D01*
X154103428Y-131490428D01*
X154303428Y-132204714D02*
X154703428Y-132204714D01*
X154074857Y-132061857D02*
X154503428Y-131919000D01*
X154503428Y-132290428D01*
X175423428Y-129627285D02*
X175452000Y-129655857D01*
X175537714Y-129684428D01*
X175594857Y-129684428D01*
X175680571Y-129655857D01*
X175737714Y-129598714D01*
X175766285Y-129541571D01*
X175794857Y-129427285D01*
X175794857Y-129341571D01*
X175766285Y-129227285D01*
X175737714Y-129170142D01*
X175680571Y-129113000D01*
X175594857Y-129084428D01*
X175537714Y-129084428D01*
X175452000Y-129113000D01*
X175423428Y-129141571D01*
X174909142Y-129084428D02*
X175023428Y-129084428D01*
X175080571Y-129113000D01*
X175109142Y-129141571D01*
X175166285Y-129227285D01*
X175194857Y-129341571D01*
X175194857Y-129570142D01*
X175166285Y-129627285D01*
X175137714Y-129655857D01*
X175080571Y-129684428D01*
X174966285Y-129684428D01*
X174909142Y-129655857D01*
X174880571Y-129627285D01*
X174852000Y-129570142D01*
X174852000Y-129427285D01*
X174880571Y-129370142D01*
X174909142Y-129341571D01*
X174966285Y-129313000D01*
X175080571Y-129313000D01*
X175137714Y-129341571D01*
X175166285Y-129370142D01*
X175194857Y-129427285D01*
X174280571Y-129684428D02*
X174623428Y-129684428D01*
X174452000Y-129684428D02*
X174452000Y-129084428D01*
X174509142Y-129170142D01*
X174566285Y-129227285D01*
X174623428Y-129255857D01*
X173909142Y-129084428D02*
X173852000Y-129084428D01*
X173794857Y-129113000D01*
X173766285Y-129141571D01*
X173737714Y-129198714D01*
X173709142Y-129313000D01*
X173709142Y-129455857D01*
X173737714Y-129570142D01*
X173766285Y-129627285D01*
X173794857Y-129655857D01*
X173852000Y-129684428D01*
X173909142Y-129684428D01*
X173966285Y-129655857D01*
X173994857Y-129627285D01*
X174023428Y-129570142D01*
X174052000Y-129455857D01*
X174052000Y-129313000D01*
X174023428Y-129198714D01*
X173994857Y-129141571D01*
X173966285Y-129113000D01*
X173909142Y-129084428D01*
X164882428Y-132675285D02*
X164911000Y-132703857D01*
X164996714Y-132732428D01*
X165053857Y-132732428D01*
X165139571Y-132703857D01*
X165196714Y-132646714D01*
X165225285Y-132589571D01*
X165253857Y-132475285D01*
X165253857Y-132389571D01*
X165225285Y-132275285D01*
X165196714Y-132218142D01*
X165139571Y-132161000D01*
X165053857Y-132132428D01*
X164996714Y-132132428D01*
X164911000Y-132161000D01*
X164882428Y-132189571D01*
X164368142Y-132132428D02*
X164482428Y-132132428D01*
X164539571Y-132161000D01*
X164568142Y-132189571D01*
X164625285Y-132275285D01*
X164653857Y-132389571D01*
X164653857Y-132618142D01*
X164625285Y-132675285D01*
X164596714Y-132703857D01*
X164539571Y-132732428D01*
X164425285Y-132732428D01*
X164368142Y-132703857D01*
X164339571Y-132675285D01*
X164311000Y-132618142D01*
X164311000Y-132475285D01*
X164339571Y-132418142D01*
X164368142Y-132389571D01*
X164425285Y-132361000D01*
X164539571Y-132361000D01*
X164596714Y-132389571D01*
X164625285Y-132418142D01*
X164653857Y-132475285D01*
X163739571Y-132732428D02*
X164082428Y-132732428D01*
X163911000Y-132732428D02*
X163911000Y-132132428D01*
X163968142Y-132218142D01*
X164025285Y-132275285D01*
X164082428Y-132303857D01*
X163196714Y-132132428D02*
X163482428Y-132132428D01*
X163511000Y-132418142D01*
X163482428Y-132389571D01*
X163425285Y-132361000D01*
X163282428Y-132361000D01*
X163225285Y-132389571D01*
X163196714Y-132418142D01*
X163168142Y-132475285D01*
X163168142Y-132618142D01*
X163196714Y-132675285D01*
X163225285Y-132703857D01*
X163282428Y-132732428D01*
X163425285Y-132732428D01*
X163482428Y-132703857D01*
X163511000Y-132675285D01*
X161453428Y-124547285D02*
X161482000Y-124575857D01*
X161567714Y-124604428D01*
X161624857Y-124604428D01*
X161710571Y-124575857D01*
X161767714Y-124518714D01*
X161796285Y-124461571D01*
X161824857Y-124347285D01*
X161824857Y-124261571D01*
X161796285Y-124147285D01*
X161767714Y-124090142D01*
X161710571Y-124033000D01*
X161624857Y-124004428D01*
X161567714Y-124004428D01*
X161482000Y-124033000D01*
X161453428Y-124061571D01*
X160939142Y-124004428D02*
X161053428Y-124004428D01*
X161110571Y-124033000D01*
X161139142Y-124061571D01*
X161196285Y-124147285D01*
X161224857Y-124261571D01*
X161224857Y-124490142D01*
X161196285Y-124547285D01*
X161167714Y-124575857D01*
X161110571Y-124604428D01*
X160996285Y-124604428D01*
X160939142Y-124575857D01*
X160910571Y-124547285D01*
X160882000Y-124490142D01*
X160882000Y-124347285D01*
X160910571Y-124290142D01*
X160939142Y-124261571D01*
X160996285Y-124233000D01*
X161110571Y-124233000D01*
X161167714Y-124261571D01*
X161196285Y-124290142D01*
X161224857Y-124347285D01*
X160510571Y-124004428D02*
X160453428Y-124004428D01*
X160396285Y-124033000D01*
X160367714Y-124061571D01*
X160339142Y-124118714D01*
X160310571Y-124233000D01*
X160310571Y-124375857D01*
X160339142Y-124490142D01*
X160367714Y-124547285D01*
X160396285Y-124575857D01*
X160453428Y-124604428D01*
X160510571Y-124604428D01*
X160567714Y-124575857D01*
X160596285Y-124547285D01*
X160624857Y-124490142D01*
X160653428Y-124375857D01*
X160653428Y-124233000D01*
X160624857Y-124118714D01*
X160596285Y-124061571D01*
X160567714Y-124033000D01*
X160510571Y-124004428D01*
X159796285Y-124204428D02*
X159796285Y-124604428D01*
X159939142Y-123975857D02*
X160082000Y-124404428D01*
X159710571Y-124404428D01*
X162231428Y-122923428D02*
X162717142Y-122923428D01*
X162774285Y-122952000D01*
X162802857Y-122980571D01*
X162831428Y-123037714D01*
X162831428Y-123152000D01*
X162802857Y-123209142D01*
X162774285Y-123237714D01*
X162717142Y-123266285D01*
X162231428Y-123266285D01*
X162231428Y-123809142D02*
X162231428Y-123694857D01*
X162260000Y-123637714D01*
X162288571Y-123609142D01*
X162374285Y-123552000D01*
X162488571Y-123523428D01*
X162717142Y-123523428D01*
X162774285Y-123552000D01*
X162802857Y-123580571D01*
X162831428Y-123637714D01*
X162831428Y-123752000D01*
X162802857Y-123809142D01*
X162774285Y-123837714D01*
X162717142Y-123866285D01*
X162574285Y-123866285D01*
X162517142Y-123837714D01*
X162488571Y-123809142D01*
X162460000Y-123752000D01*
X162460000Y-123637714D01*
X162488571Y-123580571D01*
X162517142Y-123552000D01*
X162574285Y-123523428D01*
X162231428Y-124237714D02*
X162231428Y-124294857D01*
X162260000Y-124352000D01*
X162288571Y-124380571D01*
X162345714Y-124409142D01*
X162460000Y-124437714D01*
X162602857Y-124437714D01*
X162717142Y-124409142D01*
X162774285Y-124380571D01*
X162802857Y-124352000D01*
X162831428Y-124294857D01*
X162831428Y-124237714D01*
X162802857Y-124180571D01*
X162774285Y-124152000D01*
X162717142Y-124123428D01*
X162602857Y-124094857D01*
X162460000Y-124094857D01*
X162345714Y-124123428D01*
X162288571Y-124152000D01*
X162260000Y-124180571D01*
X162231428Y-124237714D01*
X162831428Y-125009142D02*
X162831428Y-124666285D01*
X162831428Y-124837714D02*
X162231428Y-124837714D01*
X162317142Y-124780571D01*
X162374285Y-124723428D01*
X162402857Y-124666285D01*
X187488428Y-116165285D02*
X187517000Y-116193857D01*
X187602714Y-116222428D01*
X187659857Y-116222428D01*
X187745571Y-116193857D01*
X187802714Y-116136714D01*
X187831285Y-116079571D01*
X187859857Y-115965285D01*
X187859857Y-115879571D01*
X187831285Y-115765285D01*
X187802714Y-115708142D01*
X187745571Y-115651000D01*
X187659857Y-115622428D01*
X187602714Y-115622428D01*
X187517000Y-115651000D01*
X187488428Y-115679571D01*
X186974142Y-115822428D02*
X186974142Y-116222428D01*
X187117000Y-115593857D02*
X187259857Y-116022428D01*
X186888428Y-116022428D01*
X186545571Y-115622428D02*
X186488428Y-115622428D01*
X186431285Y-115651000D01*
X186402714Y-115679571D01*
X186374142Y-115736714D01*
X186345571Y-115851000D01*
X186345571Y-115993857D01*
X186374142Y-116108142D01*
X186402714Y-116165285D01*
X186431285Y-116193857D01*
X186488428Y-116222428D01*
X186545571Y-116222428D01*
X186602714Y-116193857D01*
X186631285Y-116165285D01*
X186659857Y-116108142D01*
X186688428Y-115993857D01*
X186688428Y-115851000D01*
X186659857Y-115736714D01*
X186631285Y-115679571D01*
X186602714Y-115651000D01*
X186545571Y-115622428D01*
X185802714Y-115622428D02*
X186088428Y-115622428D01*
X186117000Y-115908142D01*
X186088428Y-115879571D01*
X186031285Y-115851000D01*
X185888428Y-115851000D01*
X185831285Y-115879571D01*
X185802714Y-115908142D01*
X185774142Y-115965285D01*
X185774142Y-116108142D01*
X185802714Y-116165285D01*
X185831285Y-116193857D01*
X185888428Y-116222428D01*
X186031285Y-116222428D01*
X186088428Y-116193857D01*
X186117000Y-116165285D01*
X164323714Y-113315857D02*
X164609428Y-113315857D01*
X164009428Y-113115857D02*
X164323714Y-113315857D01*
X164009428Y-113515857D01*
X164009428Y-113973000D02*
X164009428Y-113858714D01*
X164038000Y-113801571D01*
X164066571Y-113773000D01*
X164152285Y-113715857D01*
X164266571Y-113687285D01*
X164495142Y-113687285D01*
X164552285Y-113715857D01*
X164580857Y-113744428D01*
X164609428Y-113801571D01*
X164609428Y-113915857D01*
X164580857Y-113973000D01*
X164552285Y-114001571D01*
X164495142Y-114030142D01*
X164352285Y-114030142D01*
X164295142Y-114001571D01*
X164266571Y-113973000D01*
X164238000Y-113915857D01*
X164238000Y-113801571D01*
X164266571Y-113744428D01*
X164295142Y-113715857D01*
X164352285Y-113687285D01*
X164009428Y-114401571D02*
X164009428Y-114458714D01*
X164038000Y-114515857D01*
X164066571Y-114544428D01*
X164123714Y-114573000D01*
X164238000Y-114601571D01*
X164380857Y-114601571D01*
X164495142Y-114573000D01*
X164552285Y-114544428D01*
X164580857Y-114515857D01*
X164609428Y-114458714D01*
X164609428Y-114401571D01*
X164580857Y-114344428D01*
X164552285Y-114315857D01*
X164495142Y-114287285D01*
X164380857Y-114258714D01*
X164238000Y-114258714D01*
X164123714Y-114287285D01*
X164066571Y-114315857D01*
X164038000Y-114344428D01*
X164009428Y-114401571D01*
X164609428Y-115173000D02*
X164609428Y-114830142D01*
X164609428Y-115001571D02*
X164009428Y-115001571D01*
X164095142Y-114944428D01*
X164152285Y-114887285D01*
X164180857Y-114830142D01*
X179341428Y-111850571D02*
X179055714Y-111650571D01*
X179341428Y-111507714D02*
X178741428Y-111507714D01*
X178741428Y-111736285D01*
X178770000Y-111793428D01*
X178798571Y-111822000D01*
X178855714Y-111850571D01*
X178941428Y-111850571D01*
X178998571Y-111822000D01*
X179027142Y-111793428D01*
X179055714Y-111736285D01*
X179055714Y-111507714D01*
X178798571Y-112079142D02*
X178770000Y-112107714D01*
X178741428Y-112164857D01*
X178741428Y-112307714D01*
X178770000Y-112364857D01*
X178798571Y-112393428D01*
X178855714Y-112422000D01*
X178912857Y-112422000D01*
X178998571Y-112393428D01*
X179341428Y-112050571D01*
X179341428Y-112422000D01*
X178798571Y-112650571D02*
X178770000Y-112679142D01*
X178741428Y-112736285D01*
X178741428Y-112879142D01*
X178770000Y-112936285D01*
X178798571Y-112964857D01*
X178855714Y-112993428D01*
X178912857Y-112993428D01*
X178998571Y-112964857D01*
X179341428Y-112622000D01*
X179341428Y-112993428D01*
X179341428Y-113564857D02*
X179341428Y-113222000D01*
X179341428Y-113393428D02*
X178741428Y-113393428D01*
X178827142Y-113336285D01*
X178884285Y-113279142D01*
X178912857Y-113222000D01*
X172629428Y-107586428D02*
X172829428Y-107300714D01*
X172972285Y-107586428D02*
X172972285Y-106986428D01*
X172743714Y-106986428D01*
X172686571Y-107015000D01*
X172658000Y-107043571D01*
X172629428Y-107100714D01*
X172629428Y-107186428D01*
X172658000Y-107243571D01*
X172686571Y-107272142D01*
X172743714Y-107300714D01*
X172972285Y-107300714D01*
X172400857Y-107043571D02*
X172372285Y-107015000D01*
X172315142Y-106986428D01*
X172172285Y-106986428D01*
X172115142Y-107015000D01*
X172086571Y-107043571D01*
X172058000Y-107100714D01*
X172058000Y-107157857D01*
X172086571Y-107243571D01*
X172429428Y-107586428D01*
X172058000Y-107586428D01*
X171829428Y-107043571D02*
X171800857Y-107015000D01*
X171743714Y-106986428D01*
X171600857Y-106986428D01*
X171543714Y-107015000D01*
X171515142Y-107043571D01*
X171486571Y-107100714D01*
X171486571Y-107157857D01*
X171515142Y-107243571D01*
X171858000Y-107586428D01*
X171486571Y-107586428D01*
X171115142Y-106986428D02*
X171058000Y-106986428D01*
X171000857Y-107015000D01*
X170972285Y-107043571D01*
X170943714Y-107100714D01*
X170915142Y-107215000D01*
X170915142Y-107357857D01*
X170943714Y-107472142D01*
X170972285Y-107529285D01*
X171000857Y-107557857D01*
X171058000Y-107586428D01*
X171115142Y-107586428D01*
X171172285Y-107557857D01*
X171200857Y-107529285D01*
X171229428Y-107472142D01*
X171258000Y-107357857D01*
X171258000Y-107215000D01*
X171229428Y-107100714D01*
X171200857Y-107043571D01*
X171172285Y-107015000D01*
X171115142Y-106986428D01*
X177817428Y-111469571D02*
X177531714Y-111269571D01*
X177817428Y-111126714D02*
X177217428Y-111126714D01*
X177217428Y-111355285D01*
X177246000Y-111412428D01*
X177274571Y-111441000D01*
X177331714Y-111469571D01*
X177417428Y-111469571D01*
X177474571Y-111441000D01*
X177503142Y-111412428D01*
X177531714Y-111355285D01*
X177531714Y-111126714D01*
X177274571Y-111698142D02*
X177246000Y-111726714D01*
X177217428Y-111783857D01*
X177217428Y-111926714D01*
X177246000Y-111983857D01*
X177274571Y-112012428D01*
X177331714Y-112041000D01*
X177388857Y-112041000D01*
X177474571Y-112012428D01*
X177817428Y-111669571D01*
X177817428Y-112041000D01*
X177217428Y-112412428D02*
X177217428Y-112469571D01*
X177246000Y-112526714D01*
X177274571Y-112555285D01*
X177331714Y-112583857D01*
X177446000Y-112612428D01*
X177588857Y-112612428D01*
X177703142Y-112583857D01*
X177760285Y-112555285D01*
X177788857Y-112526714D01*
X177817428Y-112469571D01*
X177817428Y-112412428D01*
X177788857Y-112355285D01*
X177760285Y-112326714D01*
X177703142Y-112298142D01*
X177588857Y-112269571D01*
X177446000Y-112269571D01*
X177331714Y-112298142D01*
X177274571Y-112326714D01*
X177246000Y-112355285D01*
X177217428Y-112412428D01*
X177217428Y-112812428D02*
X177217428Y-113212428D01*
X177817428Y-112955285D01*
X164963285Y-116789571D02*
X164991857Y-116761000D01*
X165020428Y-116675285D01*
X165020428Y-116618142D01*
X164991857Y-116532428D01*
X164934714Y-116475285D01*
X164877571Y-116446714D01*
X164763285Y-116418142D01*
X164677571Y-116418142D01*
X164563285Y-116446714D01*
X164506142Y-116475285D01*
X164449000Y-116532428D01*
X164420428Y-116618142D01*
X164420428Y-116675285D01*
X164449000Y-116761000D01*
X164477571Y-116789571D01*
X164420428Y-117303857D02*
X164420428Y-117189571D01*
X164449000Y-117132428D01*
X164477571Y-117103857D01*
X164563285Y-117046714D01*
X164677571Y-117018142D01*
X164906142Y-117018142D01*
X164963285Y-117046714D01*
X164991857Y-117075285D01*
X165020428Y-117132428D01*
X165020428Y-117246714D01*
X164991857Y-117303857D01*
X164963285Y-117332428D01*
X164906142Y-117361000D01*
X164763285Y-117361000D01*
X164706142Y-117332428D01*
X164677571Y-117303857D01*
X164649000Y-117246714D01*
X164649000Y-117132428D01*
X164677571Y-117075285D01*
X164706142Y-117046714D01*
X164763285Y-117018142D01*
X164420428Y-117732428D02*
X164420428Y-117789571D01*
X164449000Y-117846714D01*
X164477571Y-117875285D01*
X164534714Y-117903857D01*
X164649000Y-117932428D01*
X164791857Y-117932428D01*
X164906142Y-117903857D01*
X164963285Y-117875285D01*
X164991857Y-117846714D01*
X165020428Y-117789571D01*
X165020428Y-117732428D01*
X164991857Y-117675285D01*
X164963285Y-117646714D01*
X164906142Y-117618142D01*
X164791857Y-117589571D01*
X164649000Y-117589571D01*
X164534714Y-117618142D01*
X164477571Y-117646714D01*
X164449000Y-117675285D01*
X164420428Y-117732428D01*
X164477571Y-118161000D02*
X164449000Y-118189571D01*
X164420428Y-118246714D01*
X164420428Y-118389571D01*
X164449000Y-118446714D01*
X164477571Y-118475285D01*
X164534714Y-118503857D01*
X164591857Y-118503857D01*
X164677571Y-118475285D01*
X165020428Y-118132428D01*
X165020428Y-118503857D01*
X168870285Y-116789571D02*
X168898857Y-116761000D01*
X168927428Y-116675285D01*
X168927428Y-116618142D01*
X168898857Y-116532428D01*
X168841714Y-116475285D01*
X168784571Y-116446714D01*
X168670285Y-116418142D01*
X168584571Y-116418142D01*
X168470285Y-116446714D01*
X168413142Y-116475285D01*
X168356000Y-116532428D01*
X168327428Y-116618142D01*
X168327428Y-116675285D01*
X168356000Y-116761000D01*
X168384571Y-116789571D01*
X168327428Y-117303857D02*
X168327428Y-117189571D01*
X168356000Y-117132428D01*
X168384571Y-117103857D01*
X168470285Y-117046714D01*
X168584571Y-117018142D01*
X168813142Y-117018142D01*
X168870285Y-117046714D01*
X168898857Y-117075285D01*
X168927428Y-117132428D01*
X168927428Y-117246714D01*
X168898857Y-117303857D01*
X168870285Y-117332428D01*
X168813142Y-117361000D01*
X168670285Y-117361000D01*
X168613142Y-117332428D01*
X168584571Y-117303857D01*
X168556000Y-117246714D01*
X168556000Y-117132428D01*
X168584571Y-117075285D01*
X168613142Y-117046714D01*
X168670285Y-117018142D01*
X168327428Y-117732428D02*
X168327428Y-117789571D01*
X168356000Y-117846714D01*
X168384571Y-117875285D01*
X168441714Y-117903857D01*
X168556000Y-117932428D01*
X168698857Y-117932428D01*
X168813142Y-117903857D01*
X168870285Y-117875285D01*
X168898857Y-117846714D01*
X168927428Y-117789571D01*
X168927428Y-117732428D01*
X168898857Y-117675285D01*
X168870285Y-117646714D01*
X168813142Y-117618142D01*
X168698857Y-117589571D01*
X168556000Y-117589571D01*
X168441714Y-117618142D01*
X168384571Y-117646714D01*
X168356000Y-117675285D01*
X168327428Y-117732428D01*
X168927428Y-118503857D02*
X168927428Y-118161000D01*
X168927428Y-118332428D02*
X168327428Y-118332428D01*
X168413142Y-118275285D01*
X168470285Y-118218142D01*
X168498857Y-118161000D01*
X177836428Y-99020285D02*
X177865000Y-99048857D01*
X177950714Y-99077428D01*
X178007857Y-99077428D01*
X178093571Y-99048857D01*
X178150714Y-98991714D01*
X178179285Y-98934571D01*
X178207857Y-98820285D01*
X178207857Y-98734571D01*
X178179285Y-98620285D01*
X178150714Y-98563142D01*
X178093571Y-98506000D01*
X178007857Y-98477428D01*
X177950714Y-98477428D01*
X177865000Y-98506000D01*
X177836428Y-98534571D01*
X177607857Y-98534571D02*
X177579285Y-98506000D01*
X177522142Y-98477428D01*
X177379285Y-98477428D01*
X177322142Y-98506000D01*
X177293571Y-98534571D01*
X177265000Y-98591714D01*
X177265000Y-98648857D01*
X177293571Y-98734571D01*
X177636428Y-99077428D01*
X177265000Y-99077428D01*
X176693571Y-99077428D02*
X177036428Y-99077428D01*
X176865000Y-99077428D02*
X176865000Y-98477428D01*
X176922142Y-98563142D01*
X176979285Y-98620285D01*
X177036428Y-98648857D01*
X176179285Y-98677428D02*
X176179285Y-99077428D01*
X176322142Y-98448857D02*
X176465000Y-98877428D01*
X176093571Y-98877428D01*
X173024428Y-99020285D02*
X173053000Y-99048857D01*
X173138714Y-99077428D01*
X173195857Y-99077428D01*
X173281571Y-99048857D01*
X173338714Y-98991714D01*
X173367285Y-98934571D01*
X173395857Y-98820285D01*
X173395857Y-98734571D01*
X173367285Y-98620285D01*
X173338714Y-98563142D01*
X173281571Y-98506000D01*
X173195857Y-98477428D01*
X173138714Y-98477428D01*
X173053000Y-98506000D01*
X173024428Y-98534571D01*
X172795857Y-98534571D02*
X172767285Y-98506000D01*
X172710142Y-98477428D01*
X172567285Y-98477428D01*
X172510142Y-98506000D01*
X172481571Y-98534571D01*
X172453000Y-98591714D01*
X172453000Y-98648857D01*
X172481571Y-98734571D01*
X172824428Y-99077428D01*
X172453000Y-99077428D01*
X171881571Y-99077428D02*
X172224428Y-99077428D01*
X172053000Y-99077428D02*
X172053000Y-98477428D01*
X172110142Y-98563142D01*
X172167285Y-98620285D01*
X172224428Y-98648857D01*
X171681571Y-98477428D02*
X171310142Y-98477428D01*
X171510142Y-98706000D01*
X171424428Y-98706000D01*
X171367285Y-98734571D01*
X171338714Y-98763142D01*
X171310142Y-98820285D01*
X171310142Y-98963142D01*
X171338714Y-99020285D01*
X171367285Y-99048857D01*
X171424428Y-99077428D01*
X171595857Y-99077428D01*
X171653000Y-99048857D01*
X171681571Y-99020285D01*
X206892428Y-67013142D02*
X207092428Y-67013142D01*
X207092428Y-67327428D02*
X207092428Y-66727428D01*
X206806714Y-66727428D01*
X206292428Y-66727428D02*
X206578142Y-66727428D01*
X206606714Y-67013142D01*
X206578142Y-66984571D01*
X206521000Y-66956000D01*
X206378142Y-66956000D01*
X206321000Y-66984571D01*
X206292428Y-67013142D01*
X206263857Y-67070285D01*
X206263857Y-67213142D01*
X206292428Y-67270285D01*
X206321000Y-67298857D01*
X206378142Y-67327428D01*
X206521000Y-67327428D01*
X206578142Y-67298857D01*
X206606714Y-67270285D01*
X205892428Y-66727428D02*
X205835285Y-66727428D01*
X205778142Y-66756000D01*
X205749571Y-66784571D01*
X205721000Y-66841714D01*
X205692428Y-66956000D01*
X205692428Y-67098857D01*
X205721000Y-67213142D01*
X205749571Y-67270285D01*
X205778142Y-67298857D01*
X205835285Y-67327428D01*
X205892428Y-67327428D01*
X205949571Y-67298857D01*
X205978142Y-67270285D01*
X206006714Y-67213142D01*
X206035285Y-67098857D01*
X206035285Y-66956000D01*
X206006714Y-66841714D01*
X205978142Y-66784571D01*
X205949571Y-66756000D01*
X205892428Y-66727428D01*
X205178142Y-66727428D02*
X205292428Y-66727428D01*
X205349571Y-66756000D01*
X205378142Y-66784571D01*
X205435285Y-66870285D01*
X205463857Y-66984571D01*
X205463857Y-67213142D01*
X205435285Y-67270285D01*
X205406714Y-67298857D01*
X205349571Y-67327428D01*
X205235285Y-67327428D01*
X205178142Y-67298857D01*
X205149571Y-67270285D01*
X205121000Y-67213142D01*
X205121000Y-67070285D01*
X205149571Y-67013142D01*
X205178142Y-66984571D01*
X205235285Y-66956000D01*
X205349571Y-66956000D01*
X205406714Y-66984571D01*
X205435285Y-67013142D01*
X205463857Y-67070285D01*
X206892428Y-63330142D02*
X207092428Y-63330142D01*
X207092428Y-63644428D02*
X207092428Y-63044428D01*
X206806714Y-63044428D01*
X206292428Y-63044428D02*
X206578142Y-63044428D01*
X206606714Y-63330142D01*
X206578142Y-63301571D01*
X206521000Y-63273000D01*
X206378142Y-63273000D01*
X206321000Y-63301571D01*
X206292428Y-63330142D01*
X206263857Y-63387285D01*
X206263857Y-63530142D01*
X206292428Y-63587285D01*
X206321000Y-63615857D01*
X206378142Y-63644428D01*
X206521000Y-63644428D01*
X206578142Y-63615857D01*
X206606714Y-63587285D01*
X205892428Y-63044428D02*
X205835285Y-63044428D01*
X205778142Y-63073000D01*
X205749571Y-63101571D01*
X205721000Y-63158714D01*
X205692428Y-63273000D01*
X205692428Y-63415857D01*
X205721000Y-63530142D01*
X205749571Y-63587285D01*
X205778142Y-63615857D01*
X205835285Y-63644428D01*
X205892428Y-63644428D01*
X205949571Y-63615857D01*
X205978142Y-63587285D01*
X206006714Y-63530142D01*
X206035285Y-63415857D01*
X206035285Y-63273000D01*
X206006714Y-63158714D01*
X205978142Y-63101571D01*
X205949571Y-63073000D01*
X205892428Y-63044428D01*
X205149571Y-63044428D02*
X205435285Y-63044428D01*
X205463857Y-63330142D01*
X205435285Y-63301571D01*
X205378142Y-63273000D01*
X205235285Y-63273000D01*
X205178142Y-63301571D01*
X205149571Y-63330142D01*
X205121000Y-63387285D01*
X205121000Y-63530142D01*
X205149571Y-63587285D01*
X205178142Y-63615857D01*
X205235285Y-63644428D01*
X205378142Y-63644428D01*
X205435285Y-63615857D01*
X205463857Y-63587285D01*
X206892428Y-59647142D02*
X207092428Y-59647142D01*
X207092428Y-59961428D02*
X207092428Y-59361428D01*
X206806714Y-59361428D01*
X206292428Y-59361428D02*
X206578142Y-59361428D01*
X206606714Y-59647142D01*
X206578142Y-59618571D01*
X206521000Y-59590000D01*
X206378142Y-59590000D01*
X206321000Y-59618571D01*
X206292428Y-59647142D01*
X206263857Y-59704285D01*
X206263857Y-59847142D01*
X206292428Y-59904285D01*
X206321000Y-59932857D01*
X206378142Y-59961428D01*
X206521000Y-59961428D01*
X206578142Y-59932857D01*
X206606714Y-59904285D01*
X205892428Y-59361428D02*
X205835285Y-59361428D01*
X205778142Y-59390000D01*
X205749571Y-59418571D01*
X205721000Y-59475714D01*
X205692428Y-59590000D01*
X205692428Y-59732857D01*
X205721000Y-59847142D01*
X205749571Y-59904285D01*
X205778142Y-59932857D01*
X205835285Y-59961428D01*
X205892428Y-59961428D01*
X205949571Y-59932857D01*
X205978142Y-59904285D01*
X206006714Y-59847142D01*
X206035285Y-59732857D01*
X206035285Y-59590000D01*
X206006714Y-59475714D01*
X205978142Y-59418571D01*
X205949571Y-59390000D01*
X205892428Y-59361428D01*
X205178142Y-59561428D02*
X205178142Y-59961428D01*
X205321000Y-59332857D02*
X205463857Y-59761428D01*
X205092428Y-59761428D01*
X206892428Y-55964142D02*
X207092428Y-55964142D01*
X207092428Y-56278428D02*
X207092428Y-55678428D01*
X206806714Y-55678428D01*
X206292428Y-55678428D02*
X206578142Y-55678428D01*
X206606714Y-55964142D01*
X206578142Y-55935571D01*
X206521000Y-55907000D01*
X206378142Y-55907000D01*
X206321000Y-55935571D01*
X206292428Y-55964142D01*
X206263857Y-56021285D01*
X206263857Y-56164142D01*
X206292428Y-56221285D01*
X206321000Y-56249857D01*
X206378142Y-56278428D01*
X206521000Y-56278428D01*
X206578142Y-56249857D01*
X206606714Y-56221285D01*
X205892428Y-55678428D02*
X205835285Y-55678428D01*
X205778142Y-55707000D01*
X205749571Y-55735571D01*
X205721000Y-55792714D01*
X205692428Y-55907000D01*
X205692428Y-56049857D01*
X205721000Y-56164142D01*
X205749571Y-56221285D01*
X205778142Y-56249857D01*
X205835285Y-56278428D01*
X205892428Y-56278428D01*
X205949571Y-56249857D01*
X205978142Y-56221285D01*
X206006714Y-56164142D01*
X206035285Y-56049857D01*
X206035285Y-55907000D01*
X206006714Y-55792714D01*
X205978142Y-55735571D01*
X205949571Y-55707000D01*
X205892428Y-55678428D01*
X205492428Y-55678428D02*
X205121000Y-55678428D01*
X205321000Y-55907000D01*
X205235285Y-55907000D01*
X205178142Y-55935571D01*
X205149571Y-55964142D01*
X205121000Y-56021285D01*
X205121000Y-56164142D01*
X205149571Y-56221285D01*
X205178142Y-56249857D01*
X205235285Y-56278428D01*
X205406714Y-56278428D01*
X205463857Y-56249857D01*
X205492428Y-56221285D01*
X206892428Y-52281142D02*
X207092428Y-52281142D01*
X207092428Y-52595428D02*
X207092428Y-51995428D01*
X206806714Y-51995428D01*
X206292428Y-51995428D02*
X206578142Y-51995428D01*
X206606714Y-52281142D01*
X206578142Y-52252571D01*
X206521000Y-52224000D01*
X206378142Y-52224000D01*
X206321000Y-52252571D01*
X206292428Y-52281142D01*
X206263857Y-52338285D01*
X206263857Y-52481142D01*
X206292428Y-52538285D01*
X206321000Y-52566857D01*
X206378142Y-52595428D01*
X206521000Y-52595428D01*
X206578142Y-52566857D01*
X206606714Y-52538285D01*
X205892428Y-51995428D02*
X205835285Y-51995428D01*
X205778142Y-52024000D01*
X205749571Y-52052571D01*
X205721000Y-52109714D01*
X205692428Y-52224000D01*
X205692428Y-52366857D01*
X205721000Y-52481142D01*
X205749571Y-52538285D01*
X205778142Y-52566857D01*
X205835285Y-52595428D01*
X205892428Y-52595428D01*
X205949571Y-52566857D01*
X205978142Y-52538285D01*
X206006714Y-52481142D01*
X206035285Y-52366857D01*
X206035285Y-52224000D01*
X206006714Y-52109714D01*
X205978142Y-52052571D01*
X205949571Y-52024000D01*
X205892428Y-51995428D01*
X205463857Y-52052571D02*
X205435285Y-52024000D01*
X205378142Y-51995428D01*
X205235285Y-51995428D01*
X205178142Y-52024000D01*
X205149571Y-52052571D01*
X205121000Y-52109714D01*
X205121000Y-52166857D01*
X205149571Y-52252571D01*
X205492428Y-52595428D01*
X205121000Y-52595428D01*
X206892428Y-48598142D02*
X207092428Y-48598142D01*
X207092428Y-48912428D02*
X207092428Y-48312428D01*
X206806714Y-48312428D01*
X206292428Y-48312428D02*
X206578142Y-48312428D01*
X206606714Y-48598142D01*
X206578142Y-48569571D01*
X206521000Y-48541000D01*
X206378142Y-48541000D01*
X206321000Y-48569571D01*
X206292428Y-48598142D01*
X206263857Y-48655285D01*
X206263857Y-48798142D01*
X206292428Y-48855285D01*
X206321000Y-48883857D01*
X206378142Y-48912428D01*
X206521000Y-48912428D01*
X206578142Y-48883857D01*
X206606714Y-48855285D01*
X205892428Y-48312428D02*
X205835285Y-48312428D01*
X205778142Y-48341000D01*
X205749571Y-48369571D01*
X205721000Y-48426714D01*
X205692428Y-48541000D01*
X205692428Y-48683857D01*
X205721000Y-48798142D01*
X205749571Y-48855285D01*
X205778142Y-48883857D01*
X205835285Y-48912428D01*
X205892428Y-48912428D01*
X205949571Y-48883857D01*
X205978142Y-48855285D01*
X206006714Y-48798142D01*
X206035285Y-48683857D01*
X206035285Y-48541000D01*
X206006714Y-48426714D01*
X205978142Y-48369571D01*
X205949571Y-48341000D01*
X205892428Y-48312428D01*
X205121000Y-48912428D02*
X205463857Y-48912428D01*
X205292428Y-48912428D02*
X205292428Y-48312428D01*
X205349571Y-48398142D01*
X205406714Y-48455285D01*
X205463857Y-48483857D01*
X160056428Y-111466285D02*
X160085000Y-111494857D01*
X160170714Y-111523428D01*
X160227857Y-111523428D01*
X160313571Y-111494857D01*
X160370714Y-111437714D01*
X160399285Y-111380571D01*
X160427857Y-111266285D01*
X160427857Y-111180571D01*
X160399285Y-111066285D01*
X160370714Y-111009142D01*
X160313571Y-110952000D01*
X160227857Y-110923428D01*
X160170714Y-110923428D01*
X160085000Y-110952000D01*
X160056428Y-110980571D01*
X159542142Y-110923428D02*
X159656428Y-110923428D01*
X159713571Y-110952000D01*
X159742142Y-110980571D01*
X159799285Y-111066285D01*
X159827857Y-111180571D01*
X159827857Y-111409142D01*
X159799285Y-111466285D01*
X159770714Y-111494857D01*
X159713571Y-111523428D01*
X159599285Y-111523428D01*
X159542142Y-111494857D01*
X159513571Y-111466285D01*
X159485000Y-111409142D01*
X159485000Y-111266285D01*
X159513571Y-111209142D01*
X159542142Y-111180571D01*
X159599285Y-111152000D01*
X159713571Y-111152000D01*
X159770714Y-111180571D01*
X159799285Y-111209142D01*
X159827857Y-111266285D01*
X159256428Y-110980571D02*
X159227857Y-110952000D01*
X159170714Y-110923428D01*
X159027857Y-110923428D01*
X158970714Y-110952000D01*
X158942142Y-110980571D01*
X158913571Y-111037714D01*
X158913571Y-111094857D01*
X158942142Y-111180571D01*
X159285000Y-111523428D01*
X158913571Y-111523428D01*
X158342142Y-111523428D02*
X158685000Y-111523428D01*
X158513571Y-111523428D02*
X158513571Y-110923428D01*
X158570714Y-111009142D01*
X158627857Y-111066285D01*
X158685000Y-111094857D01*
X180046285Y-117311571D02*
X180074857Y-117283000D01*
X180103428Y-117197285D01*
X180103428Y-117140142D01*
X180074857Y-117054428D01*
X180017714Y-116997285D01*
X179960571Y-116968714D01*
X179846285Y-116940142D01*
X179760571Y-116940142D01*
X179646285Y-116968714D01*
X179589142Y-116997285D01*
X179532000Y-117054428D01*
X179503428Y-117140142D01*
X179503428Y-117197285D01*
X179532000Y-117283000D01*
X179560571Y-117311571D01*
X179503428Y-117825857D02*
X179503428Y-117711571D01*
X179532000Y-117654428D01*
X179560571Y-117625857D01*
X179646285Y-117568714D01*
X179760571Y-117540142D01*
X179989142Y-117540142D01*
X180046285Y-117568714D01*
X180074857Y-117597285D01*
X180103428Y-117654428D01*
X180103428Y-117768714D01*
X180074857Y-117825857D01*
X180046285Y-117854428D01*
X179989142Y-117883000D01*
X179846285Y-117883000D01*
X179789142Y-117854428D01*
X179760571Y-117825857D01*
X179732000Y-117768714D01*
X179732000Y-117654428D01*
X179760571Y-117597285D01*
X179789142Y-117568714D01*
X179846285Y-117540142D01*
X179503428Y-118254428D02*
X179503428Y-118311571D01*
X179532000Y-118368714D01*
X179560571Y-118397285D01*
X179617714Y-118425857D01*
X179732000Y-118454428D01*
X179874857Y-118454428D01*
X179989142Y-118425857D01*
X180046285Y-118397285D01*
X180074857Y-118368714D01*
X180103428Y-118311571D01*
X180103428Y-118254428D01*
X180074857Y-118197285D01*
X180046285Y-118168714D01*
X179989142Y-118140142D01*
X179874857Y-118111571D01*
X179732000Y-118111571D01*
X179617714Y-118140142D01*
X179560571Y-118168714D01*
X179532000Y-118197285D01*
X179503428Y-118254428D01*
X179760571Y-118797285D02*
X179732000Y-118740142D01*
X179703428Y-118711571D01*
X179646285Y-118683000D01*
X179617714Y-118683000D01*
X179560571Y-118711571D01*
X179532000Y-118740142D01*
X179503428Y-118797285D01*
X179503428Y-118911571D01*
X179532000Y-118968714D01*
X179560571Y-118997285D01*
X179617714Y-119025857D01*
X179646285Y-119025857D01*
X179703428Y-118997285D01*
X179732000Y-118968714D01*
X179760571Y-118911571D01*
X179760571Y-118797285D01*
X179789142Y-118740142D01*
X179817714Y-118711571D01*
X179874857Y-118683000D01*
X179989142Y-118683000D01*
X180046285Y-118711571D01*
X180074857Y-118740142D01*
X180103428Y-118797285D01*
X180103428Y-118911571D01*
X180074857Y-118968714D01*
X180046285Y-118997285D01*
X179989142Y-119025857D01*
X179874857Y-119025857D01*
X179817714Y-118997285D01*
X179789142Y-118968714D01*
X179760571Y-118911571D01*
X187361428Y-130319285D02*
X187390000Y-130347857D01*
X187475714Y-130376428D01*
X187532857Y-130376428D01*
X187618571Y-130347857D01*
X187675714Y-130290714D01*
X187704285Y-130233571D01*
X187732857Y-130119285D01*
X187732857Y-130033571D01*
X187704285Y-129919285D01*
X187675714Y-129862142D01*
X187618571Y-129805000D01*
X187532857Y-129776428D01*
X187475714Y-129776428D01*
X187390000Y-129805000D01*
X187361428Y-129833571D01*
X186847142Y-129976428D02*
X186847142Y-130376428D01*
X186990000Y-129747857D02*
X187132857Y-130176428D01*
X186761428Y-130176428D01*
X186418571Y-129776428D02*
X186361428Y-129776428D01*
X186304285Y-129805000D01*
X186275714Y-129833571D01*
X186247142Y-129890714D01*
X186218571Y-130005000D01*
X186218571Y-130147857D01*
X186247142Y-130262142D01*
X186275714Y-130319285D01*
X186304285Y-130347857D01*
X186361428Y-130376428D01*
X186418571Y-130376428D01*
X186475714Y-130347857D01*
X186504285Y-130319285D01*
X186532857Y-130262142D01*
X186561428Y-130147857D01*
X186561428Y-130005000D01*
X186532857Y-129890714D01*
X186504285Y-129833571D01*
X186475714Y-129805000D01*
X186418571Y-129776428D01*
X185990000Y-129833571D02*
X185961428Y-129805000D01*
X185904285Y-129776428D01*
X185761428Y-129776428D01*
X185704285Y-129805000D01*
X185675714Y-129833571D01*
X185647142Y-129890714D01*
X185647142Y-129947857D01*
X185675714Y-130033571D01*
X186018571Y-130376428D01*
X185647142Y-130376428D01*
X160456428Y-115527142D02*
X160656428Y-115527142D01*
X160656428Y-115841428D02*
X160656428Y-115241428D01*
X160370714Y-115241428D01*
X159942142Y-115527142D02*
X159856428Y-115555714D01*
X159827857Y-115584285D01*
X159799285Y-115641428D01*
X159799285Y-115727142D01*
X159827857Y-115784285D01*
X159856428Y-115812857D01*
X159913571Y-115841428D01*
X160142142Y-115841428D01*
X160142142Y-115241428D01*
X159942142Y-115241428D01*
X159885000Y-115270000D01*
X159856428Y-115298571D01*
X159827857Y-115355714D01*
X159827857Y-115412857D01*
X159856428Y-115470000D01*
X159885000Y-115498571D01*
X159942142Y-115527142D01*
X160142142Y-115527142D01*
X159285000Y-115241428D02*
X159399285Y-115241428D01*
X159456428Y-115270000D01*
X159485000Y-115298571D01*
X159542142Y-115384285D01*
X159570714Y-115498571D01*
X159570714Y-115727142D01*
X159542142Y-115784285D01*
X159513571Y-115812857D01*
X159456428Y-115841428D01*
X159342142Y-115841428D01*
X159285000Y-115812857D01*
X159256428Y-115784285D01*
X159227857Y-115727142D01*
X159227857Y-115584285D01*
X159256428Y-115527142D01*
X159285000Y-115498571D01*
X159342142Y-115470000D01*
X159456428Y-115470000D01*
X159513571Y-115498571D01*
X159542142Y-115527142D01*
X159570714Y-115584285D01*
X158856428Y-115241428D02*
X158799285Y-115241428D01*
X158742142Y-115270000D01*
X158713571Y-115298571D01*
X158685000Y-115355714D01*
X158656428Y-115470000D01*
X158656428Y-115612857D01*
X158685000Y-115727142D01*
X158713571Y-115784285D01*
X158742142Y-115812857D01*
X158799285Y-115841428D01*
X158856428Y-115841428D01*
X158913571Y-115812857D01*
X158942142Y-115784285D01*
X158970714Y-115727142D01*
X158999285Y-115612857D01*
X158999285Y-115470000D01*
X158970714Y-115355714D01*
X158942142Y-115298571D01*
X158913571Y-115270000D01*
X158856428Y-115241428D01*
X158085000Y-115841428D02*
X158427857Y-115841428D01*
X158256428Y-115841428D02*
X158256428Y-115241428D01*
X158313571Y-115327142D01*
X158370714Y-115384285D01*
X158427857Y-115412857D01*
X185377142Y-111450571D02*
X185377142Y-111250571D01*
X185691428Y-111250571D02*
X185091428Y-111250571D01*
X185091428Y-111536285D01*
X185377142Y-111964857D02*
X185405714Y-112050571D01*
X185434285Y-112079142D01*
X185491428Y-112107714D01*
X185577142Y-112107714D01*
X185634285Y-112079142D01*
X185662857Y-112050571D01*
X185691428Y-111993428D01*
X185691428Y-111764857D01*
X185091428Y-111764857D01*
X185091428Y-111964857D01*
X185120000Y-112022000D01*
X185148571Y-112050571D01*
X185205714Y-112079142D01*
X185262857Y-112079142D01*
X185320000Y-112050571D01*
X185348571Y-112022000D01*
X185377142Y-111964857D01*
X185377142Y-111764857D01*
X185148571Y-112336285D02*
X185120000Y-112364857D01*
X185091428Y-112422000D01*
X185091428Y-112564857D01*
X185120000Y-112622000D01*
X185148571Y-112650571D01*
X185205714Y-112679142D01*
X185262857Y-112679142D01*
X185348571Y-112650571D01*
X185691428Y-112307714D01*
X185691428Y-112679142D01*
X185091428Y-113050571D02*
X185091428Y-113107714D01*
X185120000Y-113164857D01*
X185148571Y-113193428D01*
X185205714Y-113222000D01*
X185320000Y-113250571D01*
X185462857Y-113250571D01*
X185577142Y-113222000D01*
X185634285Y-113193428D01*
X185662857Y-113164857D01*
X185691428Y-113107714D01*
X185691428Y-113050571D01*
X185662857Y-112993428D01*
X185634285Y-112964857D01*
X185577142Y-112936285D01*
X185462857Y-112907714D01*
X185320000Y-112907714D01*
X185205714Y-112936285D01*
X185148571Y-112964857D01*
X185120000Y-112993428D01*
X185091428Y-113050571D01*
X185691428Y-113822000D02*
X185691428Y-113479142D01*
X185691428Y-113650571D02*
X185091428Y-113650571D01*
X185177142Y-113593428D01*
X185234285Y-113536285D01*
X185262857Y-113479142D01*
X173391428Y-117365428D02*
X173591428Y-117079714D01*
X173734285Y-117365428D02*
X173734285Y-116765428D01*
X173505714Y-116765428D01*
X173448571Y-116794000D01*
X173420000Y-116822571D01*
X173391428Y-116879714D01*
X173391428Y-116965428D01*
X173420000Y-117022571D01*
X173448571Y-117051142D01*
X173505714Y-117079714D01*
X173734285Y-117079714D01*
X172877142Y-116765428D02*
X172991428Y-116765428D01*
X173048571Y-116794000D01*
X173077142Y-116822571D01*
X173134285Y-116908285D01*
X173162857Y-117022571D01*
X173162857Y-117251142D01*
X173134285Y-117308285D01*
X173105714Y-117336857D01*
X173048571Y-117365428D01*
X172934285Y-117365428D01*
X172877142Y-117336857D01*
X172848571Y-117308285D01*
X172820000Y-117251142D01*
X172820000Y-117108285D01*
X172848571Y-117051142D01*
X172877142Y-117022571D01*
X172934285Y-116994000D01*
X173048571Y-116994000D01*
X173105714Y-117022571D01*
X173134285Y-117051142D01*
X173162857Y-117108285D01*
X172448571Y-116765428D02*
X172391428Y-116765428D01*
X172334285Y-116794000D01*
X172305714Y-116822571D01*
X172277142Y-116879714D01*
X172248571Y-116994000D01*
X172248571Y-117136857D01*
X172277142Y-117251142D01*
X172305714Y-117308285D01*
X172334285Y-117336857D01*
X172391428Y-117365428D01*
X172448571Y-117365428D01*
X172505714Y-117336857D01*
X172534285Y-117308285D01*
X172562857Y-117251142D01*
X172591428Y-117136857D01*
X172591428Y-116994000D01*
X172562857Y-116879714D01*
X172534285Y-116822571D01*
X172505714Y-116794000D01*
X172448571Y-116765428D01*
X171677142Y-117365428D02*
X172020000Y-117365428D01*
X171848571Y-117365428D02*
X171848571Y-116765428D01*
X171905714Y-116851142D01*
X171962857Y-116908285D01*
X172020000Y-116936857D01*
X172629428Y-106062428D02*
X172829428Y-105776714D01*
X172972285Y-106062428D02*
X172972285Y-105462428D01*
X172743714Y-105462428D01*
X172686571Y-105491000D01*
X172658000Y-105519571D01*
X172629428Y-105576714D01*
X172629428Y-105662428D01*
X172658000Y-105719571D01*
X172686571Y-105748142D01*
X172743714Y-105776714D01*
X172972285Y-105776714D01*
X172400857Y-105519571D02*
X172372285Y-105491000D01*
X172315142Y-105462428D01*
X172172285Y-105462428D01*
X172115142Y-105491000D01*
X172086571Y-105519571D01*
X172058000Y-105576714D01*
X172058000Y-105633857D01*
X172086571Y-105719571D01*
X172429428Y-106062428D01*
X172058000Y-106062428D01*
X171486571Y-106062428D02*
X171829428Y-106062428D01*
X171658000Y-106062428D02*
X171658000Y-105462428D01*
X171715142Y-105548142D01*
X171772285Y-105605285D01*
X171829428Y-105633857D01*
X171200857Y-106062428D02*
X171086571Y-106062428D01*
X171029428Y-106033857D01*
X171000857Y-106005285D01*
X170943714Y-105919571D01*
X170915142Y-105805285D01*
X170915142Y-105576714D01*
X170943714Y-105519571D01*
X170972285Y-105491000D01*
X171029428Y-105462428D01*
X171143714Y-105462428D01*
X171200857Y-105491000D01*
X171229428Y-105519571D01*
X171258000Y-105576714D01*
X171258000Y-105719571D01*
X171229428Y-105776714D01*
X171200857Y-105805285D01*
X171143714Y-105833857D01*
X171029428Y-105833857D01*
X170972285Y-105805285D01*
X170943714Y-105776714D01*
X170915142Y-105719571D01*
X172121428Y-103014428D02*
X172321428Y-102728714D01*
X172464285Y-103014428D02*
X172464285Y-102414428D01*
X172235714Y-102414428D01*
X172178571Y-102443000D01*
X172150000Y-102471571D01*
X172121428Y-102528714D01*
X172121428Y-102614428D01*
X172150000Y-102671571D01*
X172178571Y-102700142D01*
X172235714Y-102728714D01*
X172464285Y-102728714D01*
X171892857Y-102471571D02*
X171864285Y-102443000D01*
X171807142Y-102414428D01*
X171664285Y-102414428D01*
X171607142Y-102443000D01*
X171578571Y-102471571D01*
X171550000Y-102528714D01*
X171550000Y-102585857D01*
X171578571Y-102671571D01*
X171921428Y-103014428D01*
X171550000Y-103014428D01*
X170978571Y-103014428D02*
X171321428Y-103014428D01*
X171150000Y-103014428D02*
X171150000Y-102414428D01*
X171207142Y-102500142D01*
X171264285Y-102557285D01*
X171321428Y-102585857D01*
X170635714Y-102671571D02*
X170692857Y-102643000D01*
X170721428Y-102614428D01*
X170750000Y-102557285D01*
X170750000Y-102528714D01*
X170721428Y-102471571D01*
X170692857Y-102443000D01*
X170635714Y-102414428D01*
X170521428Y-102414428D01*
X170464285Y-102443000D01*
X170435714Y-102471571D01*
X170407142Y-102528714D01*
X170407142Y-102557285D01*
X170435714Y-102614428D01*
X170464285Y-102643000D01*
X170521428Y-102671571D01*
X170635714Y-102671571D01*
X170692857Y-102700142D01*
X170721428Y-102728714D01*
X170750000Y-102785857D01*
X170750000Y-102900142D01*
X170721428Y-102957285D01*
X170692857Y-102985857D01*
X170635714Y-103014428D01*
X170521428Y-103014428D01*
X170464285Y-102985857D01*
X170435714Y-102957285D01*
X170407142Y-102900142D01*
X170407142Y-102785857D01*
X170435714Y-102728714D01*
X170464285Y-102700142D01*
X170521428Y-102671571D01*
X172657428Y-104538428D02*
X172857428Y-104252714D01*
X173000285Y-104538428D02*
X173000285Y-103938428D01*
X172771714Y-103938428D01*
X172714571Y-103967000D01*
X172686000Y-103995571D01*
X172657428Y-104052714D01*
X172657428Y-104138428D01*
X172686000Y-104195571D01*
X172714571Y-104224142D01*
X172771714Y-104252714D01*
X173000285Y-104252714D01*
X172428857Y-103995571D02*
X172400285Y-103967000D01*
X172343142Y-103938428D01*
X172200285Y-103938428D01*
X172143142Y-103967000D01*
X172114571Y-103995571D01*
X172086000Y-104052714D01*
X172086000Y-104109857D01*
X172114571Y-104195571D01*
X172457428Y-104538428D01*
X172086000Y-104538428D01*
X171514571Y-104538428D02*
X171857428Y-104538428D01*
X171686000Y-104538428D02*
X171686000Y-103938428D01*
X171743142Y-104024142D01*
X171800285Y-104081285D01*
X171857428Y-104109857D01*
X171314571Y-103938428D02*
X170914571Y-103938428D01*
X171171714Y-104538428D01*
X181570285Y-117311571D02*
X181598857Y-117283000D01*
X181627428Y-117197285D01*
X181627428Y-117140142D01*
X181598857Y-117054428D01*
X181541714Y-116997285D01*
X181484571Y-116968714D01*
X181370285Y-116940142D01*
X181284571Y-116940142D01*
X181170285Y-116968714D01*
X181113142Y-116997285D01*
X181056000Y-117054428D01*
X181027428Y-117140142D01*
X181027428Y-117197285D01*
X181056000Y-117283000D01*
X181084571Y-117311571D01*
X181027428Y-117825857D02*
X181027428Y-117711571D01*
X181056000Y-117654428D01*
X181084571Y-117625857D01*
X181170285Y-117568714D01*
X181284571Y-117540142D01*
X181513142Y-117540142D01*
X181570285Y-117568714D01*
X181598857Y-117597285D01*
X181627428Y-117654428D01*
X181627428Y-117768714D01*
X181598857Y-117825857D01*
X181570285Y-117854428D01*
X181513142Y-117883000D01*
X181370285Y-117883000D01*
X181313142Y-117854428D01*
X181284571Y-117825857D01*
X181256000Y-117768714D01*
X181256000Y-117654428D01*
X181284571Y-117597285D01*
X181313142Y-117568714D01*
X181370285Y-117540142D01*
X181084571Y-118111571D02*
X181056000Y-118140142D01*
X181027428Y-118197285D01*
X181027428Y-118340142D01*
X181056000Y-118397285D01*
X181084571Y-118425857D01*
X181141714Y-118454428D01*
X181198857Y-118454428D01*
X181284571Y-118425857D01*
X181627428Y-118083000D01*
X181627428Y-118454428D01*
X181027428Y-118825857D02*
X181027428Y-118883000D01*
X181056000Y-118940142D01*
X181084571Y-118968714D01*
X181141714Y-118997285D01*
X181256000Y-119025857D01*
X181398857Y-119025857D01*
X181513142Y-118997285D01*
X181570285Y-118968714D01*
X181598857Y-118940142D01*
X181627428Y-118883000D01*
X181627428Y-118825857D01*
X181598857Y-118768714D01*
X181570285Y-118740142D01*
X181513142Y-118711571D01*
X181398857Y-118683000D01*
X181256000Y-118683000D01*
X181141714Y-118711571D01*
X181084571Y-118740142D01*
X181056000Y-118768714D01*
X181027428Y-118825857D01*
X171283285Y-113600571D02*
X171311857Y-113572000D01*
X171340428Y-113486285D01*
X171340428Y-113429142D01*
X171311857Y-113343428D01*
X171254714Y-113286285D01*
X171197571Y-113257714D01*
X171083285Y-113229142D01*
X170997571Y-113229142D01*
X170883285Y-113257714D01*
X170826142Y-113286285D01*
X170769000Y-113343428D01*
X170740428Y-113429142D01*
X170740428Y-113486285D01*
X170769000Y-113572000D01*
X170797571Y-113600571D01*
X170740428Y-114114857D02*
X170740428Y-114000571D01*
X170769000Y-113943428D01*
X170797571Y-113914857D01*
X170883285Y-113857714D01*
X170997571Y-113829142D01*
X171226142Y-113829142D01*
X171283285Y-113857714D01*
X171311857Y-113886285D01*
X171340428Y-113943428D01*
X171340428Y-114057714D01*
X171311857Y-114114857D01*
X171283285Y-114143428D01*
X171226142Y-114172000D01*
X171083285Y-114172000D01*
X171026142Y-114143428D01*
X170997571Y-114114857D01*
X170969000Y-114057714D01*
X170969000Y-113943428D01*
X170997571Y-113886285D01*
X171026142Y-113857714D01*
X171083285Y-113829142D01*
X171340428Y-114743428D02*
X171340428Y-114400571D01*
X171340428Y-114572000D02*
X170740428Y-114572000D01*
X170826142Y-114514857D01*
X170883285Y-114457714D01*
X170911857Y-114400571D01*
X171340428Y-115029142D02*
X171340428Y-115143428D01*
X171311857Y-115200571D01*
X171283285Y-115229142D01*
X171197571Y-115286285D01*
X171083285Y-115314857D01*
X170854714Y-115314857D01*
X170797571Y-115286285D01*
X170769000Y-115257714D01*
X170740428Y-115200571D01*
X170740428Y-115086285D01*
X170769000Y-115029142D01*
X170797571Y-115000571D01*
X170854714Y-114972000D01*
X170997571Y-114972000D01*
X171054714Y-115000571D01*
X171083285Y-115029142D01*
X171111857Y-115086285D01*
X171111857Y-115200571D01*
X171083285Y-115257714D01*
X171054714Y-115286285D01*
X170997571Y-115314857D01*
X161580428Y-132548285D02*
X161609000Y-132576857D01*
X161694714Y-132605428D01*
X161751857Y-132605428D01*
X161837571Y-132576857D01*
X161894714Y-132519714D01*
X161923285Y-132462571D01*
X161951857Y-132348285D01*
X161951857Y-132262571D01*
X161923285Y-132148285D01*
X161894714Y-132091142D01*
X161837571Y-132034000D01*
X161751857Y-132005428D01*
X161694714Y-132005428D01*
X161609000Y-132034000D01*
X161580428Y-132062571D01*
X161066142Y-132005428D02*
X161180428Y-132005428D01*
X161237571Y-132034000D01*
X161266142Y-132062571D01*
X161323285Y-132148285D01*
X161351857Y-132262571D01*
X161351857Y-132491142D01*
X161323285Y-132548285D01*
X161294714Y-132576857D01*
X161237571Y-132605428D01*
X161123285Y-132605428D01*
X161066142Y-132576857D01*
X161037571Y-132548285D01*
X161009000Y-132491142D01*
X161009000Y-132348285D01*
X161037571Y-132291142D01*
X161066142Y-132262571D01*
X161123285Y-132234000D01*
X161237571Y-132234000D01*
X161294714Y-132262571D01*
X161323285Y-132291142D01*
X161351857Y-132348285D01*
X160437571Y-132605428D02*
X160780428Y-132605428D01*
X160609000Y-132605428D02*
X160609000Y-132005428D01*
X160666142Y-132091142D01*
X160723285Y-132148285D01*
X160780428Y-132176857D01*
X160094714Y-132262571D02*
X160151857Y-132234000D01*
X160180428Y-132205428D01*
X160209000Y-132148285D01*
X160209000Y-132119714D01*
X160180428Y-132062571D01*
X160151857Y-132034000D01*
X160094714Y-132005428D01*
X159980428Y-132005428D01*
X159923285Y-132034000D01*
X159894714Y-132062571D01*
X159866142Y-132119714D01*
X159866142Y-132148285D01*
X159894714Y-132205428D01*
X159923285Y-132234000D01*
X159980428Y-132262571D01*
X160094714Y-132262571D01*
X160151857Y-132291142D01*
X160180428Y-132319714D01*
X160209000Y-132376857D01*
X160209000Y-132491142D01*
X160180428Y-132548285D01*
X160151857Y-132576857D01*
X160094714Y-132605428D01*
X159980428Y-132605428D01*
X159923285Y-132576857D01*
X159894714Y-132548285D01*
X159866142Y-132491142D01*
X159866142Y-132376857D01*
X159894714Y-132319714D01*
X159923285Y-132291142D01*
X159980428Y-132262571D01*
X174458285Y-113628571D02*
X174486857Y-113600000D01*
X174515428Y-113514285D01*
X174515428Y-113457142D01*
X174486857Y-113371428D01*
X174429714Y-113314285D01*
X174372571Y-113285714D01*
X174258285Y-113257142D01*
X174172571Y-113257142D01*
X174058285Y-113285714D01*
X174001142Y-113314285D01*
X173944000Y-113371428D01*
X173915428Y-113457142D01*
X173915428Y-113514285D01*
X173944000Y-113600000D01*
X173972571Y-113628571D01*
X173915428Y-114142857D02*
X173915428Y-114028571D01*
X173944000Y-113971428D01*
X173972571Y-113942857D01*
X174058285Y-113885714D01*
X174172571Y-113857142D01*
X174401142Y-113857142D01*
X174458285Y-113885714D01*
X174486857Y-113914285D01*
X174515428Y-113971428D01*
X174515428Y-114085714D01*
X174486857Y-114142857D01*
X174458285Y-114171428D01*
X174401142Y-114200000D01*
X174258285Y-114200000D01*
X174201142Y-114171428D01*
X174172571Y-114142857D01*
X174144000Y-114085714D01*
X174144000Y-113971428D01*
X174172571Y-113914285D01*
X174201142Y-113885714D01*
X174258285Y-113857142D01*
X174515428Y-114771428D02*
X174515428Y-114428571D01*
X174515428Y-114600000D02*
X173915428Y-114600000D01*
X174001142Y-114542857D01*
X174058285Y-114485714D01*
X174086857Y-114428571D01*
X173915428Y-114971428D02*
X173915428Y-115371428D01*
X174515428Y-115114285D01*
X180884428Y-131659285D02*
X180913000Y-131687857D01*
X180998714Y-131716428D01*
X181055857Y-131716428D01*
X181141571Y-131687857D01*
X181198714Y-131630714D01*
X181227285Y-131573571D01*
X181255857Y-131459285D01*
X181255857Y-131373571D01*
X181227285Y-131259285D01*
X181198714Y-131202142D01*
X181141571Y-131145000D01*
X181055857Y-131116428D01*
X180998714Y-131116428D01*
X180913000Y-131145000D01*
X180884428Y-131173571D01*
X180370142Y-131116428D02*
X180484428Y-131116428D01*
X180541571Y-131145000D01*
X180570142Y-131173571D01*
X180627285Y-131259285D01*
X180655857Y-131373571D01*
X180655857Y-131602142D01*
X180627285Y-131659285D01*
X180598714Y-131687857D01*
X180541571Y-131716428D01*
X180427285Y-131716428D01*
X180370142Y-131687857D01*
X180341571Y-131659285D01*
X180313000Y-131602142D01*
X180313000Y-131459285D01*
X180341571Y-131402142D01*
X180370142Y-131373571D01*
X180427285Y-131345000D01*
X180541571Y-131345000D01*
X180598714Y-131373571D01*
X180627285Y-131402142D01*
X180655857Y-131459285D01*
X179741571Y-131716428D02*
X180084428Y-131716428D01*
X179913000Y-131716428D02*
X179913000Y-131116428D01*
X179970142Y-131202142D01*
X180027285Y-131259285D01*
X180084428Y-131287857D01*
X179227285Y-131116428D02*
X179341571Y-131116428D01*
X179398714Y-131145000D01*
X179427285Y-131173571D01*
X179484428Y-131259285D01*
X179513000Y-131373571D01*
X179513000Y-131602142D01*
X179484428Y-131659285D01*
X179455857Y-131687857D01*
X179398714Y-131716428D01*
X179284428Y-131716428D01*
X179227285Y-131687857D01*
X179198714Y-131659285D01*
X179170142Y-131602142D01*
X179170142Y-131459285D01*
X179198714Y-131402142D01*
X179227285Y-131373571D01*
X179284428Y-131345000D01*
X179398714Y-131345000D01*
X179455857Y-131373571D01*
X179484428Y-131402142D01*
X179513000Y-131459285D01*
X179919285Y-120613571D02*
X179947857Y-120585000D01*
X179976428Y-120499285D01*
X179976428Y-120442142D01*
X179947857Y-120356428D01*
X179890714Y-120299285D01*
X179833571Y-120270714D01*
X179719285Y-120242142D01*
X179633571Y-120242142D01*
X179519285Y-120270714D01*
X179462142Y-120299285D01*
X179405000Y-120356428D01*
X179376428Y-120442142D01*
X179376428Y-120499285D01*
X179405000Y-120585000D01*
X179433571Y-120613571D01*
X179376428Y-121127857D02*
X179376428Y-121013571D01*
X179405000Y-120956428D01*
X179433571Y-120927857D01*
X179519285Y-120870714D01*
X179633571Y-120842142D01*
X179862142Y-120842142D01*
X179919285Y-120870714D01*
X179947857Y-120899285D01*
X179976428Y-120956428D01*
X179976428Y-121070714D01*
X179947857Y-121127857D01*
X179919285Y-121156428D01*
X179862142Y-121185000D01*
X179719285Y-121185000D01*
X179662142Y-121156428D01*
X179633571Y-121127857D01*
X179605000Y-121070714D01*
X179605000Y-120956428D01*
X179633571Y-120899285D01*
X179662142Y-120870714D01*
X179719285Y-120842142D01*
X179976428Y-121756428D02*
X179976428Y-121413571D01*
X179976428Y-121585000D02*
X179376428Y-121585000D01*
X179462142Y-121527857D01*
X179519285Y-121470714D01*
X179547857Y-121413571D01*
X179576428Y-122270714D02*
X179976428Y-122270714D01*
X179347857Y-122127857D02*
X179776428Y-121985000D01*
X179776428Y-122356428D01*
X179919285Y-125820571D02*
X179947857Y-125792000D01*
X179976428Y-125706285D01*
X179976428Y-125649142D01*
X179947857Y-125563428D01*
X179890714Y-125506285D01*
X179833571Y-125477714D01*
X179719285Y-125449142D01*
X179633571Y-125449142D01*
X179519285Y-125477714D01*
X179462142Y-125506285D01*
X179405000Y-125563428D01*
X179376428Y-125649142D01*
X179376428Y-125706285D01*
X179405000Y-125792000D01*
X179433571Y-125820571D01*
X179376428Y-126334857D02*
X179376428Y-126220571D01*
X179405000Y-126163428D01*
X179433571Y-126134857D01*
X179519285Y-126077714D01*
X179633571Y-126049142D01*
X179862142Y-126049142D01*
X179919285Y-126077714D01*
X179947857Y-126106285D01*
X179976428Y-126163428D01*
X179976428Y-126277714D01*
X179947857Y-126334857D01*
X179919285Y-126363428D01*
X179862142Y-126392000D01*
X179719285Y-126392000D01*
X179662142Y-126363428D01*
X179633571Y-126334857D01*
X179605000Y-126277714D01*
X179605000Y-126163428D01*
X179633571Y-126106285D01*
X179662142Y-126077714D01*
X179719285Y-126049142D01*
X179976428Y-126963428D02*
X179976428Y-126620571D01*
X179976428Y-126792000D02*
X179376428Y-126792000D01*
X179462142Y-126734857D01*
X179519285Y-126677714D01*
X179547857Y-126620571D01*
X179376428Y-127163428D02*
X179376428Y-127534857D01*
X179605000Y-127334857D01*
X179605000Y-127420571D01*
X179633571Y-127477714D01*
X179662142Y-127506285D01*
X179719285Y-127534857D01*
X179862142Y-127534857D01*
X179919285Y-127506285D01*
X179947857Y-127477714D01*
X179976428Y-127420571D01*
X179976428Y-127249142D01*
X179947857Y-127192000D01*
X179919285Y-127163428D01*
X170357428Y-132548285D02*
X170386000Y-132576857D01*
X170471714Y-132605428D01*
X170528857Y-132605428D01*
X170614571Y-132576857D01*
X170671714Y-132519714D01*
X170700285Y-132462571D01*
X170728857Y-132348285D01*
X170728857Y-132262571D01*
X170700285Y-132148285D01*
X170671714Y-132091142D01*
X170614571Y-132034000D01*
X170528857Y-132005428D01*
X170471714Y-132005428D01*
X170386000Y-132034000D01*
X170357428Y-132062571D01*
X169843142Y-132005428D02*
X169957428Y-132005428D01*
X170014571Y-132034000D01*
X170043142Y-132062571D01*
X170100285Y-132148285D01*
X170128857Y-132262571D01*
X170128857Y-132491142D01*
X170100285Y-132548285D01*
X170071714Y-132576857D01*
X170014571Y-132605428D01*
X169900285Y-132605428D01*
X169843142Y-132576857D01*
X169814571Y-132548285D01*
X169786000Y-132491142D01*
X169786000Y-132348285D01*
X169814571Y-132291142D01*
X169843142Y-132262571D01*
X169900285Y-132234000D01*
X170014571Y-132234000D01*
X170071714Y-132262571D01*
X170100285Y-132291142D01*
X170128857Y-132348285D01*
X169214571Y-132605428D02*
X169557428Y-132605428D01*
X169386000Y-132605428D02*
X169386000Y-132005428D01*
X169443142Y-132091142D01*
X169500285Y-132148285D01*
X169557428Y-132176857D01*
X168986000Y-132062571D02*
X168957428Y-132034000D01*
X168900285Y-132005428D01*
X168757428Y-132005428D01*
X168700285Y-132034000D01*
X168671714Y-132062571D01*
X168643142Y-132119714D01*
X168643142Y-132176857D01*
X168671714Y-132262571D01*
X169014571Y-132605428D01*
X168643142Y-132605428D01*
X168424428Y-129627285D02*
X168453000Y-129655857D01*
X168538714Y-129684428D01*
X168595857Y-129684428D01*
X168681571Y-129655857D01*
X168738714Y-129598714D01*
X168767285Y-129541571D01*
X168795857Y-129427285D01*
X168795857Y-129341571D01*
X168767285Y-129227285D01*
X168738714Y-129170142D01*
X168681571Y-129113000D01*
X168595857Y-129084428D01*
X168538714Y-129084428D01*
X168453000Y-129113000D01*
X168424428Y-129141571D01*
X167910142Y-129084428D02*
X168024428Y-129084428D01*
X168081571Y-129113000D01*
X168110142Y-129141571D01*
X168167285Y-129227285D01*
X168195857Y-129341571D01*
X168195857Y-129570142D01*
X168167285Y-129627285D01*
X168138714Y-129655857D01*
X168081571Y-129684428D01*
X167967285Y-129684428D01*
X167910142Y-129655857D01*
X167881571Y-129627285D01*
X167853000Y-129570142D01*
X167853000Y-129427285D01*
X167881571Y-129370142D01*
X167910142Y-129341571D01*
X167967285Y-129313000D01*
X168081571Y-129313000D01*
X168138714Y-129341571D01*
X168167285Y-129370142D01*
X168195857Y-129427285D01*
X167281571Y-129684428D02*
X167624428Y-129684428D01*
X167453000Y-129684428D02*
X167453000Y-129084428D01*
X167510142Y-129170142D01*
X167567285Y-129227285D01*
X167624428Y-129255857D01*
X166710142Y-129684428D02*
X167053000Y-129684428D01*
X166881571Y-129684428D02*
X166881571Y-129084428D01*
X166938714Y-129170142D01*
X166995857Y-129227285D01*
X167053000Y-129255857D01*
X156260428Y-113244285D02*
X156289000Y-113272857D01*
X156374714Y-113301428D01*
X156431857Y-113301428D01*
X156517571Y-113272857D01*
X156574714Y-113215714D01*
X156603285Y-113158571D01*
X156631857Y-113044285D01*
X156631857Y-112958571D01*
X156603285Y-112844285D01*
X156574714Y-112787142D01*
X156517571Y-112730000D01*
X156431857Y-112701428D01*
X156374714Y-112701428D01*
X156289000Y-112730000D01*
X156260428Y-112758571D01*
X155746142Y-112701428D02*
X155860428Y-112701428D01*
X155917571Y-112730000D01*
X155946142Y-112758571D01*
X156003285Y-112844285D01*
X156031857Y-112958571D01*
X156031857Y-113187142D01*
X156003285Y-113244285D01*
X155974714Y-113272857D01*
X155917571Y-113301428D01*
X155803285Y-113301428D01*
X155746142Y-113272857D01*
X155717571Y-113244285D01*
X155689000Y-113187142D01*
X155689000Y-113044285D01*
X155717571Y-112987142D01*
X155746142Y-112958571D01*
X155803285Y-112930000D01*
X155917571Y-112930000D01*
X155974714Y-112958571D01*
X156003285Y-112987142D01*
X156031857Y-113044285D01*
X155317571Y-112701428D02*
X155260428Y-112701428D01*
X155203285Y-112730000D01*
X155174714Y-112758571D01*
X155146142Y-112815714D01*
X155117571Y-112930000D01*
X155117571Y-113072857D01*
X155146142Y-113187142D01*
X155174714Y-113244285D01*
X155203285Y-113272857D01*
X155260428Y-113301428D01*
X155317571Y-113301428D01*
X155374714Y-113272857D01*
X155403285Y-113244285D01*
X155431857Y-113187142D01*
X155460428Y-113072857D01*
X155460428Y-112930000D01*
X155431857Y-112815714D01*
X155403285Y-112758571D01*
X155374714Y-112730000D01*
X155317571Y-112701428D01*
X154831857Y-113301428D02*
X154717571Y-113301428D01*
X154660428Y-113272857D01*
X154631857Y-113244285D01*
X154574714Y-113158571D01*
X154546142Y-113044285D01*
X154546142Y-112815714D01*
X154574714Y-112758571D01*
X154603285Y-112730000D01*
X154660428Y-112701428D01*
X154774714Y-112701428D01*
X154831857Y-112730000D01*
X154860428Y-112758571D01*
X154889000Y-112815714D01*
X154889000Y-112958571D01*
X154860428Y-113015714D01*
X154831857Y-113044285D01*
X154774714Y-113072857D01*
X154660428Y-113072857D01*
X154603285Y-113044285D01*
X154574714Y-113015714D01*
X154546142Y-112958571D01*
X175541428Y-132802285D02*
X175570000Y-132830857D01*
X175655714Y-132859428D01*
X175712857Y-132859428D01*
X175798571Y-132830857D01*
X175855714Y-132773714D01*
X175884285Y-132716571D01*
X175912857Y-132602285D01*
X175912857Y-132516571D01*
X175884285Y-132402285D01*
X175855714Y-132345142D01*
X175798571Y-132288000D01*
X175712857Y-132259428D01*
X175655714Y-132259428D01*
X175570000Y-132288000D01*
X175541428Y-132316571D01*
X175027142Y-132259428D02*
X175141428Y-132259428D01*
X175198571Y-132288000D01*
X175227142Y-132316571D01*
X175284285Y-132402285D01*
X175312857Y-132516571D01*
X175312857Y-132745142D01*
X175284285Y-132802285D01*
X175255714Y-132830857D01*
X175198571Y-132859428D01*
X175084285Y-132859428D01*
X175027142Y-132830857D01*
X174998571Y-132802285D01*
X174970000Y-132745142D01*
X174970000Y-132602285D01*
X174998571Y-132545142D01*
X175027142Y-132516571D01*
X175084285Y-132488000D01*
X175198571Y-132488000D01*
X175255714Y-132516571D01*
X175284285Y-132545142D01*
X175312857Y-132602285D01*
X174598571Y-132259428D02*
X174541428Y-132259428D01*
X174484285Y-132288000D01*
X174455714Y-132316571D01*
X174427142Y-132373714D01*
X174398571Y-132488000D01*
X174398571Y-132630857D01*
X174427142Y-132745142D01*
X174455714Y-132802285D01*
X174484285Y-132830857D01*
X174541428Y-132859428D01*
X174598571Y-132859428D01*
X174655714Y-132830857D01*
X174684285Y-132802285D01*
X174712857Y-132745142D01*
X174741428Y-132630857D01*
X174741428Y-132488000D01*
X174712857Y-132373714D01*
X174684285Y-132316571D01*
X174655714Y-132288000D01*
X174598571Y-132259428D01*
X173884285Y-132259428D02*
X173998571Y-132259428D01*
X174055714Y-132288000D01*
X174084285Y-132316571D01*
X174141428Y-132402285D01*
X174170000Y-132516571D01*
X174170000Y-132745142D01*
X174141428Y-132802285D01*
X174112857Y-132830857D01*
X174055714Y-132859428D01*
X173941428Y-132859428D01*
X173884285Y-132830857D01*
X173855714Y-132802285D01*
X173827142Y-132745142D01*
X173827142Y-132602285D01*
X173855714Y-132545142D01*
X173884285Y-132516571D01*
X173941428Y-132488000D01*
X174055714Y-132488000D01*
X174112857Y-132516571D01*
X174141428Y-132545142D01*
X174170000Y-132602285D01*
X162088428Y-127722285D02*
X162117000Y-127750857D01*
X162202714Y-127779428D01*
X162259857Y-127779428D01*
X162345571Y-127750857D01*
X162402714Y-127693714D01*
X162431285Y-127636571D01*
X162459857Y-127522285D01*
X162459857Y-127436571D01*
X162431285Y-127322285D01*
X162402714Y-127265142D01*
X162345571Y-127208000D01*
X162259857Y-127179428D01*
X162202714Y-127179428D01*
X162117000Y-127208000D01*
X162088428Y-127236571D01*
X161574142Y-127179428D02*
X161688428Y-127179428D01*
X161745571Y-127208000D01*
X161774142Y-127236571D01*
X161831285Y-127322285D01*
X161859857Y-127436571D01*
X161859857Y-127665142D01*
X161831285Y-127722285D01*
X161802714Y-127750857D01*
X161745571Y-127779428D01*
X161631285Y-127779428D01*
X161574142Y-127750857D01*
X161545571Y-127722285D01*
X161517000Y-127665142D01*
X161517000Y-127522285D01*
X161545571Y-127465142D01*
X161574142Y-127436571D01*
X161631285Y-127408000D01*
X161745571Y-127408000D01*
X161802714Y-127436571D01*
X161831285Y-127465142D01*
X161859857Y-127522285D01*
X161145571Y-127179428D02*
X161088428Y-127179428D01*
X161031285Y-127208000D01*
X161002714Y-127236571D01*
X160974142Y-127293714D01*
X160945571Y-127408000D01*
X160945571Y-127550857D01*
X160974142Y-127665142D01*
X161002714Y-127722285D01*
X161031285Y-127750857D01*
X161088428Y-127779428D01*
X161145571Y-127779428D01*
X161202714Y-127750857D01*
X161231285Y-127722285D01*
X161259857Y-127665142D01*
X161288428Y-127550857D01*
X161288428Y-127408000D01*
X161259857Y-127293714D01*
X161231285Y-127236571D01*
X161202714Y-127208000D01*
X161145571Y-127179428D01*
X160402714Y-127179428D02*
X160688428Y-127179428D01*
X160717000Y-127465142D01*
X160688428Y-127436571D01*
X160631285Y-127408000D01*
X160488428Y-127408000D01*
X160431285Y-127436571D01*
X160402714Y-127465142D01*
X160374142Y-127522285D01*
X160374142Y-127665142D01*
X160402714Y-127722285D01*
X160431285Y-127750857D01*
X160488428Y-127779428D01*
X160631285Y-127779428D01*
X160688428Y-127750857D01*
X160717000Y-127722285D01*
X156260428Y-119594285D02*
X156289000Y-119622857D01*
X156374714Y-119651428D01*
X156431857Y-119651428D01*
X156517571Y-119622857D01*
X156574714Y-119565714D01*
X156603285Y-119508571D01*
X156631857Y-119394285D01*
X156631857Y-119308571D01*
X156603285Y-119194285D01*
X156574714Y-119137142D01*
X156517571Y-119080000D01*
X156431857Y-119051428D01*
X156374714Y-119051428D01*
X156289000Y-119080000D01*
X156260428Y-119108571D01*
X155746142Y-119051428D02*
X155860428Y-119051428D01*
X155917571Y-119080000D01*
X155946142Y-119108571D01*
X156003285Y-119194285D01*
X156031857Y-119308571D01*
X156031857Y-119537142D01*
X156003285Y-119594285D01*
X155974714Y-119622857D01*
X155917571Y-119651428D01*
X155803285Y-119651428D01*
X155746142Y-119622857D01*
X155717571Y-119594285D01*
X155689000Y-119537142D01*
X155689000Y-119394285D01*
X155717571Y-119337142D01*
X155746142Y-119308571D01*
X155803285Y-119280000D01*
X155917571Y-119280000D01*
X155974714Y-119308571D01*
X156003285Y-119337142D01*
X156031857Y-119394285D01*
X155317571Y-119051428D02*
X155260428Y-119051428D01*
X155203285Y-119080000D01*
X155174714Y-119108571D01*
X155146142Y-119165714D01*
X155117571Y-119280000D01*
X155117571Y-119422857D01*
X155146142Y-119537142D01*
X155174714Y-119594285D01*
X155203285Y-119622857D01*
X155260428Y-119651428D01*
X155317571Y-119651428D01*
X155374714Y-119622857D01*
X155403285Y-119594285D01*
X155431857Y-119537142D01*
X155460428Y-119422857D01*
X155460428Y-119280000D01*
X155431857Y-119165714D01*
X155403285Y-119108571D01*
X155374714Y-119080000D01*
X155317571Y-119051428D01*
X154917571Y-119051428D02*
X154546142Y-119051428D01*
X154746142Y-119280000D01*
X154660428Y-119280000D01*
X154603285Y-119308571D01*
X154574714Y-119337142D01*
X154546142Y-119394285D01*
X154546142Y-119537142D01*
X154574714Y-119594285D01*
X154603285Y-119622857D01*
X154660428Y-119651428D01*
X154831857Y-119651428D01*
X154889000Y-119622857D01*
X154917571Y-119594285D01*
X186091428Y-99401285D02*
X186120000Y-99429857D01*
X186205714Y-99458428D01*
X186262857Y-99458428D01*
X186348571Y-99429857D01*
X186405714Y-99372714D01*
X186434285Y-99315571D01*
X186462857Y-99201285D01*
X186462857Y-99115571D01*
X186434285Y-99001285D01*
X186405714Y-98944142D01*
X186348571Y-98887000D01*
X186262857Y-98858428D01*
X186205714Y-98858428D01*
X186120000Y-98887000D01*
X186091428Y-98915571D01*
X185862857Y-98915571D02*
X185834285Y-98887000D01*
X185777142Y-98858428D01*
X185634285Y-98858428D01*
X185577142Y-98887000D01*
X185548571Y-98915571D01*
X185520000Y-98972714D01*
X185520000Y-99029857D01*
X185548571Y-99115571D01*
X185891428Y-99458428D01*
X185520000Y-99458428D01*
X184948571Y-99458428D02*
X185291428Y-99458428D01*
X185120000Y-99458428D02*
X185120000Y-98858428D01*
X185177142Y-98944142D01*
X185234285Y-99001285D01*
X185291428Y-99029857D01*
X184577142Y-98858428D02*
X184520000Y-98858428D01*
X184462857Y-98887000D01*
X184434285Y-98915571D01*
X184405714Y-98972714D01*
X184377142Y-99087000D01*
X184377142Y-99229857D01*
X184405714Y-99344142D01*
X184434285Y-99401285D01*
X184462857Y-99429857D01*
X184520000Y-99458428D01*
X184577142Y-99458428D01*
X184634285Y-99429857D01*
X184662857Y-99401285D01*
X184691428Y-99344142D01*
X184720000Y-99229857D01*
X184720000Y-99087000D01*
X184691428Y-98972714D01*
X184662857Y-98915571D01*
X184634285Y-98887000D01*
X184577142Y-98858428D01*
X172756428Y-101433285D02*
X172785000Y-101461857D01*
X172870714Y-101490428D01*
X172927857Y-101490428D01*
X173013571Y-101461857D01*
X173070714Y-101404714D01*
X173099285Y-101347571D01*
X173127857Y-101233285D01*
X173127857Y-101147571D01*
X173099285Y-101033285D01*
X173070714Y-100976142D01*
X173013571Y-100919000D01*
X172927857Y-100890428D01*
X172870714Y-100890428D01*
X172785000Y-100919000D01*
X172756428Y-100947571D01*
X172527857Y-100947571D02*
X172499285Y-100919000D01*
X172442142Y-100890428D01*
X172299285Y-100890428D01*
X172242142Y-100919000D01*
X172213571Y-100947571D01*
X172185000Y-101004714D01*
X172185000Y-101061857D01*
X172213571Y-101147571D01*
X172556428Y-101490428D01*
X172185000Y-101490428D01*
X171813571Y-100890428D02*
X171756428Y-100890428D01*
X171699285Y-100919000D01*
X171670714Y-100947571D01*
X171642142Y-101004714D01*
X171613571Y-101119000D01*
X171613571Y-101261857D01*
X171642142Y-101376142D01*
X171670714Y-101433285D01*
X171699285Y-101461857D01*
X171756428Y-101490428D01*
X171813571Y-101490428D01*
X171870714Y-101461857D01*
X171899285Y-101433285D01*
X171927857Y-101376142D01*
X171956428Y-101261857D01*
X171956428Y-101119000D01*
X171927857Y-101004714D01*
X171899285Y-100947571D01*
X171870714Y-100919000D01*
X171813571Y-100890428D01*
X171327857Y-101490428D02*
X171213571Y-101490428D01*
X171156428Y-101461857D01*
X171127857Y-101433285D01*
X171070714Y-101347571D01*
X171042142Y-101233285D01*
X171042142Y-101004714D01*
X171070714Y-100947571D01*
X171099285Y-100919000D01*
X171156428Y-100890428D01*
X171270714Y-100890428D01*
X171327857Y-100919000D01*
X171356428Y-100947571D01*
X171385000Y-101004714D01*
X171385000Y-101147571D01*
X171356428Y-101204714D01*
X171327857Y-101233285D01*
X171270714Y-101261857D01*
X171156428Y-101261857D01*
X171099285Y-101233285D01*
X171070714Y-101204714D01*
X171042142Y-101147571D01*
X186091428Y-105751285D02*
X186120000Y-105779857D01*
X186205714Y-105808428D01*
X186262857Y-105808428D01*
X186348571Y-105779857D01*
X186405714Y-105722714D01*
X186434285Y-105665571D01*
X186462857Y-105551285D01*
X186462857Y-105465571D01*
X186434285Y-105351285D01*
X186405714Y-105294142D01*
X186348571Y-105237000D01*
X186262857Y-105208428D01*
X186205714Y-105208428D01*
X186120000Y-105237000D01*
X186091428Y-105265571D01*
X185862857Y-105265571D02*
X185834285Y-105237000D01*
X185777142Y-105208428D01*
X185634285Y-105208428D01*
X185577142Y-105237000D01*
X185548571Y-105265571D01*
X185520000Y-105322714D01*
X185520000Y-105379857D01*
X185548571Y-105465571D01*
X185891428Y-105808428D01*
X185520000Y-105808428D01*
X185148571Y-105208428D02*
X185091428Y-105208428D01*
X185034285Y-105237000D01*
X185005714Y-105265571D01*
X184977142Y-105322714D01*
X184948571Y-105437000D01*
X184948571Y-105579857D01*
X184977142Y-105694142D01*
X185005714Y-105751285D01*
X185034285Y-105779857D01*
X185091428Y-105808428D01*
X185148571Y-105808428D01*
X185205714Y-105779857D01*
X185234285Y-105751285D01*
X185262857Y-105694142D01*
X185291428Y-105579857D01*
X185291428Y-105437000D01*
X185262857Y-105322714D01*
X185234285Y-105265571D01*
X185205714Y-105237000D01*
X185148571Y-105208428D01*
X184748571Y-105208428D02*
X184348571Y-105208428D01*
X184605714Y-105808428D01*
X180808285Y-111469571D02*
X180836857Y-111441000D01*
X180865428Y-111355285D01*
X180865428Y-111298142D01*
X180836857Y-111212428D01*
X180779714Y-111155285D01*
X180722571Y-111126714D01*
X180608285Y-111098142D01*
X180522571Y-111098142D01*
X180408285Y-111126714D01*
X180351142Y-111155285D01*
X180294000Y-111212428D01*
X180265428Y-111298142D01*
X180265428Y-111355285D01*
X180294000Y-111441000D01*
X180322571Y-111469571D01*
X180322571Y-111698142D02*
X180294000Y-111726714D01*
X180265428Y-111783857D01*
X180265428Y-111926714D01*
X180294000Y-111983857D01*
X180322571Y-112012428D01*
X180379714Y-112041000D01*
X180436857Y-112041000D01*
X180522571Y-112012428D01*
X180865428Y-111669571D01*
X180865428Y-112041000D01*
X180265428Y-112412428D02*
X180265428Y-112469571D01*
X180294000Y-112526714D01*
X180322571Y-112555285D01*
X180379714Y-112583857D01*
X180494000Y-112612428D01*
X180636857Y-112612428D01*
X180751142Y-112583857D01*
X180808285Y-112555285D01*
X180836857Y-112526714D01*
X180865428Y-112469571D01*
X180865428Y-112412428D01*
X180836857Y-112355285D01*
X180808285Y-112326714D01*
X180751142Y-112298142D01*
X180636857Y-112269571D01*
X180494000Y-112269571D01*
X180379714Y-112298142D01*
X180322571Y-112326714D01*
X180294000Y-112355285D01*
X180265428Y-112412428D01*
X180265428Y-113126714D02*
X180265428Y-113012428D01*
X180294000Y-112955285D01*
X180322571Y-112926714D01*
X180408285Y-112869571D01*
X180522571Y-112841000D01*
X180751142Y-112841000D01*
X180808285Y-112869571D01*
X180836857Y-112898142D01*
X180865428Y-112955285D01*
X180865428Y-113069571D01*
X180836857Y-113126714D01*
X180808285Y-113155285D01*
X180751142Y-113183857D01*
X180608285Y-113183857D01*
X180551142Y-113155285D01*
X180522571Y-113126714D01*
X180494000Y-113069571D01*
X180494000Y-112955285D01*
X180522571Y-112898142D01*
X180551142Y-112869571D01*
X180608285Y-112841000D01*
X183094285Y-96709571D02*
X183122857Y-96681000D01*
X183151428Y-96595285D01*
X183151428Y-96538142D01*
X183122857Y-96452428D01*
X183065714Y-96395285D01*
X183008571Y-96366714D01*
X182894285Y-96338142D01*
X182808571Y-96338142D01*
X182694285Y-96366714D01*
X182637142Y-96395285D01*
X182580000Y-96452428D01*
X182551428Y-96538142D01*
X182551428Y-96595285D01*
X182580000Y-96681000D01*
X182608571Y-96709571D01*
X182608571Y-96938142D02*
X182580000Y-96966714D01*
X182551428Y-97023857D01*
X182551428Y-97166714D01*
X182580000Y-97223857D01*
X182608571Y-97252428D01*
X182665714Y-97281000D01*
X182722857Y-97281000D01*
X182808571Y-97252428D01*
X183151428Y-96909571D01*
X183151428Y-97281000D01*
X182551428Y-97652428D02*
X182551428Y-97709571D01*
X182580000Y-97766714D01*
X182608571Y-97795285D01*
X182665714Y-97823857D01*
X182780000Y-97852428D01*
X182922857Y-97852428D01*
X183037142Y-97823857D01*
X183094285Y-97795285D01*
X183122857Y-97766714D01*
X183151428Y-97709571D01*
X183151428Y-97652428D01*
X183122857Y-97595285D01*
X183094285Y-97566714D01*
X183037142Y-97538142D01*
X182922857Y-97509571D01*
X182780000Y-97509571D01*
X182665714Y-97538142D01*
X182608571Y-97566714D01*
X182580000Y-97595285D01*
X182551428Y-97652428D01*
X182551428Y-98395285D02*
X182551428Y-98109571D01*
X182837142Y-98081000D01*
X182808571Y-98109571D01*
X182780000Y-98166714D01*
X182780000Y-98309571D01*
X182808571Y-98366714D01*
X182837142Y-98395285D01*
X182894285Y-98423857D01*
X183037142Y-98423857D01*
X183094285Y-98395285D01*
X183122857Y-98366714D01*
X183151428Y-98309571D01*
X183151428Y-98166714D01*
X183122857Y-98109571D01*
X183094285Y-98081000D01*
X182332285Y-111469571D02*
X182360857Y-111441000D01*
X182389428Y-111355285D01*
X182389428Y-111298142D01*
X182360857Y-111212428D01*
X182303714Y-111155285D01*
X182246571Y-111126714D01*
X182132285Y-111098142D01*
X182046571Y-111098142D01*
X181932285Y-111126714D01*
X181875142Y-111155285D01*
X181818000Y-111212428D01*
X181789428Y-111298142D01*
X181789428Y-111355285D01*
X181818000Y-111441000D01*
X181846571Y-111469571D01*
X181846571Y-111698142D02*
X181818000Y-111726714D01*
X181789428Y-111783857D01*
X181789428Y-111926714D01*
X181818000Y-111983857D01*
X181846571Y-112012428D01*
X181903714Y-112041000D01*
X181960857Y-112041000D01*
X182046571Y-112012428D01*
X182389428Y-111669571D01*
X182389428Y-112041000D01*
X181789428Y-112412428D02*
X181789428Y-112469571D01*
X181818000Y-112526714D01*
X181846571Y-112555285D01*
X181903714Y-112583857D01*
X182018000Y-112612428D01*
X182160857Y-112612428D01*
X182275142Y-112583857D01*
X182332285Y-112555285D01*
X182360857Y-112526714D01*
X182389428Y-112469571D01*
X182389428Y-112412428D01*
X182360857Y-112355285D01*
X182332285Y-112326714D01*
X182275142Y-112298142D01*
X182160857Y-112269571D01*
X182018000Y-112269571D01*
X181903714Y-112298142D01*
X181846571Y-112326714D01*
X181818000Y-112355285D01*
X181789428Y-112412428D01*
X181989428Y-113126714D02*
X182389428Y-113126714D01*
X181760857Y-112983857D02*
X182189428Y-112841000D01*
X182189428Y-113212428D01*
X181570285Y-96723571D02*
X181598857Y-96695000D01*
X181627428Y-96609285D01*
X181627428Y-96552142D01*
X181598857Y-96466428D01*
X181541714Y-96409285D01*
X181484571Y-96380714D01*
X181370285Y-96352142D01*
X181284571Y-96352142D01*
X181170285Y-96380714D01*
X181113142Y-96409285D01*
X181056000Y-96466428D01*
X181027428Y-96552142D01*
X181027428Y-96609285D01*
X181056000Y-96695000D01*
X181084571Y-96723571D01*
X181084571Y-96952142D02*
X181056000Y-96980714D01*
X181027428Y-97037857D01*
X181027428Y-97180714D01*
X181056000Y-97237857D01*
X181084571Y-97266428D01*
X181141714Y-97295000D01*
X181198857Y-97295000D01*
X181284571Y-97266428D01*
X181627428Y-96923571D01*
X181627428Y-97295000D01*
X181027428Y-97666428D02*
X181027428Y-97723571D01*
X181056000Y-97780714D01*
X181084571Y-97809285D01*
X181141714Y-97837857D01*
X181256000Y-97866428D01*
X181398857Y-97866428D01*
X181513142Y-97837857D01*
X181570285Y-97809285D01*
X181598857Y-97780714D01*
X181627428Y-97723571D01*
X181627428Y-97666428D01*
X181598857Y-97609285D01*
X181570285Y-97580714D01*
X181513142Y-97552142D01*
X181398857Y-97523571D01*
X181256000Y-97523571D01*
X181141714Y-97552142D01*
X181084571Y-97580714D01*
X181056000Y-97609285D01*
X181027428Y-97666428D01*
X181027428Y-98066428D02*
X181027428Y-98437857D01*
X181256000Y-98237857D01*
X181256000Y-98323571D01*
X181284571Y-98380714D01*
X181313142Y-98409285D01*
X181370285Y-98437857D01*
X181513142Y-98437857D01*
X181570285Y-98409285D01*
X181598857Y-98380714D01*
X181627428Y-98323571D01*
X181627428Y-98152142D01*
X181598857Y-98095000D01*
X181570285Y-98066428D01*
X172657428Y-109053285D02*
X172686000Y-109081857D01*
X172771714Y-109110428D01*
X172828857Y-109110428D01*
X172914571Y-109081857D01*
X172971714Y-109024714D01*
X173000285Y-108967571D01*
X173028857Y-108853285D01*
X173028857Y-108767571D01*
X173000285Y-108653285D01*
X172971714Y-108596142D01*
X172914571Y-108539000D01*
X172828857Y-108510428D01*
X172771714Y-108510428D01*
X172686000Y-108539000D01*
X172657428Y-108567571D01*
X172428857Y-108567571D02*
X172400285Y-108539000D01*
X172343142Y-108510428D01*
X172200285Y-108510428D01*
X172143142Y-108539000D01*
X172114571Y-108567571D01*
X172086000Y-108624714D01*
X172086000Y-108681857D01*
X172114571Y-108767571D01*
X172457428Y-109110428D01*
X172086000Y-109110428D01*
X171714571Y-108510428D02*
X171657428Y-108510428D01*
X171600285Y-108539000D01*
X171571714Y-108567571D01*
X171543142Y-108624714D01*
X171514571Y-108739000D01*
X171514571Y-108881857D01*
X171543142Y-108996142D01*
X171571714Y-109053285D01*
X171600285Y-109081857D01*
X171657428Y-109110428D01*
X171714571Y-109110428D01*
X171771714Y-109081857D01*
X171800285Y-109053285D01*
X171828857Y-108996142D01*
X171857428Y-108881857D01*
X171857428Y-108739000D01*
X171828857Y-108624714D01*
X171800285Y-108567571D01*
X171771714Y-108539000D01*
X171714571Y-108510428D01*
X171286000Y-108567571D02*
X171257428Y-108539000D01*
X171200285Y-108510428D01*
X171057428Y-108510428D01*
X171000285Y-108539000D01*
X170971714Y-108567571D01*
X170943142Y-108624714D01*
X170943142Y-108681857D01*
X170971714Y-108767571D01*
X171314571Y-109110428D01*
X170943142Y-109110428D01*
X183856285Y-111469571D02*
X183884857Y-111441000D01*
X183913428Y-111355285D01*
X183913428Y-111298142D01*
X183884857Y-111212428D01*
X183827714Y-111155285D01*
X183770571Y-111126714D01*
X183656285Y-111098142D01*
X183570571Y-111098142D01*
X183456285Y-111126714D01*
X183399142Y-111155285D01*
X183342000Y-111212428D01*
X183313428Y-111298142D01*
X183313428Y-111355285D01*
X183342000Y-111441000D01*
X183370571Y-111469571D01*
X183370571Y-111698142D02*
X183342000Y-111726714D01*
X183313428Y-111783857D01*
X183313428Y-111926714D01*
X183342000Y-111983857D01*
X183370571Y-112012428D01*
X183427714Y-112041000D01*
X183484857Y-112041000D01*
X183570571Y-112012428D01*
X183913428Y-111669571D01*
X183913428Y-112041000D01*
X183313428Y-112412428D02*
X183313428Y-112469571D01*
X183342000Y-112526714D01*
X183370571Y-112555285D01*
X183427714Y-112583857D01*
X183542000Y-112612428D01*
X183684857Y-112612428D01*
X183799142Y-112583857D01*
X183856285Y-112555285D01*
X183884857Y-112526714D01*
X183913428Y-112469571D01*
X183913428Y-112412428D01*
X183884857Y-112355285D01*
X183856285Y-112326714D01*
X183799142Y-112298142D01*
X183684857Y-112269571D01*
X183542000Y-112269571D01*
X183427714Y-112298142D01*
X183370571Y-112326714D01*
X183342000Y-112355285D01*
X183313428Y-112412428D01*
X183913428Y-113183857D02*
X183913428Y-112841000D01*
X183913428Y-113012428D02*
X183313428Y-113012428D01*
X183399142Y-112955285D01*
X183456285Y-112898142D01*
X183484857Y-112841000D01*
X169089428Y-122923428D02*
X169575142Y-122923428D01*
X169632285Y-122952000D01*
X169660857Y-122980571D01*
X169689428Y-123037714D01*
X169689428Y-123152000D01*
X169660857Y-123209142D01*
X169632285Y-123237714D01*
X169575142Y-123266285D01*
X169089428Y-123266285D01*
X169089428Y-123809142D02*
X169089428Y-123694857D01*
X169118000Y-123637714D01*
X169146571Y-123609142D01*
X169232285Y-123552000D01*
X169346571Y-123523428D01*
X169575142Y-123523428D01*
X169632285Y-123552000D01*
X169660857Y-123580571D01*
X169689428Y-123637714D01*
X169689428Y-123752000D01*
X169660857Y-123809142D01*
X169632285Y-123837714D01*
X169575142Y-123866285D01*
X169432285Y-123866285D01*
X169375142Y-123837714D01*
X169346571Y-123809142D01*
X169318000Y-123752000D01*
X169318000Y-123637714D01*
X169346571Y-123580571D01*
X169375142Y-123552000D01*
X169432285Y-123523428D01*
X169089428Y-124237714D02*
X169089428Y-124294857D01*
X169118000Y-124352000D01*
X169146571Y-124380571D01*
X169203714Y-124409142D01*
X169318000Y-124437714D01*
X169460857Y-124437714D01*
X169575142Y-124409142D01*
X169632285Y-124380571D01*
X169660857Y-124352000D01*
X169689428Y-124294857D01*
X169689428Y-124237714D01*
X169660857Y-124180571D01*
X169632285Y-124152000D01*
X169575142Y-124123428D01*
X169460857Y-124094857D01*
X169318000Y-124094857D01*
X169203714Y-124123428D01*
X169146571Y-124152000D01*
X169118000Y-124180571D01*
X169089428Y-124237714D01*
X169146571Y-124666285D02*
X169118000Y-124694857D01*
X169089428Y-124752000D01*
X169089428Y-124894857D01*
X169118000Y-124952000D01*
X169146571Y-124980571D01*
X169203714Y-125009142D01*
X169260857Y-125009142D01*
X169346571Y-124980571D01*
X169689428Y-124637714D01*
X169689428Y-125009142D01*
X205000428Y-113682428D02*
X205200428Y-113396714D01*
X205343285Y-113682428D02*
X205343285Y-113082428D01*
X205114714Y-113082428D01*
X205057571Y-113111000D01*
X205029000Y-113139571D01*
X205000428Y-113196714D01*
X205000428Y-113282428D01*
X205029000Y-113339571D01*
X205057571Y-113368142D01*
X205114714Y-113396714D01*
X205343285Y-113396714D01*
X204486142Y-113282428D02*
X204486142Y-113682428D01*
X204629000Y-113053857D02*
X204771857Y-113482428D01*
X204400428Y-113482428D01*
X204057571Y-113082428D02*
X204000428Y-113082428D01*
X203943285Y-113111000D01*
X203914714Y-113139571D01*
X203886142Y-113196714D01*
X203857571Y-113311000D01*
X203857571Y-113453857D01*
X203886142Y-113568142D01*
X203914714Y-113625285D01*
X203943285Y-113653857D01*
X204000428Y-113682428D01*
X204057571Y-113682428D01*
X204114714Y-113653857D01*
X204143285Y-113625285D01*
X204171857Y-113568142D01*
X204200428Y-113453857D01*
X204200428Y-113311000D01*
X204171857Y-113196714D01*
X204143285Y-113139571D01*
X204114714Y-113111000D01*
X204057571Y-113082428D01*
X203657571Y-113082428D02*
X203286142Y-113082428D01*
X203486142Y-113311000D01*
X203400428Y-113311000D01*
X203343285Y-113339571D01*
X203314714Y-113368142D01*
X203286142Y-113425285D01*
X203286142Y-113568142D01*
X203314714Y-113625285D01*
X203343285Y-113653857D01*
X203400428Y-113682428D01*
X203571857Y-113682428D01*
X203629000Y-113653857D01*
X203657571Y-113625285D01*
X201340428Y-113555428D02*
X201540428Y-113269714D01*
X201683285Y-113555428D02*
X201683285Y-112955428D01*
X201454714Y-112955428D01*
X201397571Y-112984000D01*
X201369000Y-113012571D01*
X201340428Y-113069714D01*
X201340428Y-113155428D01*
X201369000Y-113212571D01*
X201397571Y-113241142D01*
X201454714Y-113269714D01*
X201683285Y-113269714D01*
X200826142Y-113155428D02*
X200826142Y-113555428D01*
X200969000Y-112926857D02*
X201111857Y-113355428D01*
X200740428Y-113355428D01*
X200397571Y-112955428D02*
X200340428Y-112955428D01*
X200283285Y-112984000D01*
X200254714Y-113012571D01*
X200226142Y-113069714D01*
X200197571Y-113184000D01*
X200197571Y-113326857D01*
X200226142Y-113441142D01*
X200254714Y-113498285D01*
X200283285Y-113526857D01*
X200340428Y-113555428D01*
X200397571Y-113555428D01*
X200454714Y-113526857D01*
X200483285Y-113498285D01*
X200511857Y-113441142D01*
X200540428Y-113326857D01*
X200540428Y-113184000D01*
X200511857Y-113069714D01*
X200483285Y-113012571D01*
X200454714Y-112984000D01*
X200397571Y-112955428D01*
X199969000Y-113012571D02*
X199940428Y-112984000D01*
X199883285Y-112955428D01*
X199740428Y-112955428D01*
X199683285Y-112984000D01*
X199654714Y-113012571D01*
X199626142Y-113069714D01*
X199626142Y-113126857D01*
X199654714Y-113212571D01*
X199997571Y-113555428D01*
X199626142Y-113555428D01*
X177436428Y-114390571D02*
X177150714Y-114190571D01*
X177436428Y-114047714D02*
X176836428Y-114047714D01*
X176836428Y-114276285D01*
X176865000Y-114333428D01*
X176893571Y-114362000D01*
X176950714Y-114390571D01*
X177036428Y-114390571D01*
X177093571Y-114362000D01*
X177122142Y-114333428D01*
X177150714Y-114276285D01*
X177150714Y-114047714D01*
X176836428Y-114904857D02*
X176836428Y-114790571D01*
X176865000Y-114733428D01*
X176893571Y-114704857D01*
X176979285Y-114647714D01*
X177093571Y-114619142D01*
X177322142Y-114619142D01*
X177379285Y-114647714D01*
X177407857Y-114676285D01*
X177436428Y-114733428D01*
X177436428Y-114847714D01*
X177407857Y-114904857D01*
X177379285Y-114933428D01*
X177322142Y-114962000D01*
X177179285Y-114962000D01*
X177122142Y-114933428D01*
X177093571Y-114904857D01*
X177065000Y-114847714D01*
X177065000Y-114733428D01*
X177093571Y-114676285D01*
X177122142Y-114647714D01*
X177179285Y-114619142D01*
X176836428Y-115333428D02*
X176836428Y-115390571D01*
X176865000Y-115447714D01*
X176893571Y-115476285D01*
X176950714Y-115504857D01*
X177065000Y-115533428D01*
X177207857Y-115533428D01*
X177322142Y-115504857D01*
X177379285Y-115476285D01*
X177407857Y-115447714D01*
X177436428Y-115390571D01*
X177436428Y-115333428D01*
X177407857Y-115276285D01*
X177379285Y-115247714D01*
X177322142Y-115219142D01*
X177207857Y-115190571D01*
X177065000Y-115190571D01*
X176950714Y-115219142D01*
X176893571Y-115247714D01*
X176865000Y-115276285D01*
X176836428Y-115333428D01*
X177093571Y-115876285D02*
X177065000Y-115819142D01*
X177036428Y-115790571D01*
X176979285Y-115762000D01*
X176950714Y-115762000D01*
X176893571Y-115790571D01*
X176865000Y-115819142D01*
X176836428Y-115876285D01*
X176836428Y-115990571D01*
X176865000Y-116047714D01*
X176893571Y-116076285D01*
X176950714Y-116104857D01*
X176979285Y-116104857D01*
X177036428Y-116076285D01*
X177065000Y-116047714D01*
X177093571Y-115990571D01*
X177093571Y-115876285D01*
X177122142Y-115819142D01*
X177150714Y-115790571D01*
X177207857Y-115762000D01*
X177322142Y-115762000D01*
X177379285Y-115790571D01*
X177407857Y-115819142D01*
X177436428Y-115876285D01*
X177436428Y-115990571D01*
X177407857Y-116047714D01*
X177379285Y-116076285D01*
X177322142Y-116104857D01*
X177207857Y-116104857D01*
X177150714Y-116076285D01*
X177122142Y-116047714D01*
X177093571Y-115990571D01*
X193457428Y-98569428D02*
X193657428Y-98283714D01*
X193800285Y-98569428D02*
X193800285Y-97969428D01*
X193571714Y-97969428D01*
X193514571Y-97998000D01*
X193486000Y-98026571D01*
X193457428Y-98083714D01*
X193457428Y-98169428D01*
X193486000Y-98226571D01*
X193514571Y-98255142D01*
X193571714Y-98283714D01*
X193800285Y-98283714D01*
X193228857Y-98026571D02*
X193200285Y-97998000D01*
X193143142Y-97969428D01*
X193000285Y-97969428D01*
X192943142Y-97998000D01*
X192914571Y-98026571D01*
X192886000Y-98083714D01*
X192886000Y-98140857D01*
X192914571Y-98226571D01*
X193257428Y-98569428D01*
X192886000Y-98569428D01*
X192314571Y-98569428D02*
X192657428Y-98569428D01*
X192486000Y-98569428D02*
X192486000Y-97969428D01*
X192543142Y-98055142D01*
X192600285Y-98112285D01*
X192657428Y-98140857D01*
X191800285Y-97969428D02*
X191914571Y-97969428D01*
X191971714Y-97998000D01*
X192000285Y-98026571D01*
X192057428Y-98112285D01*
X192086000Y-98226571D01*
X192086000Y-98455142D01*
X192057428Y-98512285D01*
X192028857Y-98540857D01*
X191971714Y-98569428D01*
X191857428Y-98569428D01*
X191800285Y-98540857D01*
X191771714Y-98512285D01*
X191743142Y-98455142D01*
X191743142Y-98312285D01*
X191771714Y-98255142D01*
X191800285Y-98226571D01*
X191857428Y-98198000D01*
X191971714Y-98198000D01*
X192028857Y-98226571D01*
X192057428Y-98255142D01*
X192086000Y-98312285D01*
X198269428Y-98315428D02*
X198469428Y-98029714D01*
X198612285Y-98315428D02*
X198612285Y-97715428D01*
X198383714Y-97715428D01*
X198326571Y-97744000D01*
X198298000Y-97772571D01*
X198269428Y-97829714D01*
X198269428Y-97915428D01*
X198298000Y-97972571D01*
X198326571Y-98001142D01*
X198383714Y-98029714D01*
X198612285Y-98029714D01*
X198040857Y-97772571D02*
X198012285Y-97744000D01*
X197955142Y-97715428D01*
X197812285Y-97715428D01*
X197755142Y-97744000D01*
X197726571Y-97772571D01*
X197698000Y-97829714D01*
X197698000Y-97886857D01*
X197726571Y-97972571D01*
X198069428Y-98315428D01*
X197698000Y-98315428D01*
X197126571Y-98315428D02*
X197469428Y-98315428D01*
X197298000Y-98315428D02*
X197298000Y-97715428D01*
X197355142Y-97801142D01*
X197412285Y-97858285D01*
X197469428Y-97886857D01*
X196555142Y-98315428D02*
X196898000Y-98315428D01*
X196726571Y-98315428D02*
X196726571Y-97715428D01*
X196783714Y-97801142D01*
X196840857Y-97858285D01*
X196898000Y-97886857D01*
X198297428Y-107238428D02*
X198497428Y-106952714D01*
X198640285Y-107238428D02*
X198640285Y-106638428D01*
X198411714Y-106638428D01*
X198354571Y-106667000D01*
X198326000Y-106695571D01*
X198297428Y-106752714D01*
X198297428Y-106838428D01*
X198326000Y-106895571D01*
X198354571Y-106924142D01*
X198411714Y-106952714D01*
X198640285Y-106952714D01*
X198068857Y-106695571D02*
X198040285Y-106667000D01*
X197983142Y-106638428D01*
X197840285Y-106638428D01*
X197783142Y-106667000D01*
X197754571Y-106695571D01*
X197726000Y-106752714D01*
X197726000Y-106809857D01*
X197754571Y-106895571D01*
X198097428Y-107238428D01*
X197726000Y-107238428D01*
X197154571Y-107238428D02*
X197497428Y-107238428D01*
X197326000Y-107238428D02*
X197326000Y-106638428D01*
X197383142Y-106724142D01*
X197440285Y-106781285D01*
X197497428Y-106809857D01*
X196783142Y-106638428D02*
X196726000Y-106638428D01*
X196668857Y-106667000D01*
X196640285Y-106695571D01*
X196611714Y-106752714D01*
X196583142Y-106867000D01*
X196583142Y-107009857D01*
X196611714Y-107124142D01*
X196640285Y-107181285D01*
X196668857Y-107209857D01*
X196726000Y-107238428D01*
X196783142Y-107238428D01*
X196840285Y-107209857D01*
X196868857Y-107181285D01*
X196897428Y-107124142D01*
X196926000Y-107009857D01*
X196926000Y-106867000D01*
X196897428Y-106752714D01*
X196868857Y-106695571D01*
X196840285Y-106667000D01*
X196783142Y-106638428D01*
X179976428Y-96723571D02*
X179690714Y-96523571D01*
X179976428Y-96380714D02*
X179376428Y-96380714D01*
X179376428Y-96609285D01*
X179405000Y-96666428D01*
X179433571Y-96695000D01*
X179490714Y-96723571D01*
X179576428Y-96723571D01*
X179633571Y-96695000D01*
X179662142Y-96666428D01*
X179690714Y-96609285D01*
X179690714Y-96380714D01*
X179433571Y-96952142D02*
X179405000Y-96980714D01*
X179376428Y-97037857D01*
X179376428Y-97180714D01*
X179405000Y-97237857D01*
X179433571Y-97266428D01*
X179490714Y-97295000D01*
X179547857Y-97295000D01*
X179633571Y-97266428D01*
X179976428Y-96923571D01*
X179976428Y-97295000D01*
X179376428Y-97666428D02*
X179376428Y-97723571D01*
X179405000Y-97780714D01*
X179433571Y-97809285D01*
X179490714Y-97837857D01*
X179605000Y-97866428D01*
X179747857Y-97866428D01*
X179862142Y-97837857D01*
X179919285Y-97809285D01*
X179947857Y-97780714D01*
X179976428Y-97723571D01*
X179976428Y-97666428D01*
X179947857Y-97609285D01*
X179919285Y-97580714D01*
X179862142Y-97552142D01*
X179747857Y-97523571D01*
X179605000Y-97523571D01*
X179490714Y-97552142D01*
X179433571Y-97580714D01*
X179405000Y-97609285D01*
X179376428Y-97666428D01*
X179976428Y-98152142D02*
X179976428Y-98266428D01*
X179947857Y-98323571D01*
X179919285Y-98352142D01*
X179833571Y-98409285D01*
X179719285Y-98437857D01*
X179490714Y-98437857D01*
X179433571Y-98409285D01*
X179405000Y-98380714D01*
X179376428Y-98323571D01*
X179376428Y-98209285D01*
X179405000Y-98152142D01*
X179433571Y-98123571D01*
X179490714Y-98095000D01*
X179633571Y-98095000D01*
X179690714Y-98123571D01*
X179719285Y-98152142D01*
X179747857Y-98209285D01*
X179747857Y-98323571D01*
X179719285Y-98380714D01*
X179690714Y-98409285D01*
X179633571Y-98437857D01*
X186218428Y-107459428D02*
X186418428Y-107173714D01*
X186561285Y-107459428D02*
X186561285Y-106859428D01*
X186332714Y-106859428D01*
X186275571Y-106888000D01*
X186247000Y-106916571D01*
X186218428Y-106973714D01*
X186218428Y-107059428D01*
X186247000Y-107116571D01*
X186275571Y-107145142D01*
X186332714Y-107173714D01*
X186561285Y-107173714D01*
X185989857Y-106916571D02*
X185961285Y-106888000D01*
X185904142Y-106859428D01*
X185761285Y-106859428D01*
X185704142Y-106888000D01*
X185675571Y-106916571D01*
X185647000Y-106973714D01*
X185647000Y-107030857D01*
X185675571Y-107116571D01*
X186018428Y-107459428D01*
X185647000Y-107459428D01*
X185275571Y-106859428D02*
X185218428Y-106859428D01*
X185161285Y-106888000D01*
X185132714Y-106916571D01*
X185104142Y-106973714D01*
X185075571Y-107088000D01*
X185075571Y-107230857D01*
X185104142Y-107345142D01*
X185132714Y-107402285D01*
X185161285Y-107430857D01*
X185218428Y-107459428D01*
X185275571Y-107459428D01*
X185332714Y-107430857D01*
X185361285Y-107402285D01*
X185389857Y-107345142D01*
X185418428Y-107230857D01*
X185418428Y-107088000D01*
X185389857Y-106973714D01*
X185361285Y-106916571D01*
X185332714Y-106888000D01*
X185275571Y-106859428D01*
X184561285Y-107059428D02*
X184561285Y-107459428D01*
X184704142Y-106830857D02*
X184847000Y-107259428D01*
X184475571Y-107259428D01*
X185837428Y-104284428D02*
X186037428Y-103998714D01*
X186180285Y-104284428D02*
X186180285Y-103684428D01*
X185951714Y-103684428D01*
X185894571Y-103713000D01*
X185866000Y-103741571D01*
X185837428Y-103798714D01*
X185837428Y-103884428D01*
X185866000Y-103941571D01*
X185894571Y-103970142D01*
X185951714Y-103998714D01*
X186180285Y-103998714D01*
X185608857Y-103741571D02*
X185580285Y-103713000D01*
X185523142Y-103684428D01*
X185380285Y-103684428D01*
X185323142Y-103713000D01*
X185294571Y-103741571D01*
X185266000Y-103798714D01*
X185266000Y-103855857D01*
X185294571Y-103941571D01*
X185637428Y-104284428D01*
X185266000Y-104284428D01*
X184894571Y-103684428D02*
X184837428Y-103684428D01*
X184780285Y-103713000D01*
X184751714Y-103741571D01*
X184723142Y-103798714D01*
X184694571Y-103913000D01*
X184694571Y-104055857D01*
X184723142Y-104170142D01*
X184751714Y-104227285D01*
X184780285Y-104255857D01*
X184837428Y-104284428D01*
X184894571Y-104284428D01*
X184951714Y-104255857D01*
X184980285Y-104227285D01*
X185008857Y-104170142D01*
X185037428Y-104055857D01*
X185037428Y-103913000D01*
X185008857Y-103798714D01*
X184980285Y-103741571D01*
X184951714Y-103713000D01*
X184894571Y-103684428D01*
X184494571Y-103684428D02*
X184123142Y-103684428D01*
X184323142Y-103913000D01*
X184237428Y-103913000D01*
X184180285Y-103941571D01*
X184151714Y-103970142D01*
X184123142Y-104027285D01*
X184123142Y-104170142D01*
X184151714Y-104227285D01*
X184180285Y-104255857D01*
X184237428Y-104284428D01*
X184408857Y-104284428D01*
X184466000Y-104255857D01*
X184494571Y-104227285D01*
X185837428Y-100982428D02*
X186037428Y-100696714D01*
X186180285Y-100982428D02*
X186180285Y-100382428D01*
X185951714Y-100382428D01*
X185894571Y-100411000D01*
X185866000Y-100439571D01*
X185837428Y-100496714D01*
X185837428Y-100582428D01*
X185866000Y-100639571D01*
X185894571Y-100668142D01*
X185951714Y-100696714D01*
X186180285Y-100696714D01*
X185608857Y-100439571D02*
X185580285Y-100411000D01*
X185523142Y-100382428D01*
X185380285Y-100382428D01*
X185323142Y-100411000D01*
X185294571Y-100439571D01*
X185266000Y-100496714D01*
X185266000Y-100553857D01*
X185294571Y-100639571D01*
X185637428Y-100982428D01*
X185266000Y-100982428D01*
X184894571Y-100382428D02*
X184837428Y-100382428D01*
X184780285Y-100411000D01*
X184751714Y-100439571D01*
X184723142Y-100496714D01*
X184694571Y-100611000D01*
X184694571Y-100753857D01*
X184723142Y-100868142D01*
X184751714Y-100925285D01*
X184780285Y-100953857D01*
X184837428Y-100982428D01*
X184894571Y-100982428D01*
X184951714Y-100953857D01*
X184980285Y-100925285D01*
X185008857Y-100868142D01*
X185037428Y-100753857D01*
X185037428Y-100611000D01*
X185008857Y-100496714D01*
X184980285Y-100439571D01*
X184951714Y-100411000D01*
X184894571Y-100382428D01*
X184466000Y-100439571D02*
X184437428Y-100411000D01*
X184380285Y-100382428D01*
X184237428Y-100382428D01*
X184180285Y-100411000D01*
X184151714Y-100439571D01*
X184123142Y-100496714D01*
X184123142Y-100553857D01*
X184151714Y-100639571D01*
X184494571Y-100982428D01*
X184123142Y-100982428D01*
X185710428Y-97934428D02*
X185910428Y-97648714D01*
X186053285Y-97934428D02*
X186053285Y-97334428D01*
X185824714Y-97334428D01*
X185767571Y-97363000D01*
X185739000Y-97391571D01*
X185710428Y-97448714D01*
X185710428Y-97534428D01*
X185739000Y-97591571D01*
X185767571Y-97620142D01*
X185824714Y-97648714D01*
X186053285Y-97648714D01*
X185481857Y-97391571D02*
X185453285Y-97363000D01*
X185396142Y-97334428D01*
X185253285Y-97334428D01*
X185196142Y-97363000D01*
X185167571Y-97391571D01*
X185139000Y-97448714D01*
X185139000Y-97505857D01*
X185167571Y-97591571D01*
X185510428Y-97934428D01*
X185139000Y-97934428D01*
X184767571Y-97334428D02*
X184710428Y-97334428D01*
X184653285Y-97363000D01*
X184624714Y-97391571D01*
X184596142Y-97448714D01*
X184567571Y-97563000D01*
X184567571Y-97705857D01*
X184596142Y-97820142D01*
X184624714Y-97877285D01*
X184653285Y-97905857D01*
X184710428Y-97934428D01*
X184767571Y-97934428D01*
X184824714Y-97905857D01*
X184853285Y-97877285D01*
X184881857Y-97820142D01*
X184910428Y-97705857D01*
X184910428Y-97563000D01*
X184881857Y-97448714D01*
X184853285Y-97391571D01*
X184824714Y-97363000D01*
X184767571Y-97334428D01*
X183996142Y-97934428D02*
X184339000Y-97934428D01*
X184167571Y-97934428D02*
X184167571Y-97334428D01*
X184224714Y-97420142D01*
X184281857Y-97477285D01*
X184339000Y-97505857D01*
X200871142Y-132705571D02*
X200871142Y-132505571D01*
X201185428Y-132505571D02*
X200585428Y-132505571D01*
X200585428Y-132791285D01*
X200785428Y-133277000D02*
X201185428Y-133277000D01*
X200556857Y-133134142D02*
X200985428Y-132991285D01*
X200985428Y-133362714D01*
X200585428Y-133705571D02*
X200585428Y-133762714D01*
X200614000Y-133819857D01*
X200642571Y-133848428D01*
X200699714Y-133877000D01*
X200814000Y-133905571D01*
X200956857Y-133905571D01*
X201071142Y-133877000D01*
X201128285Y-133848428D01*
X201156857Y-133819857D01*
X201185428Y-133762714D01*
X201185428Y-133705571D01*
X201156857Y-133648428D01*
X201128285Y-133619857D01*
X201071142Y-133591285D01*
X200956857Y-133562714D01*
X200814000Y-133562714D01*
X200699714Y-133591285D01*
X200642571Y-133619857D01*
X200614000Y-133648428D01*
X200585428Y-133705571D01*
X201185428Y-134477000D02*
X201185428Y-134134142D01*
X201185428Y-134305571D02*
X200585428Y-134305571D01*
X200671142Y-134248428D01*
X200728285Y-134191285D01*
X200756857Y-134134142D01*
X203452285Y-125771428D02*
X203452285Y-125171428D01*
X203309428Y-125171428D01*
X203223714Y-125200000D01*
X203166571Y-125257142D01*
X203138000Y-125314285D01*
X203109428Y-125428571D01*
X203109428Y-125514285D01*
X203138000Y-125628571D01*
X203166571Y-125685714D01*
X203223714Y-125742857D01*
X203309428Y-125771428D01*
X203452285Y-125771428D01*
X202595142Y-125371428D02*
X202595142Y-125771428D01*
X202738000Y-125142857D02*
X202880857Y-125571428D01*
X202509428Y-125571428D01*
X202166571Y-125171428D02*
X202109428Y-125171428D01*
X202052285Y-125200000D01*
X202023714Y-125228571D01*
X201995142Y-125285714D01*
X201966571Y-125400000D01*
X201966571Y-125542857D01*
X201995142Y-125657142D01*
X202023714Y-125714285D01*
X202052285Y-125742857D01*
X202109428Y-125771428D01*
X202166571Y-125771428D01*
X202223714Y-125742857D01*
X202252285Y-125714285D01*
X202280857Y-125657142D01*
X202309428Y-125542857D01*
X202309428Y-125400000D01*
X202280857Y-125285714D01*
X202252285Y-125228571D01*
X202223714Y-125200000D01*
X202166571Y-125171428D01*
X201738000Y-125228571D02*
X201709428Y-125200000D01*
X201652285Y-125171428D01*
X201509428Y-125171428D01*
X201452285Y-125200000D01*
X201423714Y-125228571D01*
X201395142Y-125285714D01*
X201395142Y-125342857D01*
X201423714Y-125428571D01*
X201766571Y-125771428D01*
X201395142Y-125771428D01*
X193420928Y-106640285D02*
X193449500Y-106668857D01*
X193535214Y-106697428D01*
X193592357Y-106697428D01*
X193678071Y-106668857D01*
X193735214Y-106611714D01*
X193763785Y-106554571D01*
X193792357Y-106440285D01*
X193792357Y-106354571D01*
X193763785Y-106240285D01*
X193735214Y-106183142D01*
X193678071Y-106126000D01*
X193592357Y-106097428D01*
X193535214Y-106097428D01*
X193449500Y-106126000D01*
X193420928Y-106154571D01*
X193192357Y-106154571D02*
X193163785Y-106126000D01*
X193106642Y-106097428D01*
X192963785Y-106097428D01*
X192906642Y-106126000D01*
X192878071Y-106154571D01*
X192849500Y-106211714D01*
X192849500Y-106268857D01*
X192878071Y-106354571D01*
X193220928Y-106697428D01*
X192849500Y-106697428D01*
X192278071Y-106697428D02*
X192620928Y-106697428D01*
X192449500Y-106697428D02*
X192449500Y-106097428D01*
X192506642Y-106183142D01*
X192563785Y-106240285D01*
X192620928Y-106268857D01*
X192049500Y-106154571D02*
X192020928Y-106126000D01*
X191963785Y-106097428D01*
X191820928Y-106097428D01*
X191763785Y-106126000D01*
X191735214Y-106154571D01*
X191706642Y-106211714D01*
X191706642Y-106268857D01*
X191735214Y-106354571D01*
X192078071Y-106697428D01*
X191706642Y-106697428D01*
X197303928Y-100756285D02*
X197332500Y-100784857D01*
X197418214Y-100813428D01*
X197475357Y-100813428D01*
X197561071Y-100784857D01*
X197618214Y-100727714D01*
X197646785Y-100670571D01*
X197675357Y-100556285D01*
X197675357Y-100470571D01*
X197646785Y-100356285D01*
X197618214Y-100299142D01*
X197561071Y-100242000D01*
X197475357Y-100213428D01*
X197418214Y-100213428D01*
X197332500Y-100242000D01*
X197303928Y-100270571D01*
X197075357Y-100270571D02*
X197046785Y-100242000D01*
X196989642Y-100213428D01*
X196846785Y-100213428D01*
X196789642Y-100242000D01*
X196761071Y-100270571D01*
X196732500Y-100327714D01*
X196732500Y-100384857D01*
X196761071Y-100470571D01*
X197103928Y-100813428D01*
X196732500Y-100813428D01*
X196161071Y-100813428D02*
X196503928Y-100813428D01*
X196332500Y-100813428D02*
X196332500Y-100213428D01*
X196389642Y-100299142D01*
X196446785Y-100356285D01*
X196503928Y-100384857D01*
X195589642Y-100813428D02*
X195932500Y-100813428D01*
X195761071Y-100813428D02*
X195761071Y-100213428D01*
X195818214Y-100299142D01*
X195875357Y-100356285D01*
X195932500Y-100384857D01*
M02*
