M48
; DRILL file {KiCad 5.1.4} date Wed Sep 25 18:31:07 2019
; FORMAT={-:-/ absolute / inch / decimal}
; #@! TF.CreationDate,2019-09-25T18:31:07+02:00
; #@! TF.GenerationSoftware,Kicad,Pcbnew,5.1.4
; #@! TF.FileFunction,Plated,1,4,PTH
FMAT,2
INCH
T1C0.0079
T2C0.0118
T3C0.0157
T4C0.0236
T5C0.0256
T6C0.0315
T7C0.0319
T8C0.0394
T9C0.0551
T10C0.1000
T11C0.1220
T12C0.1260
%
G90
G05
T1
X2.76Y-4.525
X2.765Y-4.585
X2.7665Y-4.5012
X2.77Y-4.765
X2.9227Y-4.4043
X2.9245Y-4.4545
X2.9287Y-4.4287
X3.145Y-4.61
X3.145Y-4.79
X3.145Y-4.815
X3.145Y-4.87
X3.1523Y-4.585
X3.24Y-4.535
X3.25Y-4.885
X3.305Y-4.765
X3.33Y-4.835
X3.425Y-4.67
X3.46Y-4.8723
X3.46Y-4.897
X3.5527Y-4.765
X3.57Y-4.865
X3.845Y-4.535
X3.845Y-4.585
X3.845Y-4.61
X3.845Y-4.635
X3.85Y-4.765
X3.85Y-4.84
X4.105Y-4.765
X4.12Y-4.6723
X4.165Y-4.505
X4.165Y-4.535
X4.165Y-4.585
X4.165Y-4.61
X4.165Y-4.79
X4.165Y-4.815
X4.25Y-4.765
X4.535Y-4.8423
X4.5536Y-4.635
X4.5536Y-4.765
X4.955Y-4.765
X4.96Y-4.56
X4.9633Y-4.5322
X4.985Y-4.51
X5.19Y-4.565
X5.2112Y-4.835
X5.2348Y-4.8497
X5.2459Y-4.8718
X5.25Y-4.61
X5.25Y-4.79
X5.25Y-4.815
X5.33Y-4.765
X5.33Y-4.84
X5.335Y-4.535
X5.335Y-4.585
X5.395Y-4.67
X5.5706Y-4.764
X5.945Y-4.765
X5.945Y-4.84
X5.95Y-4.635
X6.155Y-5.2
X6.16Y-5.135
X6.1602Y-4.9152
X6.175Y-4.62
X6.1855Y-4.9872
X6.1904Y-4.4701
X6.195Y-4.9627
X6.29Y-4.765
X6.29Y-4.795
X6.335Y-5.1373
X6.345Y-4.92
X6.3927Y-4.6427
X6.405Y-4.52
X6.415Y-4.34
X6.4173Y-4.445
X6.4173Y-4.4705
X6.43Y-4.6327
X6.44Y-4.9373
X6.455Y-4.6698
X6.47Y-4.9473
X6.4952Y-4.3426
X6.525Y-4.79
X6.54Y-4.43
X6.58Y-4.43
X6.605Y-4.295
X6.605Y-5.055
X6.655Y-4.765
X6.66Y-4.29
X6.665Y-5.0377
X6.67Y-4.2303
X6.7122Y-4.4289
X6.745Y-4.255
X6.755Y-5.1277
X6.795Y-5.175
X6.805Y-4.195
X6.85Y-3.845
X6.875Y-5.055
X6.89Y-3.985
X6.89Y-4.045
X6.89Y-4.105
X6.89Y-4.165
X6.89Y-4.225
X6.91Y-3.845
X6.925Y-5.0727
X6.955Y-4.14
X6.955Y-5.0823
X6.961Y-4.1123
X6.97Y-4.805
X6.975Y-4.225
X6.985Y-5.1377
X7.035Y-5.145
X7.0415Y-4.675
X7.12Y-4.73
X7.17Y-4.07
X7.1996Y-4.0646
X7.2204Y-4.0854
X7.2548Y-4.202
X7.2756Y-4.1812
X7.475Y-3.845
X7.475Y-3.96
X7.475Y-4.1
X7.475Y-4.205
X7.715Y-3.905
X7.715Y-4.155
X7.0237Y-4.0843
X7.0237Y-4.1256
X7.0237Y-4.1669
X7.065Y-4.0843
X7.065Y-4.1256
X7.065Y-4.1669
X7.1063Y-4.0843
X7.1063Y-4.1256
X7.1063Y-4.1669
T2
X2.7473Y-4.5592
X2.76Y-4.635
X2.76Y-4.715
X2.96Y-4.545
X2.96Y-4.9
X3.0Y-4.545
X3.0Y-4.9
X3.035Y-4.545
X3.035Y-4.9
X3.145Y-4.715
X3.46Y-4.56
X3.46Y-4.635
X3.46Y-4.715
X3.645Y-4.545
X3.69Y-4.545
X3.735Y-4.545
X3.94Y-4.715
X4.05Y-4.81
X4.14Y-4.395
X4.155Y-4.64
X4.155Y-4.715
X4.19Y-4.395
X4.24Y-4.395
X4.265Y-4.545
X4.34Y-4.87
X4.38Y-4.87
X4.425Y-4.87
X4.445Y-4.55
X4.48Y-4.55
X4.615Y-4.445
X4.64Y-4.71
X4.86Y-4.56
X4.86Y-4.64
X4.86Y-4.715
X4.87Y-4.395
X4.92Y-4.395
X4.97Y-4.395
X5.06Y-4.8743
X5.1Y-4.8743
X5.145Y-4.8743
X5.25Y-4.715
X5.46Y-5.095
X5.485Y-4.89
X5.525Y-4.865
X5.56Y-4.56
X5.56Y-4.64
X5.56Y-4.715
X5.755Y-4.535
X5.8Y-4.535
X5.84Y-4.535
X5.89Y-4.535
X5.945Y-4.715
X6.0857Y-5.1123
X6.195Y-4.75
X6.2Y-4.495
X6.285Y-4.95
X6.29Y-5.1393
X6.29Y-5.035
X6.375Y-4.43
X6.42Y-5.095
X6.4364Y-4.4209
X6.5315Y-5.1793
X6.55Y-5.095
X6.565Y-4.66
X6.605Y-4.785
X6.68Y-4.43
X6.69Y-5.095
X6.7466Y-5.1793
X6.81Y-4.045
X6.82Y-5.095
X6.85Y-4.315
X6.87Y-4.66
X6.875Y-4.785
X6.9007Y-4.425
X6.925Y-4.3157
X6.9655Y-5.1793
X6.98Y-5.015
X7.025Y-4.91
X7.025Y-5.22
X7.03Y-4.38
X7.03Y-4.59
X7.0319Y-4.7119
X7.0534Y-4.3139
X7.12Y-4.02
X7.125Y-4.455
X7.125Y-4.93
X7.1411Y-4.2711
X7.175Y-4.185
X7.19Y-4.56
X7.19Y-4.61
X7.19Y-4.66
X7.21Y-4.845
X7.21Y-4.895
X7.23Y-4.235
X7.24Y-4.56
X7.24Y-4.61
X7.24Y-4.66
X7.26Y-4.34
X7.26Y-4.845
X7.26Y-4.895
X7.31Y-4.845
X7.31Y-4.895
X7.34Y-4.265
X7.345Y-3.845
X7.345Y-3.965
X7.345Y-4.095
X7.36Y-4.845
X7.36Y-4.895
X7.41Y-4.845
X7.41Y-4.895
X7.475Y-3.905
X7.475Y-4.155
X7.5Y-5.1
X7.5Y-5.15
X7.5Y-5.2
X7.55Y-5.1
X7.55Y-5.15
X7.55Y-5.2
X7.6Y-5.15
X7.6Y-5.2
X7.635Y-4.745
X7.635Y-4.795
X7.635Y-4.845
X7.65Y-5.15
X7.65Y-5.2
X7.685Y-4.745
X7.685Y-4.795
X7.685Y-4.845
X7.685Y-4.895
X7.7Y-5.105
X7.7Y-5.15
X7.7Y-5.2
X7.735Y-4.745
X7.735Y-4.795
X7.735Y-4.845
X7.735Y-4.895
X7.75Y-5.105
X7.75Y-5.15
X7.75Y-5.2
X7.785Y-4.745
X7.785Y-4.795
X7.785Y-4.845
X7.785Y-4.895
X7.81Y-4.51
X7.825Y-5.18
X7.825Y-5.23
X7.825Y-5.28
X7.825Y-5.33
X7.825Y-5.38
X7.875Y-5.38
X7.885Y-5.31
X7.91Y-4.51
X7.995Y-5.0
X7.995Y-5.05
X7.995Y-5.1
X8.05Y-5.33
X8.05Y-5.38
X8.06Y-4.51
X8.1Y-5.33
X8.1Y-5.38
X8.15Y-5.33
X8.15Y-5.38
X8.345Y-5.175
X8.345Y-5.225
X8.345Y-5.275
X8.345Y-5.325
X8.345Y-5.375
X8.395Y-5.175
X8.395Y-5.225
X8.395Y-5.275
X8.395Y-5.325
X8.395Y-5.375
T3
X2.675Y-3.27
X2.6827Y-2.4389
X2.685Y-2.5533
X2.6852Y-2.4998
X2.87Y-2.9701
X2.91Y-3.005
X3.015Y-3.0
T4
X7.6378Y-4.9
X7.6378Y-5.0
X7.6378Y-5.1
T5
X5.815Y-5.14
X5.815Y-5.19
X5.865Y-5.14
X5.865Y-5.19
X5.915Y-5.14
X5.915Y-5.19
X5.965Y-5.14
X5.965Y-5.19
X6.015Y-5.14
X6.015Y-5.19
T6
X8.2543Y-1.9933
X8.2543Y-2.0933
X8.2543Y-2.1933
X8.2543Y-2.2933
X8.2543Y-2.3933
X8.2543Y-2.4933
X8.2543Y-2.5933
X8.2543Y-2.6933
X8.2543Y-2.7933
X8.2543Y-2.8933
X8.2543Y-2.9933
X8.2543Y-3.0933
X8.2543Y-3.1933
X8.2543Y-3.2933
X8.2543Y-3.3933
X8.2543Y-3.4933
X8.2543Y-3.5933
X8.2543Y-3.6933
X8.2543Y-3.7933
X8.2543Y-3.8933
X8.2543Y-3.9933
X8.2543Y-4.0933
X8.2543Y-4.1933
X8.2543Y-4.2933
X8.2543Y-4.3933
X8.2543Y-4.4933
X8.2543Y-4.5933
X8.2543Y-4.6933
X8.2543Y-4.7933
X8.2543Y-4.8933
X8.2543Y-4.9933
X8.2543Y-5.0933
X8.4543Y-1.9933
X8.4543Y-2.0933
X8.4543Y-2.1933
X8.4543Y-2.2933
X8.4543Y-2.3933
X8.4543Y-2.4933
X8.4543Y-2.5933
X8.4543Y-2.6933
X8.4543Y-2.7933
X8.4543Y-2.8933
X8.4543Y-2.9933
X8.4543Y-3.0933
X8.4543Y-3.1933
X8.4543Y-3.2933
X8.4543Y-3.3933
X8.4543Y-3.4933
X8.4543Y-3.5933
X8.4543Y-3.6933
X8.4543Y-3.7933
X8.4543Y-3.8933
X8.4543Y-3.9933
X8.4543Y-4.0933
X8.4543Y-4.1933
X8.4543Y-4.2933
X8.4543Y-4.3933
X8.4543Y-4.4933
X8.4543Y-4.5933
X8.4543Y-4.6933
X8.4543Y-4.7933
X8.4543Y-4.8933
X8.4543Y-4.9933
X8.4543Y-5.0933
T7
X2.4984Y-2.5252
X2.4984Y-2.6252
X2.4984Y-2.7252
X2.4984Y-2.8252
X2.4984Y-2.9252
X2.4984Y-3.0252
X2.4984Y-3.1252
X2.4984Y-3.2252
X2.4984Y-3.3252
X2.4984Y-3.4252
X2.5984Y-2.5252
X2.5984Y-2.6252
X2.5984Y-2.7252
X2.5984Y-2.8252
X2.5984Y-2.9252
X2.5984Y-3.0252
X2.5984Y-3.1252
X2.5984Y-3.2252
X2.5984Y-3.3252
X2.5984Y-3.4252
T8
X7.9528Y-2.0866
X7.9528Y-2.1866
X7.9528Y-2.2866
X7.9528Y-2.3866
X7.9528Y-2.4866
X7.9528Y-2.5866
X4.4488Y-5.0787
X4.4488Y-5.1787
X4.5488Y-5.0787
X4.5488Y-5.1787
X4.6488Y-5.0787
X4.6488Y-5.1787
X4.7488Y-5.0787
X4.7488Y-5.1787
X4.8488Y-5.0787
X4.8488Y-5.1787
X4.9488Y-5.0787
X4.9488Y-5.1787
X5.0488Y-5.0787
X5.0488Y-5.1787
X5.1488Y-5.0787
X5.1488Y-5.1787
X5.535Y-5.1607
X5.635Y-5.1607
T9
X5.7402Y-2.6685
X5.7402Y-2.8685
X5.7402Y-3.0685
X5.7402Y-3.2685
X4.3071Y-1.8181
X4.3071Y-2.0181
X4.3071Y-2.2181
X4.3071Y-2.4181
X3.6929Y-3.5189
X3.6929Y-3.7189
X3.6929Y-3.9189
X3.6929Y-4.1189
X5.3307Y-2.6685
X5.3307Y-2.8685
X5.3307Y-3.0685
X5.3307Y-3.2685
X6.1496Y-1.8181
X6.1496Y-2.0181
X6.1496Y-2.2181
X6.1496Y-2.4181
X5.126Y-3.5189
X5.126Y-3.7189
X5.126Y-3.9189
X5.126Y-4.1189
X6.5591Y-2.6685
X6.5591Y-2.8685
X6.5591Y-3.0685
X6.5591Y-3.2685
X5.9449Y-3.5189
X5.9449Y-3.7189
X5.9449Y-3.9189
X5.9449Y-4.1189
X3.4882Y-3.5189
X3.4882Y-3.7189
X3.4882Y-3.9189
X3.4882Y-4.1189
X3.2835Y-3.5189
X3.2835Y-3.7189
X3.2835Y-3.9189
X3.2835Y-4.1189
X3.8976Y-2.6685
X3.8976Y-2.8685
X3.8976Y-3.0685
X3.8976Y-3.2685
X3.2835Y-1.8181
X3.2835Y-2.0181
X3.2835Y-2.2181
X3.2835Y-2.4181
X7.1732Y-1.8181
X7.1732Y-2.0181
X7.1732Y-2.2181
X7.1732Y-2.4181
X3.8976Y-3.5189
X3.8976Y-3.7189
X3.8976Y-3.9189
X3.8976Y-4.1189
X7.378Y-2.6685
X7.378Y-2.8685
X7.378Y-3.0685
X7.378Y-3.2685
X7.1732Y-2.6685
X7.1732Y-2.8685
X7.1732Y-3.0685
X7.1732Y-3.2685
X6.7638Y-1.8181
X6.7638Y-2.0181
X6.7638Y-2.2181
X6.7638Y-2.4181
X6.5591Y-1.8181
X6.5591Y-2.0181
X6.5591Y-2.2181
X6.5591Y-2.4181
X5.126Y-1.8181
X5.126Y-2.0181
X5.126Y-2.2181
X5.126Y-2.4181
X5.5354Y-3.5189
X5.5354Y-3.7189
X5.5354Y-3.9189
X5.5354Y-4.1189
X4.5118Y-2.6685
X4.5118Y-2.8685
X4.5118Y-3.0685
X4.5118Y-3.2685
X6.9685Y-2.6685
X6.9685Y-2.8685
X6.9685Y-3.0685
X6.9685Y-3.2685
X2.874Y-2.6685
X2.874Y-2.8685
X2.874Y-3.0685
X2.874Y-3.2685
X4.7165Y-3.5189
X4.7165Y-3.7189
X4.7165Y-3.9189
X4.7165Y-4.1189
X3.2835Y-2.6685
X3.2835Y-2.8685
X3.2835Y-3.0685
X3.2835Y-3.2685
X5.3307Y-1.8181
X5.3307Y-2.0181
X5.3307Y-2.2181
X5.3307Y-2.4181
X7.5827Y-2.6685
X7.5827Y-2.8685
X7.5827Y-3.0685
X7.5827Y-3.2685
X6.3543Y-3.5189
X6.3543Y-3.7189
X6.3543Y-3.9189
X6.3543Y-4.1189
X2.874Y-3.5189
X2.874Y-3.7189
X2.874Y-3.9189
X2.874Y-4.1189
X7.378Y-1.8181
X7.378Y-2.0181
X7.378Y-2.2181
X7.378Y-2.4181
X7.5827Y-1.8181
X7.5827Y-2.0181
X7.5827Y-2.2181
X7.5827Y-2.4181
X5.126Y-2.6685
X5.126Y-2.8685
X5.126Y-3.0685
X5.126Y-3.2685
X6.1496Y-2.6685
X6.1496Y-2.8685
X6.1496Y-3.0685
X6.1496Y-3.2685
X4.7165Y-2.6685
X4.7165Y-2.8685
X4.7165Y-3.0685
X4.7165Y-3.2685
X5.7402Y-3.5189
X5.7402Y-3.7189
X5.7402Y-3.9189
X5.7402Y-4.1189
X5.9449Y-2.6685
X5.9449Y-2.8685
X5.9449Y-3.0685
X5.9449Y-3.2685
X5.9449Y-1.8181
X5.9449Y-2.0181
X5.9449Y-2.2181
X5.9449Y-2.4181
X3.6929Y-2.6685
X3.6929Y-2.8685
X3.6929Y-3.0685
X3.6929Y-3.2685
X4.1024Y-3.5189
X4.1024Y-3.7189
X4.1024Y-3.9189
X4.1024Y-4.1189
X4.9213Y-1.8181
X4.9213Y-2.0181
X4.9213Y-2.2181
X4.9213Y-2.4181
X3.0787Y-2.6685
X3.0787Y-2.8685
X3.0787Y-3.0685
X3.0787Y-3.2685
X2.874Y-1.8181
X2.874Y-2.0181
X2.874Y-2.2181
X2.874Y-2.4181
X4.5118Y-3.5189
X4.5118Y-3.7189
X4.5118Y-3.9189
X4.5118Y-4.1189
X5.5354Y-2.6685
X5.5354Y-2.8685
X5.5354Y-3.0685
X5.5354Y-3.2685
X3.0787Y-1.8181
X3.0787Y-2.0181
X3.0787Y-2.2181
X3.0787Y-2.4181
X4.5118Y-1.8181
X4.5118Y-2.0181
X4.5118Y-2.2181
X4.5118Y-2.4181
X6.7638Y-2.6685
X6.7638Y-2.8685
X6.7638Y-3.0685
X6.7638Y-3.2685
X4.9213Y-3.5189
X4.9213Y-3.7189
X4.9213Y-3.9189
X4.9213Y-4.1189
X4.3071Y-2.6685
X4.3071Y-2.8685
X4.3071Y-3.0685
X4.3071Y-3.2685
X6.3543Y-2.6685
X6.3543Y-2.8685
X6.3543Y-3.0685
X6.3543Y-3.2685
X3.4882Y-1.8181
X3.4882Y-2.0181
X3.4882Y-2.2181
X3.4882Y-2.4181
X6.3543Y-1.8181
X6.3543Y-2.0181
X6.3543Y-2.2181
X6.3543Y-2.4181
X5.5354Y-1.8181
X5.5354Y-2.0181
X5.5354Y-2.2181
X5.5354Y-2.4181
X5.3307Y-3.5189
X5.3307Y-3.7189
X5.3307Y-3.9189
X5.3307Y-4.1189
X3.6929Y-1.8181
X3.6929Y-2.0181
X3.6929Y-2.2181
X3.6929Y-2.4181
X3.8976Y-1.8181
X3.8976Y-2.0181
X3.8976Y-2.2181
X3.8976Y-2.4181
X6.9685Y-1.8181
X6.9685Y-2.0181
X6.9685Y-2.2181
X6.9685Y-2.4181
X6.1496Y-3.5189
X6.1496Y-3.7189
X6.1496Y-3.9189
X6.1496Y-4.1189
X3.4882Y-2.6685
X3.4882Y-2.8685
X3.4882Y-3.0685
X3.4882Y-3.2685
X4.9213Y-2.6685
X4.9213Y-2.8685
X4.9213Y-3.0685
X4.9213Y-3.2685
X4.1024Y-1.8181
X4.1024Y-2.0181
X4.1024Y-2.2181
X4.1024Y-2.4181
X3.0787Y-3.5189
X3.0787Y-3.7189
X3.0787Y-3.9189
X3.0787Y-4.1189
X4.1024Y-2.6685
X4.1024Y-2.8685
X4.1024Y-3.0685
X4.1024Y-3.2685
X4.3071Y-3.5189
X4.3071Y-3.7189
X4.3071Y-3.9189
X4.3071Y-4.1189
X5.7402Y-1.8181
X5.7402Y-2.0181
X5.7402Y-2.2181
X5.7402Y-2.4181
X4.7165Y-1.8181
X4.7165Y-2.0181
X4.7165Y-2.2181
X4.7165Y-2.4181
T10
X2.5283Y-2.2953
X2.5283Y-3.6551
T11
X8.5543Y-1.7933
X8.5543Y-5.2933
T12
X2.5Y-1.8504
X2.5Y-5.2362
T0
M30
